<?xml version="1.0" encoding="UTF-8" standalone="no"?>
<!-- Created with Inkscape (http://www.inkscape.org/) -->

<svg
   xmlns:dc="http://purl.org/dc/elements/1.1/"
   xmlns:cc="http://creativecommons.org/ns#"
   xmlns:rdf="http://www.w3.org/1999/02/22-rdf-syntax-ns#"
   xmlns:svg="http://www.w3.org/2000/svg"
   xmlns="http://www.w3.org/2000/svg"
   xmlns:xlink="http://www.w3.org/1999/xlink"
   xmlns:sodipodi="http://sodipodi.sourceforge.net/DTD/sodipodi-0.dtd"
   xmlns:inkscape="http://www.inkscape.org/namespaces/inkscape"
   viewBox="0 0 3200 800"
   sodipodi:docname="faces.svg"
   inkscape:version="0.91 r13725"
   version="1.1"
   id="svg2"
   height="800"
   width="3200">
  <sodipodi:namedview
     inkscape:window-maximized="1"
     inkscape:window-y="0"
     inkscape:window-x="0"
     inkscape:window-height="876"
     inkscape:window-width="1600"
     showgrid="false"
     inkscape:current-layer="layer1"
     inkscape:document-units="px"
     inkscape:cy="394.36778"
     inkscape:cx="1544.1799"
     inkscape:zoom="0.58424698"
     inkscape:pageshadow="2"
     inkscape:pageopacity="0.0"
     borderopacity="1.0"
     bordercolor="#666666"
     pagecolor="#ffffff"
     id="base" />
  <defs
     id="defs4">
    <pattern
       patternTransform="matrix(1.591487,0,0,1.9894526,190.92497,779.2922)"
       id="pattern5325"
       xlink:href="#pattern5322" />
    <pattern
       patternTransform="translate(78.775002,157.09584)"
       id="pattern5322"
       xlink:href="#pattern5309" />
    <pattern
       patternTransform="matrix(2.7494444,0,0,1,-4.5258789e-6,-1.0454102e-5)"
       id="pattern5312"
       xlink:href="#pattern5307" />
    <pattern
       patternTransform="matrix(2.7494444,0,0,1,78.774997,157.09583)"
       id="pattern5307"
       xlink:href="#pattern5271" />
    <pattern
       id="pattern5271"
       patternTransform="translate(92.875,156.3125)"
       height="129.25"
       width="10"
       patternUnits="userSpaceOnUse">
      <g
         transform="translate(-92.875,-156.3125)"
         id="g5267">
        <path
           id="path5254"
           d="m 92.875,156.3125 0,129.25 10,0 0,-129.25 -10,0 z"
           style="font-size:medium;font-style:normal;font-variant:normal;font-weight:normal;font-stretch:normal;text-indent:0;text-align:start;text-decoration:none;line-height:normal;letter-spacing:normal;word-spacing:normal;text-transform:none;direction:ltr;block-progression:tb;writing-mode:lr-tb;text-anchor:start;baseline-shift:baseline;color:#000000;fill:#ffffff;fill-opacity:1;fill-rule:nonzero;stroke:none;stroke-width:10;marker:none;visibility:visible;display:inline;overflow:visible;enable-background:accumulate;font-family:Sans;-inkscape-font-specification:Sans" />
        <path
           id="path5246"
           d="m 96.875,156.3125 0,129.25 2,0 0,-129.25 -2,0 z"
           style="font-size:medium;font-style:normal;font-variant:normal;font-weight:normal;font-stretch:normal;text-indent:0;text-align:start;text-decoration:none;line-height:normal;letter-spacing:normal;word-spacing:normal;text-transform:none;direction:ltr;block-progression:tb;writing-mode:lr-tb;text-anchor:start;baseline-shift:baseline;color:#000000;fill:#000000;fill-opacity:1;stroke:none;stroke-width:2;marker:none;visibility:visible;display:inline;overflow:visible;enable-background:accumulate;font-family:Sans;-inkscape-font-specification:Sans" />
      </g>
    </pattern>
    <pattern
       id="pattern5309"
       patternTransform="translate(78.775002,157.09584)"
       height="129.25"
       width="27.494444"
       patternUnits="userSpaceOnUse">
      <rect
         style="fill:url(#pattern5312);stroke:none"
         width="27.494444"
         height="129.25"
         x="0"
         y="0"
         id="rect5276" />
    </pattern>
  </defs>
  <metadata
     id="metadata7">
    <rdf:RDF>
      <cc:Work
         rdf:about="">
        <dc:format>image/svg+xml</dc:format>
        <dc:type
           rdf:resource="http://purl.org/dc/dcmitype/StillImage" />
        <dc:title></dc:title>
      </cc:Work>
    </rdf:RDF>
  </metadata>
  <g
     transform="translate(0,-252.36218)"
     id="layer1"
     inkscape:groupmode="layer"
     inkscape:label="1-default">
    <path
       style="fill:#ffffff;stroke:#000000;stroke-width:15.91486835;stroke-miterlimit:4;stroke-dasharray:none"
       id="path5334"
       d="m 741.89944,842.00174 c 0.0356,1.18064 0.0538,2.36445 0.0538,3.55135 l 0,0 c 0,87.20693 -97.21207,157.90211 -217.12926,157.90211 -119.91718,0 -217.12926,-70.69518 -217.12926,-157.90211 0,-1.1869 0.018,-2.37072 0.0538,-3.55135"
       inkscape:connector-curvature="0" />
    <path
       style="fill:url(#pattern5325);fill-opacity:1;fill-rule:evenodd;stroke:#000000;stroke-width:7.95743418;stroke-linecap:round;stroke-linejoin:round;stroke-miterlimit:4;stroke-dasharray:none;stroke-dashoffset:0;stroke-opacity:1"
       id="path5318"
       d="m 320.24322,823.86421 c -0.0347,0.92563 -0.0496,1.86706 -0.0496,2.79766 0,67.49584 91.59459,122.227 204.60554,122.227 113.01095,0 204.65528,-54.73116 204.65528,-122.227 0,-0.9306 -0.0143,-1.87203 -0.0497,-2.79766 l -409.16136,0 z"
       inkscape:connector-curvature="0" />
    <path
       style="fill:#ffffff;fill-opacity:1;fill-rule:evenodd;stroke:#000000;stroke-width:15.91487026;stroke-miterlimit:4;stroke-dasharray:none"
       id="path3785"
       d="m 500.53836,769.71329 c -38.72384,-7.59331 -96.24669,-52.12501 -114.1175,-88.34484 -16.96469,-34.38338 -13.35401,-50.32621 17.17221,-75.82296 41.38681,-34.56796 66.95346,-68.73053 99.42696,-132.85581 11.72494,-23.15322 20.14679,-37.2559 22.25417,-37.2654 2.12527,-0.01 10.43031,13.97517 22.25588,37.47634 31.31294,62.22875 59.67806,100.15261 98.84963,132.16085 21.57083,17.62618 26.91439,26.3518 26.93149,43.97729 0.0344,35.3514 -40.37615,82.71132 -92.65944,108.59421 -28.12874,13.92513 -52.19703,17.5544 -80.1134,12.08032 l 0,0 z"
       inkscape:connector-curvature="0" />
    <g
       id="g5351"
       transform="matrix(1.591487,0,0,1.591487,71.386435,233.52923)">
      <path
         style="fill:#ffffff;fill-opacity:1;fill-rule:evenodd;stroke:#000000;stroke-width:10;stroke-miterlimit:4;stroke-dasharray:none"
         id="path5336"
         d="m 204.2801,80.924045 c -38.65993,0 -70,31.340065 -70,69.999995 0,38.65993 31.34007,70 70,70 38.65993,0 70,-31.34007 70,-70 0,-38.65993 -31.34007,-69.999995 -70,-69.999995 z m 162.875,0 c -38.65993,0 -70,31.340065 -70,69.999995 0,38.65993 31.34007,70 70,70 38.65993,0 70,-31.34007 70,-70 0,-38.65993 -31.34007,-69.999995 -70,-69.999995 z"
         inkscape:connector-curvature="0" />
      <g
         id="g5347">
        <path
           style="fill:none;stroke:#000000;stroke-width:10;stroke-linecap:butt;stroke-linejoin:miter;stroke-miterlimit:4;stroke-dasharray:none;stroke-opacity:1"
           id="path5343"
           d="M 134.50944,140.46175 C -106.72591,158.881 -7.2110212,238.60696 -7.2110212,238.60696"
           inkscape:connector-curvature="0" />
        <path
           style="fill:none;stroke:#000000;stroke-width:10;stroke-linecap:butt;stroke-linejoin:miter;stroke-miterlimit:4;stroke-dasharray:none;stroke-opacity:1"
           id="path5345"
           d="m 435.31933,140.46174 c 241.23535,18.41925 141.72046,98.14521 141.72046,98.14521"
           inkscape:connector-curvature="0" />
      </g>
    </g>
    <path
       style="fill:none;stroke:#010101;stroke-width:2.25652766;stroke-miterlimit:10"
       inkscape:connector-curvature="0"
       stroke-miterlimit="10"
       d="m 1567.1991,446.53962 c 11.4316,75.74261 23.134,109.77556 16.1613,153.72595 -3.0418,19.17597 -40.8657,19.64759 -40.8657,52.62674 0,19.76718 9.1164,32.77155 28.6511,35.7953 3.7143,0.57767 12.0183,1.5728 14.3267,4.54013 6.034,7.75795 19.5325,17.79272 29.3597,17.79272 l 12.9164,0 12.9163,0 c 9.8272,0 23.328,-10.03477 29.362,-17.79272 2.3039,-2.96056 10.6124,-3.96246 14.3289,-4.54013 19.5325,-3.02375 28.6466,-16.03037 28.6466,-35.7953 0,-37.86679 -41.6216,-29.73652 -41.6216,-49.14943 0,-49.5037 3.2178,-81.1831 25.5755,-154.57215"
       id="path6500" />
    <g
       transform="matrix(2.2565277,0,0,2.2565277,961.32823,-706.91836)"
       style="opacity:0.2"
       id="g6504">
      <path
         style="fill:#010101"
         inkscape:connector-curvature="0"
         d="m 149.331,567.383 c 0,0 0.571,0.004 1.642,0.01 0.536,-0.016 1.194,0.023 1.971,0.098 0.39,0.031 0.808,0.066 1.254,0.102 0.441,0.072 0.91,0.15 1.405,0.23 1,0.129 2.072,0.434 3.255,0.709 1.156,0.361 2.426,0.721 3.719,1.271 2.609,1.039 5.444,2.529 8.254,4.564 2.818,2.021 5.629,4.555 8.245,7.547 2.623,2.986 5.083,6.404 7.241,10.16 2.162,3.754 4.083,7.811 5.645,12.08 1.565,4.268 2.814,8.721 3.75,13.236 0.914,4.521 1.508,9.102 1.808,13.627 0.322,4.535 0.175,8.99 0.165,13.256 -0.069,8.561 -0.177,16.551 -0.306,23.396 -0.112,6.85 -0.294,12.557 -0.379,16.549 -0.124,3.996 -0.195,6.277 -0.195,6.277 0,0 -0.071,-2.281 -0.195,-6.277 -0.085,-3.992 -0.268,-9.699 -0.379,-16.549 -0.129,-6.848 -0.237,-14.836 -0.306,-23.396 -0.041,-4.291 -0.014,-8.689 -0.33,-13.125 -0.316,-4.441 -0.926,-8.934 -1.84,-13.357 -0.893,-4.43 -2.094,-8.797 -3.604,-12.977 -1.519,-4.176 -3.294,-8.186 -5.36,-11.875 -2.065,-3.688 -4.36,-7.086 -6.842,-10.059 -2.484,-2.969 -5.126,-5.529 -7.799,-7.598 -2.676,-2.064 -5.36,-3.654 -7.863,-4.801 -1.24,-0.605 -2.465,-1.016 -3.586,-1.428 -1.147,-0.326 -2.192,-0.68 -3.17,-0.854 -0.486,-0.104 -0.945,-0.205 -1.378,-0.297 -0.438,-0.064 -0.847,-0.125 -1.229,-0.18 -0.762,-0.125 -1.417,-0.207 -1.954,-0.229 -1.071,-0.069 -1.639,-0.11 -1.639,-0.11 z"
         id="path6506" />
    </g>
    <g
       transform="matrix(2.2565277,0,0,2.2565277,961.32823,-706.91836)"
       style="opacity:0.2"
       id="g6508">
      <path
         style="fill:#010101"
         inkscape:connector-curvature="0"
         d="m 147.831,587.331 c 0,0 -0.22,-0.424 -0.633,-1.223 -0.379,-0.814 -0.934,-2.018 -1.509,-3.594 -1.175,-3.148 -2.608,-7.73 -4.082,-13.297 -1.462,-5.564 -2.952,-12.113 -4.328,-19.176 -0.696,-3.527 -1.333,-7.189 -1.947,-10.918 -0.619,-3.727 -1.171,-7.523 -1.657,-11.332 -0.99,-7.615 -1.688,-15.275 -1.869,-22.502 -0.096,-3.627 0.018,-7.082 0.04,-10.375 0.029,-3.291 0.12,-6.402 0.17,-9.271 0.128,-5.744 0.316,-10.529 0.456,-13.881 0.06,-1.674 0.121,-2.99 0.174,-3.889 0.047,-0.896 0.072,-1.375 0.072,-1.375 0,0 0.025,0.479 0.072,1.375 0.053,0.898 0.114,2.213 0.174,3.889 0.14,3.352 0.328,8.137 0.456,13.881 0.05,2.871 0.141,5.98 0.17,9.271 0.049,3.285 0.064,6.773 0.148,10.322 0.228,7.129 0.957,14.732 1.871,22.312 0.47,3.789 0.997,7.572 1.538,11.293 0.545,3.723 1.147,7.373 1.749,10.906 1.208,7.062 2.486,13.629 3.718,19.229 1.212,5.604 2.389,10.238 3.403,13.426 0.487,1.6 0.94,2.832 1.267,3.666 0.356,0.823 0.547,1.263 0.547,1.263 z"
         id="path6510" />
    </g>
    <g
       transform="matrix(2.2565277,0,0,2.2565277,961.32823,-706.91836)"
       style="opacity:0.2"
       id="g6512">
      <path
         style="fill:#010101"
         inkscape:connector-curvature="0"
         d="m 447.372,589.924 c 0,0 0.191,-0.439 0.551,-1.264 0.326,-0.834 0.777,-2.064 1.266,-3.666 1.016,-3.186 2.193,-7.822 3.404,-13.426 1.23,-5.598 2.51,-12.166 3.717,-19.229 0.604,-3.531 1.205,-7.184 1.75,-10.904 0.541,-3.723 1.068,-7.504 1.537,-11.293 0.914,-7.58 1.643,-15.186 1.871,-22.312 0.084,-3.549 0.1,-7.037 0.146,-10.324 0.029,-3.289 0.121,-6.4 0.17,-9.271 0.129,-5.742 0.316,-10.529 0.457,-13.879 0.061,-1.674 0.121,-2.99 0.174,-3.889 0.047,-0.896 0.072,-1.377 0.072,-1.377 0,0 0.025,0.48 0.072,1.377 0.053,0.896 0.113,2.213 0.174,3.889 0.141,3.35 0.326,8.137 0.455,13.879 0.051,2.873 0.141,5.982 0.17,9.271 0.023,3.295 0.137,6.748 0.041,10.375 -0.182,7.227 -0.879,14.889 -1.869,22.502 -0.486,3.811 -1.039,7.607 -1.656,11.334 -0.615,3.729 -1.252,7.391 -1.947,10.92 -1.377,7.061 -2.867,13.607 -4.328,19.176 -1.475,5.562 -2.908,10.146 -4.082,13.295 -0.576,1.578 -1.131,2.779 -1.51,3.594 -0.412,0.797 -0.635,1.222 -0.635,1.222 z"
         id="path6514" />
    </g>
    <g
       transform="matrix(2.2565277,0,0,2.2565277,961.32823,-706.91836)"
       style="opacity:0.2"
       id="g6516">
      <path
         style="fill:#010101"
         inkscape:connector-curvature="0"
         d="m 441.302,567.383 c 0,0 -0.568,0.041 -1.639,0.117 -0.533,0.021 -1.189,0.104 -1.951,0.227 -0.383,0.057 -0.791,0.115 -1.23,0.18 -0.432,0.094 -0.893,0.193 -1.379,0.297 -0.979,0.174 -2.023,0.527 -3.17,0.855 -1.121,0.412 -2.346,0.822 -3.586,1.426 -2.502,1.146 -5.188,2.736 -7.863,4.801 -2.672,2.068 -5.312,4.631 -7.799,7.6 -2.482,2.973 -4.777,6.369 -6.842,10.059 -2.065,3.69 -3.842,7.699 -5.359,11.875 -1.51,4.18 -2.711,8.547 -3.604,12.977 -0.914,4.424 -1.523,8.914 -1.84,13.357 -0.316,4.434 -0.289,8.832 -0.33,13.125 -0.07,8.561 -0.178,16.549 -0.307,23.396 -0.111,6.848 -0.295,12.555 -0.381,16.549 -0.123,3.994 -0.193,6.277 -0.193,6.277 0,0 -0.07,-2.283 -0.193,-6.277 -0.086,-3.994 -0.27,-9.701 -0.381,-16.549 -0.129,-6.848 -0.236,-14.838 -0.307,-23.396 -0.01,-4.266 -0.156,-8.721 0.164,-13.258 0.301,-4.523 0.895,-9.105 1.809,-13.625 0.936,-4.518 2.186,-8.971 3.75,-13.236 1.561,-4.27 3.482,-8.328 5.645,-12.082 2.158,-3.756 4.619,-7.174 7.242,-10.158 2.615,-2.994 5.426,-5.525 8.244,-7.549 2.811,-2.035 5.645,-3.523 8.254,-4.562 1.293,-0.553 2.562,-0.91 3.719,-1.271 1.184,-0.277 2.256,-0.58 3.256,-0.709 0.494,-0.082 0.963,-0.158 1.404,-0.23 0.447,-0.035 0.865,-0.07 1.254,-0.104 0.777,-0.072 1.436,-0.111 1.973,-0.098 1.069,-0.01 1.64,-0.014 1.64,-0.014 z"
         id="path6518" />
    </g>
    <g
       transform="matrix(2.2565277,0,0,2.2565277,961.32823,-706.91836)"
       style="opacity:0.2"
       id="g6520">
      <path
         style="fill:#010101"
         inkscape:connector-curvature="0"
         d="m 219.331,715.963 c 0,0 0.008,-0.17 0.024,-0.498 0.024,-0.328 0.001,-0.818 0.16,-1.443 0.219,-1.254 0.873,-3.09 2.377,-4.979 1.477,-1.898 3.691,-3.854 6.487,-5.678 2.798,-1.826 6.183,-3.514 9.996,-5.016 3.812,-1.512 8.044,-2.875 12.589,-4.039 4.543,-1.17 9.39,-2.189 14.448,-2.945 10.111,-1.553 21.014,-2.357 31.918,-2.402 5.435,0.02 10.916,0.232 16.257,0.635 5.352,0.398 10.605,0.99 15.66,1.766 10.109,1.545 19.412,3.969 27.039,6.984 3.812,1.504 7.197,3.189 9.996,5.018 2.797,1.824 5.01,3.779 6.486,5.678 1.504,1.889 2.158,3.727 2.377,4.979 0.158,0.621 0.137,1.117 0.16,1.443 0.016,0.328 0.023,0.498 0.023,0.498 0,0 -0.02,-0.168 -0.053,-0.494 -0.043,-0.326 -0.047,-0.816 -0.238,-1.426 -0.277,-1.229 -1.041,-2.969 -2.572,-4.756 -1.518,-1.793 -3.762,-3.613 -6.578,-5.289 -2.82,-1.674 -6.217,-3.188 -10.004,-4.6 -3.797,-1.393 -8.012,-2.637 -12.535,-3.674 -4.521,-1.045 -9.348,-1.902 -14.357,-2.646 -5.014,-0.725 -10.227,-1.268 -15.535,-1.621 -5.322,-0.354 -10.701,-0.514 -16.126,-0.496 -10.813,-0.047 -21.634,0.662 -31.663,2.117 -5.01,0.744 -9.835,1.596 -14.357,2.643 -4.524,1.039 -8.739,2.281 -12.535,3.676 -3.788,1.41 -7.185,2.926 -10.006,4.6 -2.816,1.676 -5.059,3.498 -6.577,5.291 -1.531,1.785 -2.295,3.529 -2.572,4.754 -0.191,0.605 -0.196,1.102 -0.239,1.428 -0.033,0.322 -0.05,0.492 -0.05,0.492 z"
         id="path6522" />
    </g>
    <g
       transform="matrix(2.2565277,0,0,2.2565277,961.32823,-706.91836)"
       id="g6524">
      <path
         style="fill:#010101"
         inkscape:connector-curvature="0"
         d="m 244.18,655.231 c 0,0 0.414,-0.031 1.19,-0.092 0.776,-0.055 1.915,-0.166 3.363,-0.238 1.449,-0.084 3.209,-0.188 5.227,-0.303 2.018,-0.123 4.295,-0.258 6.779,-0.324 2.484,-0.088 5.175,-0.184 8.021,-0.283 2.846,-0.1 5.848,-0.223 8.953,-0.256 3.105,-0.045 6.313,-0.146 9.574,-0.146 3.26,-0.02 6.572,-0.037 9.884,-0.057 3.311,0.02 6.624,0.039 9.885,0.059 3.26,0.008 6.469,0.104 9.572,0.146 3.105,0.033 6.105,0.162 8.953,0.258 2.848,0.102 5.537,0.195 8.021,0.283 2.482,0.064 4.762,0.203 6.779,0.322 2.018,0.115 3.777,0.217 5.227,0.301 1.447,0.072 2.586,0.186 3.363,0.238 0.775,0.059 1.189,0.092 1.189,0.092 l 0,0.197 c 0,0 -26.496,0.051 -52.992,0.102 -26.495,-0.051 -52.991,-0.102 -52.991,-0.102 l 0.003,-0.197 0,0 z"
         id="path6526" />
    </g>
    <g
       transform="matrix(2.2565277,0,0,2.2565277,961.32823,-706.91836)"
       style="opacity:0.2"
       id="g6528">
      <path
         style="fill:#010101"
         inkscape:connector-curvature="0"
         d="m 132.716,493.331 c 0,0 -0.843,-1.162 -2.497,-3.037 -0.832,-0.934 -1.864,-2.049 -3.153,-3.213 -1.285,-1.156 -2.826,-2.4 -4.712,-3.324 -0.943,-0.443 -2,-0.777 -3.088,-0.762 -1.092,-0.01 -2.158,0.471 -2.979,1.281 -1.656,1.664 -2.573,4.166 -2.609,6.754 -0.046,2.611 0.616,5.305 1.458,7.961 0.853,2.664 1.9,5.322 2.924,8 1.009,2.68 1.988,5.385 2.811,8.1 0.406,1.359 0.773,2.719 1.09,4.074 0.306,1.365 0.555,2.705 0.815,4.021 1.015,5.281 1.774,10.232 2.59,14.443 0.416,2.104 0.812,4.027 1.232,5.715 0.442,1.682 0.878,3.137 1.363,4.283 0.226,0.582 0.495,1.07 0.695,1.514 0.251,0.41 0.454,0.771 0.64,1.051 0.416,0.525 0.638,0.807 0.638,0.807 0,0 -0.237,-0.27 -0.681,-0.773 -0.201,-0.27 -0.423,-0.619 -0.7,-1.025 -0.227,-0.43 -0.521,-0.914 -0.77,-1.492 -1.053,-2.291 -2.068,-5.758 -2.969,-9.963 -0.898,-4.207 -1.846,-9.131 -2.89,-14.387 -0.271,-1.314 -0.532,-2.656 -0.841,-3.986 -0.323,-1.33 -0.695,-2.668 -1.106,-4.006 -0.833,-2.676 -1.829,-5.35 -2.853,-8.021 -1.001,-2.678 -2.034,-5.359 -2.879,-8.072 -0.833,-2.707 -1.504,-5.484 -1.436,-8.262 0.045,-2.77 1.104,-5.473 2.978,-7.264 0.944,-0.895 2.233,-1.436 3.471,-1.391 1.235,0.014 2.358,0.41 3.338,0.898 1.961,1.006 3.468,2.336 4.721,3.559 1.256,1.227 2.249,2.389 3.047,3.355 1.583,1.951 2.352,3.162 2.352,3.162 z"
         id="path6530" />
    </g>
    <g
       transform="matrix(2.2565277,0,0,2.2565277,961.32823,-706.91836)"
       style="opacity:0.2"
       id="g6532">
      <path
         style="fill:#010101"
         inkscape:connector-curvature="0"
         d="m 462.487,493.331 c 0,0 0.771,-1.211 2.352,-3.164 0.797,-0.967 1.791,-2.129 3.047,-3.355 1.252,-1.221 2.76,-2.553 4.721,-3.559 0.98,-0.488 2.104,-0.885 3.338,-0.898 1.238,-0.045 2.527,0.494 3.471,1.391 1.875,1.791 2.934,4.494 2.979,7.264 0.068,2.777 -0.602,5.555 -1.436,8.262 -0.846,2.713 -1.879,5.395 -2.879,8.072 -1.023,2.672 -2.02,5.346 -2.854,8.021 -0.412,1.338 -0.783,2.676 -1.105,4.006 -0.311,1.33 -0.57,2.67 -0.842,3.986 -1.045,5.256 -1.992,10.18 -2.891,14.387 -0.9,4.205 -1.914,7.672 -2.967,9.963 -0.25,0.578 -0.543,1.062 -0.771,1.492 -0.275,0.406 -0.5,0.756 -0.699,1.025 -0.443,0.504 -0.682,0.773 -0.682,0.773 0,0 0.221,-0.281 0.637,-0.807 0.188,-0.277 0.389,-0.641 0.641,-1.051 0.199,-0.441 0.471,-0.932 0.695,-1.514 0.484,-1.146 0.922,-2.604 1.363,-4.283 0.42,-1.688 0.816,-3.611 1.232,-5.715 0.814,-4.211 1.574,-9.162 2.59,-14.443 0.26,-1.316 0.51,-2.656 0.814,-4.021 0.316,-1.355 0.686,-2.715 1.092,-4.074 0.822,-2.715 1.803,-5.42 2.811,-8.1 1.023,-2.676 2.072,-5.336 2.924,-8 0.844,-2.656 1.506,-5.35 1.459,-7.961 -0.035,-2.588 -0.953,-5.09 -2.607,-6.754 -0.822,-0.811 -1.889,-1.291 -2.98,-1.281 -1.088,-0.016 -2.145,0.318 -3.088,0.762 -1.887,0.924 -3.428,2.168 -4.711,3.324 -1.289,1.164 -2.322,2.279 -3.154,3.213 -1.658,1.878 -2.5,3.039 -2.5,3.039 z"
         id="path6534" />
    </g>
    <g
       transform="matrix(2.2565277,0,0,2.2565277,961.32823,-706.91836)"
       id="g6536">
      <path
         style="fill:#010101"
         inkscape:connector-curvature="0"
         d="m 176.997,496.178 c 0,0 0.073,-0.363 0.289,-1.021 0.219,-0.656 0.567,-1.617 1.181,-2.762 0.614,-1.143 1.481,-2.48 2.744,-3.793 1.255,-1.312 2.941,-2.58 5.034,-3.432 2.103,-0.893 4.534,-1.184 7.057,-1.473 2.533,-0.27 5.208,-0.447 7.977,-0.562 5.536,-0.238 11.44,-0.342 17.339,-0.467 2.949,-0.053 5.897,-0.105 8.799,-0.158 2.899,-0.076 5.754,-0.166 8.497,-0.379 1.369,-0.105 2.719,-0.234 3.998,-0.467 0.325,-0.066 0.648,-0.135 0.97,-0.203 l 0.484,-0.092 0.534,-0.041 c 0.709,-0.043 1.381,0.041 2.027,0.209 2.592,0.695 4.509,2.324 6.187,3.756 1.674,1.473 3.082,2.938 4.372,4.186 1.287,1.25 2.452,2.293 3.502,3.031 1.041,0.752 1.971,1.174 2.635,1.352 0.667,0.182 1.046,0.141 1.043,0.164 0.003,-0.023 -0.374,0.039 -1.056,-0.111 -0.677,-0.146 -1.653,-0.514 -2.732,-1.242 -1.092,-0.707 -2.308,-1.715 -3.648,-2.92 -1.345,-1.197 -2.808,-2.605 -4.484,-4.027 -1.679,-1.379 -3.615,-2.906 -5.988,-3.475 -1.198,-0.322 -2.354,-0.129 -3.685,0.225 -1.337,0.275 -2.701,0.398 -4.087,0.523 -2.772,0.234 -5.633,0.346 -8.54,0.447 -2.905,0.072 -5.857,0.146 -8.809,0.221 -5.901,0.078 -11.801,0.137 -17.321,0.334 -2.759,0.111 -5.427,0.207 -7.943,0.418 -2.506,0.227 -4.907,0.465 -6.917,1.271 -2.029,0.783 -3.705,1.938 -4.981,3.172 -1.282,1.234 -2.187,2.52 -2.836,3.625 -0.644,1.113 -1.052,2.043 -1.299,2.686 -0.253,0.646 -0.343,1.005 -0.343,1.005 z"
         id="path6538" />
    </g>
    <g
       transform="matrix(2.2565277,0,0,2.2565277,961.32823,-706.91836)"
       id="g6542">
      <path
         style="fill:#010101"
         inkscape:connector-curvature="0"
         d="m 419.181,496.178 c 0,0 -0.092,-0.357 -0.338,-1.004 -0.248,-0.645 -0.656,-1.572 -1.299,-2.684 -0.648,-1.105 -1.555,-2.391 -2.834,-3.625 -1.275,-1.234 -2.951,-2.389 -4.979,-3.172 -2.01,-0.809 -4.41,-1.047 -6.914,-1.273 -2.516,-0.211 -5.182,-0.307 -7.939,-0.418 -5.52,-0.197 -11.414,-0.256 -17.312,-0.334 -2.951,-0.074 -5.9,-0.148 -8.807,-0.221 -2.904,-0.102 -5.766,-0.211 -8.535,-0.445 -1.385,-0.123 -2.748,-0.248 -4.086,-0.52 -0.693,-0.152 -1.283,-0.346 -1.883,-0.381 -0.607,-0.047 -1.217,0 -1.811,0.127 -2.385,0.525 -4.385,1.947 -6.109,3.27 -1.725,1.359 -3.221,2.727 -4.57,3.914 -1.344,1.195 -2.533,2.225 -3.58,2.992 -1.039,0.773 -1.957,1.254 -2.623,1.457 -0.67,0.207 -1.047,0.164 -1.047,0.164 0,0 0.381,0.021 1.029,-0.217 0.648,-0.23 1.518,-0.76 2.521,-1.561 1.008,-0.799 2.148,-1.867 3.443,-3.113 1.297,-1.24 2.746,-2.668 4.473,-4.08 1.727,-1.379 3.717,-2.9 6.307,-3.545 0.645,-0.152 1.326,-0.223 2.018,-0.188 0.705,0.029 1.385,0.23 1.99,0.348 1.279,0.229 2.629,0.359 3.998,0.463 2.742,0.211 5.596,0.301 8.492,0.379 2.9,0.053 5.848,0.105 8.795,0.158 5.896,0.125 11.799,0.227 17.332,0.467 2.768,0.115 5.439,0.295 7.973,0.562 2.521,0.289 4.951,0.58 7.053,1.475 2.094,0.852 3.777,2.119 5.031,3.43 1.264,1.312 2.129,2.65 2.742,3.793 0.613,1.145 0.963,2.104 1.182,2.76 0.214,0.659 0.287,1.022 0.287,1.022 z"
         id="path6544" />
    </g>
    <g
       transform="matrix(2.2565277,0,0,2.2565277,961.32823,-706.91836)"
       id="g6548">
      <path
         style="fill:none"
         inkscape:connector-curvature="0"
         d="m 132.612,436.769 c 0,0.05 -0.002,0.1 -0.002,0.149 1.133,10.246 2.262,20.547 3.582,32.594 l 0.129,1.182 -0.935,-0.733 c -1.085,-0.852 -1.986,-1.573 -2.773,-2.204 -1.427,-1.144 -2.458,-1.97 -3.542,-2.733 -4.394,-3.096 -8.792,-4.731 -12.72,-4.731 -7.516,0 -12.848,5.762 -14.629,15.808 -1.327,7.48 -1.106,13.78 0.676,19.263 1.394,4.286 3.1,8.58 4.75,12.731 4.737,11.921 9.635,24.248 7.862,38.086 -0.026,0.208 0.029,0.701 0.698,1.663 8.247,11.859 10.996,25.264 12.738,37.982 0.712,5.205 3.504,11.291 8.136,13.157 14.257,5.738 15.208,17.846 16.127,29.556 0.25,3.189 0.931,6.417 1.59,9.538 0.306,1.451 0.612,2.902 0.878,4.356 4.828,31.214 20.446,56.37 46.422,74.785 12.636,8.959 22.651,18.66 30.618,29.658 6.793,9.382 16.1,16.102 27.661,19.973 11.969,4.008 24.103,6.039 36.064,6.039 11.824,0 23.749,-1.985 35.441,-5.901 11.349,-3.802 20.253,-9.896 26.466,-18.115 9.829,-13 21.695,-23.332 30.936,-30.88 1.388,-1.134 2.787,-2.257 4.188,-3.38 9.123,-7.32 18.557,-14.89 24.726,-25.562 12.08,-20.886 19.792,-45.36 23.577,-74.825 0.069,-0.535 0.118,-1.073 0.168,-1.606 0.282,-3.068 0.574,-6.241 4.567,-7.905 7.732,-3.22 11.939,-10.127 16.008,-16.806 l 0.546,-0.896 c 1.182,-12.046 3.526,-25.993 11.866,-38.222 2.484,-3.644 3.373,-8.515 2.644,-14.479 -0.967,-7.9 0.759,-15.002 5.77,-23.747 4.559,-7.954 7.024,-17.459 6.945,-26.765 -0.087,-10.388 -2.646,-22.771 -14.35,-22.771 -4.303,0 -9.528,1.654 -15.533,4.916 -0.422,0.23 -1.025,0.062 -1.641,-0.161 -0.231,-0.084 -0.474,-0.173 -0.712,-0.229 l -0.326,-0.078 -0.052,-0.331 c -0.925,-5.939 -0.047,-11.814 0.802,-17.496 0.524,-3.515 1.067,-7.148 1.169,-10.735 0,-0.048 -0.002,-0.097 -0.002,-0.145"
         id="path6550" />
      <path
         style="fill:#010101"
         inkscape:connector-curvature="0"
         d="m 490.79,483.792 c -0.164,-19.641 -8.438,-23.764 -15.35,-23.764 -4.472,0 -9.858,1.694 -16.042,5.037 -0.178,0 -0.49,-0.113 -0.792,-0.223 -0.159,-0.058 -0.324,-0.117 -0.489,-0.169 -0.822,-5.684 0.027,-11.372 0.85,-16.877 0.53,-3.544 1.077,-7.209 1.181,-10.878 0,-0.05 -0.002,-0.101 -0.002,-0.15 l -1,0 c 0,0.048 0.002,0.097 0.002,0.145 -0.102,3.587 -0.645,7.221 -1.169,10.735 -0.849,5.682 -1.727,11.557 -0.802,17.496 l 0.052,0.331 0.326,0.078 c 0.238,0.057 0.48,0.146 0.712,0.229 0.615,0.223 1.219,0.392 1.641,0.161 6.005,-3.262 11.23,-4.916 15.533,-4.916 11.703,0 14.263,12.384 14.35,22.771 0.079,9.306 -2.387,18.811 -6.945,26.765 -5.011,8.745 -6.736,15.847 -5.77,23.747 0.729,5.964 -0.159,10.835 -2.644,14.479 -8.34,12.229 -10.685,26.176 -11.866,38.222 l -0.546,0.896 c -4.068,6.679 -8.275,13.586 -16.008,16.806 -3.993,1.664 -4.285,4.837 -4.567,7.905 -0.05,0.533 -0.099,1.071 -0.168,1.606 -3.785,29.465 -11.497,53.939 -23.577,74.825 -6.169,10.672 -15.603,18.241 -24.726,25.562 -1.4,1.123 -2.8,2.246 -4.188,3.38 -9.24,7.548 -21.106,17.88 -30.936,30.88 -6.213,8.22 -15.117,14.313 -26.466,18.115 -11.692,3.916 -23.617,5.901 -35.441,5.901 -11.961,0 -24.095,-2.031 -36.064,-6.039 -11.562,-3.871 -20.868,-10.591 -27.661,-19.973 -7.967,-10.998 -17.981,-20.699 -30.618,-29.658 -25.977,-18.415 -41.595,-43.571 -46.422,-74.785 -0.267,-1.454 -0.573,-2.905 -0.878,-4.356 -0.659,-3.121 -1.339,-6.349 -1.59,-9.538 -0.919,-11.71 -1.87,-23.817 -16.127,-29.556 -4.632,-1.866 -7.424,-7.952 -8.136,-13.157 -1.742,-12.719 -4.491,-26.123 -12.738,-37.982 -0.669,-0.962 -0.725,-1.455 -0.698,-1.663 1.772,-13.838 -3.125,-26.165 -7.862,-38.086 -1.649,-4.151 -3.355,-8.445 -4.75,-12.731 -1.782,-5.482 -2.003,-11.782 -0.676,-19.263 1.781,-10.046 7.113,-15.808 14.629,-15.808 3.928,0 8.326,1.636 12.72,4.731 1.085,0.764 2.116,1.59 3.542,2.733 0.788,0.631 1.688,1.353 2.773,2.204 l 0.935,0.733 -0.129,-1.182 c -1.32,-12.047 -2.449,-22.348 -3.582,-32.594 0,-0.05 0.002,-0.1 0.002,-0.149 l -0.997,0 c 0,0.068 -0.002,0.136 -0.002,0.204 1.099,9.961 2.191,19.923 3.455,31.463 -0.681,-0.54 -1.283,-1.022 -1.83,-1.46 -1.441,-1.155 -2.482,-1.989 -3.592,-2.771 -4.563,-3.214 -9.161,-4.913 -13.296,-4.913 -8.048,0 -13.739,6.062 -15.613,16.634 -1.357,7.645 -1.125,14.104 0.709,19.745 1.404,4.317 3.116,8.626 4.771,12.792 4.69,11.804 9.54,24.008 7.799,37.591 -0.08,0.632 0.204,1.403 0.869,2.359 8.127,11.687 10.844,24.953 12.569,37.548 0.696,5.089 3.407,11.795 8.753,13.949 13.683,5.506 14.567,16.775 15.504,28.706 0.256,3.255 0.943,6.514 1.608,9.667 0.304,1.442 0.608,2.885 0.871,4.315 4.868,31.478 20.624,56.857 46.83,75.436 12.545,8.895 22.484,18.521 30.386,29.428 6.918,9.555 16.39,16.396 28.153,20.335 12.071,4.042 24.312,6.091 36.382,6.091 11.932,0 23.963,-2.003 35.759,-5.953 11.542,-3.866 20.608,-10.077 26.944,-18.46 9.766,-12.916 21.574,-23.196 30.771,-30.709 1.386,-1.132 2.783,-2.253 4.181,-3.375 9.195,-7.378 18.703,-15.007 24.965,-25.841 12.147,-21.002 19.901,-45.6 23.704,-75.197 0.07,-0.548 0.121,-1.098 0.171,-1.643 0.279,-3.027 0.52,-5.642 3.957,-7.073 8.032,-3.346 12.325,-10.394 16.478,-17.21 l 0.604,-0.991 0.071,-0.212 c 1.166,-11.947 3.469,-25.789 11.708,-37.871 2.625,-3.85 3.57,-8.951 2.81,-15.162 -0.95,-7.771 0.686,-14.472 5.645,-23.128 4.647,-8.106 7.161,-17.791 7.08,-27.27 z"
         id="path6552" />
    </g>
    <path
       style="fill:none"
       inkscape:connector-curvature="0"
       d="M 1865.9476,444.00554"
       id="path6556" />
    <path
       style="fill:#010101"
       inkscape:connector-curvature="0"
       d="m 1743.3708,427.32754 c 0.023,-0.005 -0.027,0.26853 0.1241,0.70404 0.1106,0.44002 0.5686,0.97482 1.1892,1.53895 1.2817,1.14181 3.5518,2.1956 6.3025,3.29679 2.7552,1.11924 6.1039,2.09857 9.6827,3.13883 3.6014,1.00416 7.4533,2.01959 11.3346,2.92672 3.8789,0.95225 7.7827,1.79845 11.4406,2.60854 3.6668,0.78979 7.0877,1.52542 10.0212,2.1595 2.9448,0.62506 5.3954,1.14632 7.1081,1.51187 1.7194,0.3791 2.6965,0.60024 2.6965,0.60024 0,0 -1.0041,-0.0609 -2.7642,-0.16247 -1.7443,-0.16247 -4.2626,-0.30914 -7.2503,-0.69727 -2.9921,-0.38361 -6.4875,-0.80558 -10.2017,-1.45771 -3.7188,-0.62958 -7.6609,-1.45546 -11.5828,-2.3671 -3.9083,-0.9658 -7.8053,-2.02185 -11.3977,-3.22684 -3.5924,-1.18919 -6.8756,-2.5431 -9.6128,-3.87445 -2.7417,-1.32233 -4.8786,-2.80712 -6.0994,-4.14299 -0.5957,-0.67921 -0.9523,-1.32684 -0.9996,-1.83004 -0.061,-0.47162 0.036,-0.72661 0.01,-0.72661 z"
       id="path6560" />
    <path
       style="fill:#010101"
       inkscape:connector-curvature="0"
       d="m 1494.8865,284.41262 c 17.5535,5.2216 33.9855,10.00544 48.2107,13.63168 14.2048,3.68491 26.2321,6.07683 34.7121,7.30664 4.2491,0.58218 7.6136,0.79881 9.9039,0.89133 2.2927,0.018 3.5157,0.0226 3.5157,0.0226 0,0 -1.2185,-0.088 -3.4999,-0.25047 -2.2745,-0.22114 -5.5916,-0.7266 -9.782,-1.48931 -4.1791,-0.84168 -9.2405,-1.92933 -14.9811,-3.45926 -5.7519,-1.47577 -12.1875,-3.35771 -19.2053,-5.41566 -7.0201,-2.05344 -14.5772,-4.45213 -22.5833,-6.94108 -7.9949,-2.54762 -16.4253,-5.22612 -25.1445,-8.00391 -2.1166,-0.67018 -4.2987,-1.36068 -6.4469,-2.0399 l -13.8822,0 c 6.4943,1.94287 12.9299,3.87221 19.1828,5.74738 z"
       id="path6564" />
    <path
       style="fill:#010101"
       inkscape:connector-curvature="0"
       d="m 1323.4152,282.1606 c -3.791,4.6462 -6.826,8.88621 -9.1773,12.47635 -2.3694,3.57434 -4.0415,6.49654 -5.1404,8.50936 -1.1012,2.01057 -1.6337,3.11175 -1.6337,3.11175 0,0 2.4822,-4.22647 7.5706,-11.05698 2.5409,-3.4209 5.7993,-7.44429 9.8001,-11.79938 1.4487,-1.53896 3.0193,-3.13432 4.6553,-4.74323 l -3.0847,0 c -1.0493,1.18468 -2.0444,2.35356 -2.9899,3.50213 z"
       id="path6566" />
    <path
       style="fill:#010101"
       inkscape:connector-curvature="0"
       d="m 1775.8309,280.97141 c -8.99,2.73266 -17.6776,5.36828 -25.9184,7.87077 -8.2544,2.45059 -16.0417,4.81769 -23.2694,6.83954 -7.2276,2.02636 -13.8573,3.89702 -19.7762,5.35925 -5.9098,1.5209 -11.1111,2.60404 -15.4075,3.45475 -4.3055,0.76722 -7.7083,1.27719 -10.0484,1.50284 -2.34,0.16699 -3.5924,0.25499 -3.5924,0.25499 0,0 1.2569,-0.009 3.6105,-0.0271 2.3536,-0.097 5.7993,-0.32945 10.1679,-0.91163 8.7034,-1.24335 21.0579,-3.62173 35.678,-7.25023 14.6358,-3.56982 31.5643,-8.25889 49.6526,-13.38121 6.8598,-1.95189 13.9205,-3.98051 21.0511,-6.02493 l -14.5275,0 c -2.5453,0.77399 -5.12,1.55475 -7.6203,2.31294 z"
       id="path6568" />
    <path
       style="fill:#010101"
       inkscape:connector-curvature="0"
       d="m 1963.1837,294.3278 c -2.4326,-3.66686 -5.5443,-8.03549 -9.4797,-12.76743 -0.7875,-0.95451 -1.6405,-1.92708 -2.5025,-2.89964 l -3.0553,0 c 1.4396,1.41484 2.8274,2.8184 4.1159,4.1836 4.1475,4.42957 7.4826,8.56804 10.1092,12.0634 5.2306,7.01554 7.7783,11.35259 7.7783,11.35259 0,0 -0.5461,-1.13278 -1.6789,-3.19976 -1.126,-2.06697 -2.8523,-5.0659 -5.287,-8.73276 z"
       id="path6570" />
    <path
       id="path6682"
       d="m 2495.5104,686.72234 c 0,-0.004 -39.0645,8.68652 -39.0645,8.68652 0,0 23.0367,-35.78223 23.0367,-35.78223 0,0 26.3755,-59.83985 26.3755,-59.83985 0,0 -78.9265,-34.40667 -78.9265,-34.40667 0,0 -48.4726,-76.40439 -48.4726,-76.40439 0,0 -6.0072,-96.68857 -6.0072,-96.68857 0,0 36.6515,-76.09396 36.6515,-76.09396 0,0 76.3933,-46.99909 76.3933,-46.99909 0,0 95.0716,-4.99999 95.0716,-4.99999 0,0 57.9635,29.19421 57.9635,29.19421 0,0 32.8448,2.15921 32.8448,2.15921 0,0 -24.9296,23.15118 -24.9296,23.15118 0,0 -75.8814,-7.66555 -75.8814,-7.66555 0,0 -67.4006,18.15808 -67.4006,18.15808 0,0 -37.8835,43.42569 -37.8835,43.42569 0,0 -12.2737,60.86496 -12.2737,60.86496 0,0 25.0234,45.8912 25.0234,45.8912 0,0 34.2991,4.0894 34.2991,4.0894 0,0 121.9244,-121.25255 121.9244,-121.25255 0,0 64.0286,-8.8645 64.0286,-8.8645 0,0 63.4119,35.92847 63.4119,35.92847 0,0 28.5347,-21.89703 28.5347,-21.89703 0,0 42.3633,-14.42741 42.3633,-14.42741 0,0 51.897,17.59103 51.897,17.59103 0,0 86.7369,104.69766 86.7369,104.69766 0,0 31.4569,5.84436 31.4569,5.84436 0,0 26.0761,-35.14342 26.0761,-35.14342 0,0 -2.4407,-64.12792 -2.4407,-64.12792 0,0 -35.0606,-50.03992 -35.0606,-50.03992 0,0 -49.1431,-16.59904 -49.1431,-16.59904 0,0 -39.7571,6.89983 -39.7571,6.89983 0,0 -49.6467,-3.93212 -49.6467,-3.93212 0,0 -7.0365,-15.66084 -7.0365,-15.66084 0,0 41.1148,-16.14236 41.1148,-16.14236 0,0 32.9745,-16.69423 32.9745,-16.69423 0,0 50.4966,-3.42766 50.4966,-3.42766 0,0 74.3652,28.9519 74.3652,28.9519 0,0 52.2902,72.43365 52.2902,72.43365 0,0 6.7605,102.78679 6.7605,102.78679 0,0 -45.1158,83.60912 -45.1158,83.60912 0,0 -63.4657,31.87081 -63.4657,31.87081 0,0 1.6556,24.42048 1.6556,24.42048 0,0 17.66,2.20751 17.66,2.20751 0,0 -7.3123,16.41829 -7.3123,16.41829 0,0 -41.2527,1.51766 -41.2527,1.51766 0,0 -79.4701,-35.18206 -79.4701,-35.18206 0,0 11.4515,47.73722 11.4515,47.73722 0,0 39.0451,0 39.0451,0 0,0 11.5894,40.42487 11.5894,40.42487 0,0 -39.0452,45.66769 -39.0452,45.66769 0,0 21.1093,25.11033 21.1093,25.11033 0,0 -26.9039,25.11033 -26.9039,25.11033 0,0 -4.1391,38.21738 -4.1391,38.21738 0,0 -54.3597,16.00438 -54.3597,16.00438 0,0 13.245,42.77035 13.245,42.77035 0,0 -84.299,75.60693 -84.299,75.60693 0,0 -57.8779,-72.01974 -57.8779,-72.01974 0,0 -41.697,-3.5803 -41.697,-3.5803 0,0 11.8833,-42.76482 11.8833,-42.76482 0,0 -47.602,-21.86668 -47.602,-21.86668 0,0 0.8333,-32.27644 0.8333,-32.27644 0,0 -32.9511,-32.74276 -32.9511,-32.74276 l -26.0292,-90.14057 c 0,0 -85.1185,30.21104 -85.1185,30.21104 l 0,0.004 z"
       inkscape:connector-curvature="0"
       style="fill:#ffffff" />
    <path
       id="path6684"
       d="m 2520.0292,685.47195 c -5.0137,0.34078 -11.5411,2.58691 -15.9202,10.43596 -3.5748,6.41003 -11.9495,7.43238 -15.8595,6.141 -6.5135,-2.15232 -14.8386,-3.64514 -22.9028,2.10126 -8.0643,5.74502 -16.7729,1.40038 -15.2456,-9.07283 1.5273,-10.47184 5.3104,-19.79991 15.3518,-25.57667 21.9302,-12.61587 6.6887,-21.39621 18.7251,-34.05761 12.0599,-12.68623 9.3957,-16.56868 8.9956,-33.79823 -40.7601,-6.12305 -63.8616,-17.8711 -89.6577,-50.10062 -25.796,-32.23091 -35.796,-58.76094 -38.4698,-99.16925 -2.6739,-40.40832 -0.356,-66.59619 17.1026,-100.1378 17.4586,-33.5416 35.8402,-49.6881 67.6944,-66.43614 31.8543,-16.74528 63.0656,-20.75603 91.9149,-20.26762 28.8492,0.48703 48.0724,2.60071 64.3735,11.90119 16.2996,9.30048 31.2113,21.00438 40.7173,21.08854 9.5075,0.0842 15.9796,-2.40618 20.6002,-5.94646 1.2334,31.32307 -26.9578,34.04382 -52.1785,34.70607 -25.2221,0.66087 -40.7201,-9.77234 -63.9499,-5.89127 -23.2298,3.88106 -61.2637,14.45224 -79.7915,46.70245 -18.5279,32.25022 -19.1598,43.65059 -17.62,70.69524 1.5397,27.04604 24.8178,47.22398 37.9579,47.44335 13.1388,0.21937 16.072,-3.58581 27.5731,-11.08718 11.5025,-7.50274 70.2206,-80.19025 90.2565,-96.51748 20.0372,-16.32724 39.8095,-21.36862 61.1588,-21.63076 21.3493,-0.26214 26.8046,0.4622 44.0231,7.5193 17.2185,7.05573 27.7994,20.05102 41.6818,27.99526 7.0957,-4.17632 11.5038,-10.41251 18.0146,-15.17105 23.285,-17.01846 35.3835,-21.60455 63.0586,-18.91139 15.9065,1.54801 35.963,10.63464 47.9304,21.04025 21.3093,18.52783 38.9141,44.32249 53.1401,63.9182 11.0775,15.26074 24.1128,33.51954 42.7221,39.22731 20.3186,6.22929 35.6083,-20.08689 37.8531,-34.68399 1.2721,-8.27123 2.9318,-15.52012 2.9456,-24.6233 0.014,-9.10457 -0.9161,-20.15311 -3.5403,-29.64123 -2.6241,-9.48812 -7.1192,-18.92933 -11.9867,-26.75768 -7.9222,-12.74142 -20.8843,-26.07473 -34.3708,-32.93454 -7.569,-3.84933 -25.3766,-10.84849 -36.6018,-11.09408 -13.7541,-0.29801 -24.2328,4.32257 -36.9494,5.18901 -15.3918,1.04994 -42.8862,4.5102 -54.953,-7.38133 -7.6793,-7.56759 -8.6451,-12.61587 -9.9572,-22.48341 3.3927,2.79525 8.1374,4.633 12.3606,4.99034 9.6385,0.81401 18.6631,-7.05573 26.4431,-11.6156 6.4087,-3.75689 15.4843,-10.47046 23.9018,-13.86311 21.628,-8.71963 48.1952,-8.46853 71.0263,-6.13272 18.3002,1.87086 42.0267,10.0124 58.0766,19.09489 16.1258,9.1225 31.6653,24.50465 43.0477,39.00518 14.3198,18.245 22.1481,33.89894 27.3344,56.65415 6.6294,29.05899 8.4671,72.71234 0.4525,101.36433 -6.3162,22.5786 -27.2888,57.26259 -45.142,74.26449 -17.6076,16.77012 -37.9387,24.86475 -61.0595,29.29217 0.9051,4.66611 1.0541,9.01764 2.2503,12.84352 1.6998,5.43045 4.9503,11.48453 11.628,9.56952 2.6628,-0.76297 4.088,-1.42384 7.5993,1.64735 3.5086,3.07118 1.6819,14.93512 -8.1926,20.25934 -5.0069,2.70005 -10.2911,3.28642 -18.3098,3.44646 -8.0188,0.16005 -20.5339,0.19454 -29.2398,-1.33001 -8.7044,-1.52318 -13.9045,-8.43128 -23.5457,-9.51296 -14.8993,-1.66666 -26.3079,-12.43099 -38.2546,-20.12965 -4.9849,-3.2133 -6.6667,-3.24641 -9.5392,-4.8703 1.5521,4.75164 3.6217,9.68679 4.6537,14.25494 1.0347,4.56815 0.5932,8.79965 1.1424,12.45583 0.5463,3.65341 1.5604,6.49419 2.1509,9.45776 2.3869,2.13438 3.1498,5.38079 7.1592,6.40176 4.0121,1.01959 10.2939,-0.56844 14.3984,-1.12031 4.1046,-0.55188 6.8557,-2.78835 10.0759,-2.17577 3.2229,0.6112 6.2762,2.91804 8.9762,5.08001 2.7001,2.16198 5.0207,2.47792 7.2062,7.87251 2.1854,5.39458 4.1901,16.44174 4.4895,23.82584 0.2994,7.38409 -0.5285,14.04936 -2.7166,19.9089 -2.1882,5.85954 -4.1115,8.45749 -10.0373,14.26046 -5.9257,5.80435 -15.5753,14.32117 -25.2041,20.25383 1.7729,2.62555 2.5593,5.02896 5.3242,7.87802 2.7649,2.85044 8.5292,6.04442 11.0941,9.05076 2.562,3.00634 3.8617,5.16279 3.899,8.53475 0.04,3.37058 -0.1242,7.75247 -2.8615,11.42796 -6.817,9.15147 -14.8799,10.79054 -24.684,15.09517 1.6487,10.29524 2.9939,17.65036 0.6112,27.93042 -0.9727,4.18873 -3.1333,13.68651 -8.3002,16.12304 -5.1683,2.43653 -15.1338,1.25689 -21.4418,2.25855 -6.3079,1.00303 -9.8385,1.95501 -14.7557,2.93183 -2.9884,4.31981 -7.4379,9.08663 -8.9625,12.95804 -1.5273,3.87278 -1.0665,5.26075 0.2153,9.21494 1.2817,3.95418 5.6456,9.71162 6.8818,14.34186 1.2362,4.63023 1.4763,9.61505 0.3229,14.2577 -1.1562,4.64265 -3.1333,8.01185 -7.0902,12.13436 -3.9556,4.12389 -11.7384,7.36202 -15.6154,10.70362 -3.8796,3.34299 -7.7414,3.74448 -6.6832,9.27565 1.4556,7.59656 12.5552,19.91718 20.585,22.8504 4.8123,1.7591 11.272,1.20447 17.1164,-1.26241 -0.396,6.48867 -6.0113,10.86228 -9.6799,15.17105 9.9351,-2.84078 19.5695,-8.27951 26.2334,-15.48838 -2.0668,6.26102 -9.1777,16.31205 -19.8137,25.13792 -10.636,8.82587 -10.5712,7.01986 -15.8581,10.53116 9.6467,1.93847 18.6175,1.41419 26.0899,0.0718 -4.0963,2.25855 -10.8113,5.43459 -19.7061,6.36864 -8.8949,0.93267 -14.3791,0.27318 -22.3951,-1.67356 -8.0174,-1.94812 -15.3353,-9.23564 -25.0496,-14.25908 0.9464,3.60374 1.6197,7.93735 5.705,11.64319 4.0852,3.70584 10.2662,5.5905 16.8363,8.79551 -8.3637,-0.94922 -17.1523,-1.2362 -25.3711,-3.04773 -6.0844,-1.34244 -10.1724,-2.76627 -14.6247,-4.97102 -4.4495,-2.20474 -7.8849,-5.42079 -11.8267,-8.1305 1.8888,3.60788 2.449,7.85181 5.6636,10.82641 3.2147,2.97461 8.4396,4.0825 12.6656,6.12582 -4.4081,-0.0966 -8.6479,0.85955 -13.2174,-0.28973 -4.5723,-1.14928 -8.8604,-2.9553 -13.6134,-6.45695 -4.753,-3.50164 -9.6551,-7.81317 -13.7114,-12.22128 -4.0535,-4.4081 -9.059,-10.12277 -10.5739,-14.18733 -1.5177,-4.06594 0.9106,-6.90948 1.3659,-10.36008 -2.7994,1.83912 -6.2431,2.85181 -8.394,5.52151 -2.151,2.6697 -4.0577,5.10761 -3.1057,9.7613 0.9534,4.65369 5.2483,10.34214 8.285,15.51873 -9.0618,-7.4103 -14.1225,-10.2635 -16.2789,-19.2025 -2.0185,-8.36919 3.2036,-15.96576 7.173,-22.29439 1.9716,-3.14293 4.9213,-6.06787 6.7646,-9.1018 -4.0935,-4.00524 -8.7721,-7.44756 -12.2806,-12.01571 -3.5072,-4.56677 -4.9807,-10.74777 -8.561,-15.11725 -3.5817,-4.37085 -8.3995,-7.13713 -12.5952,-10.70086 3.6879,7.92217 9.7489,17.63932 11.0651,23.77065 1.3149,6.13134 -1.4748,9.88409 -3.6506,13.19396 -2.1772,3.30987 -5.6898,4.04801 -9.0218,6.08167 -3.3319,2.03504 -8.5141,0.43046 -10.4994,3.4506 -1.984,3.01876 -2.5166,7.56069 -0.6195,10.55186 l 7.7814,12.28198 c -2.867,-1.44729 -7.8062,-5.65672 -10.0331,-8.64236 -2.2268,-2.98565 -5.6429,-5.74365 -6.1106,-9.78062 -0.4677,-4.03558 -0.6954,-7.53861 1.9192,-11.13408 2.6158,-3.59409 9.7764,-4.79718 12.9814,-7.56069 3.2051,-2.76352 5.0028,-4.56263 4.8193,-8.13465 -0.1821,-3.57201 -3.6714,-6.12719 -6.6708,-8.37885 -9.157,-6.86809 -20.9037,-13.19672 -28.6796,-21.47485 -4.3929,-4.67714 -6.5011,-8.45335 -7.3841,-11.68044 -0.8816,-3.22571 0.051,-5.74226 2.2337,-9.71025 2.1827,-3.96936 9.6675,-9.26875 10.5781,-13.58027 0.9092,-4.31015 -2.8711,-5.23592 -6.2831,-6.75634 -3.412,-1.52041 -9.8924,0.77953 -13.0574,-1.86534 -3.1636,-2.64486 0.9299,-8.20224 -2.6366,-11.24998 -3.5651,-3.04773 -11.7259,-1.34657 -15.9381,-4.62471 -4.2122,-3.27952 -5.9534,-7.3496 -7.4048,-12.10677 -1.4514,-4.75716 -1.6156,-9.96825 -0.6319,-13.41333 0.9837,-3.44508 3.939,-4.04801 5.7216,-5.83332 1.7825,-1.78532 3.3292,-3.26573 0.9533,-5.92852 -2.3758,-2.66142 -10.1614,0.149 -14.6371,-3.26849 -4.4757,-3.41748 -1.7356,-11.60318 -4.9006,-15.05378 -3.1637,-3.4506 -8.8425,-2.09988 -11.8391,-3.20225 -2.9953,-1.10238 -4.1708,2.78697 -6.0086,-3.36369 -1.8377,-6.15203 -1.8874,-24.48947 -4.3598,-31.33272 -2.4724,-6.84326 -7.3275,-0.4622 -9.5819,-7.26406 -2.2544,-6.80049 -0.1173,-17.67657 -1.1328,-27.94835 l -4.6012,-27.94835 c -16.0513,10.78226 -26.6473,14.16802 -43.8921,17.21437 -1.439,42.19364 -5.4028,67.04045 8.9184,113.8519 14.3211,46.81007 43.3042,74.39832 82.4032,114.02987 -51.5934,-38.65335 -76.225,-70.07714 -91.6416,-110.33369 -15.4194,-40.26207 -12.4586,-73.93199 -10.9079,-112.70123 z m 274.1552,-16.95913 c 3.9693,0.17798 8.7927,1.18515 11.5797,2.9953 2.7884,1.81015 5.7478,3.28918 8.2781,5.86506 6.3135,6.42935 11.0486,14.18319 13.1416,23.09322 1.3341,5.68018 1.5328,12.96494 2.0185,19.63435 -1.9109,-6.16445 -3.1954,-12.59242 -5.9175,-18.11531 -4.2922,-8.70859 -11.5839,-17.20885 -20.6388,-21.12303 -2.9884,-1.29415 -4.982,-1.05408 -6.6266,-0.82505 0.7353,1.23482 1.9674,2.26958 2.0212,4.07835 0.054,1.80878 -0.3504,5.34768 -3.4175,6.83498 -4.9448,2.39928 -10.4415,0.71192 -14.2604,-2.66418 -3.8507,-3.40231 -5.1628,-9.15837 -3.1471,-14.10455 2.402,-5.89403 11.5549,-5.90921 16.9688,-5.66914 z m -49.7681,-8.38851 c 0.498,-10.13381 4.1556,-18.6796 13.2367,-23.64924 4.6965,-2.56898 11.9315,-5.89127 18.5803,-6.67217 6.3865,-0.74917 21.9218,-0.20144 31.2665,4.06318 7.1757,3.27538 12.064,8.37471 18.365,12.10125 6.2997,3.72792 10.7809,6.22653 16.7798,10.40699 9.208,6.41693 14.6053,13.48231 20.9892,17.71796 3.0698,2.03504 7.3882,1.73289 11.4638,2.97737 -3.1691,0.94094 -7.311,1.97847 -10.7298,0.88576 -4.2633,-1.36314 -10.2235,-5.26076 -13.5306,-8.05463 -5.8444,-4.93652 -8.8742,-7.34546 -15.2525,-11.06924 -3.8079,-2.21854 -10.0786,-4.83305 -14.2632,-7.56207 -4.1874,-2.72902 -11.4556,-8.71687 -15.4787,-10.74363 -5.1146,-2.5745 -14.3226,-4.00662 -20.0166,-3.83968 -7.8449,0.22903 -19.1997,1.52318 -25.2703,7.0309 -6.0307,5.4746 -8.3209,10.29109 -6.9606,17.40063 2.271,-2.61589 3.7831,-5.90231 6.0582,-7.84767 4.7131,-4.02593 10.1214,-4.22047 15.9879,-3.4575 6.5907,0.85817 9.9089,4.66473 12.086,10.92161 -1.4652,-1.07615 -4.1583,-3.43956 -6.2844,-4.17217 -4.9904,-1.72186 -8.7638,-1.19206 -13.4382,1.31484 -5.5188,2.96081 -4.0177,7.3427 -4.8124,12.21576 -0.3642,2.24751 -1.2127,4.05766 -1.8184,6.08719 -2.075,-0.54912 -3.9942,-1.4128 -5.5643,-2.96909 0.065,2.27648 -0.2663,4.26737 0.2001,6.82807 0.4636,2.55933 1.7108,5.60016 2.5648,8.39955 -3.8424,-3.84381 -7.7745,-7.42273 -10.2566,-12.38547 -2.4848,-4.96549 -4.168,-10.47597 -3.9017,-15.9285 z m 6.6501,-73.75815 c 2.8325,-4.20391 3.6617,-10.65257 5.4083,-15.89539 -0.6981,6.64044 0.6444,13.94313 -2.5979,18.75273 -3.2423,4.80959 -8.9363,3.9666 -13.6534,5.36561 3.67,-2.79801 8.0091,-4.01904 10.843,-8.22295 z m -67.8131,98.46561 c 3.6368,-2.94425 13.452,-0.5905 20.7933,-0.0648 -5.276,1.35071 -10.5519,2.70281 -15.8278,4.05352 -0.4912,1.79498 -0.269,3.85209 -1.4735,5.38217 -1.2059,1.53145 -3.4961,2.0985 -5.2428,3.14569 0.1724,-4.71578 -1.8861,-9.57366 1.7508,-12.51654 z m 51.7259,-204.49743 c 4.3819,2.35927 9.9434,5.47875 13.8134,5.57532 3.8701,0.0966 4.8828,-2.53034 7.1592,-4.04662 3.5817,11.67906 7.6932,24.51154 13.7914,35.10893 2.5552,4.43984 4.1846,2.37582 6.1272,6.83774 1.9398,4.46053 2.8021,13.5375 4.6427,19.23699 1.8432,5.6995 4.2466,9.89375 6.37,14.83993 -5.3918,-7.63933 -12.3579,-17.37993 -15.3629,-23.73754 -3.0022,-6.35622 -1.0803,-6.90948 -3.5113,-12.96355 -2.431,-6.05407 -7.3454,-15.49114 -11.0182,-23.23671 -2.6296,0.34906 -5.8857,0.82781 -7.8849,0.21109 -1.9991,-0.61672 -1.6004,-2.74282 -3.4064,-4.11699 -1.8088,-1.37417 -4.8483,-0.84161 -7.3814,-3.03532 -2.5331,-2.19232 -3.1098,-6.69149 -3.3388,-10.67327 z m -23.5941,57.62821 c 4.1239,-0.36148 9.2453,0.74365 13.1071,0.52428 3.8617,-0.21937 6.6183,-1.22102 9.9282,-1.83222 -0.6139,-5.81677 -0.032,-16.50384 -5.4015,-20.38766 -3.4685,-2.50827 -17.7138,-0.61948 -21.519,0.20144 -8.5623,1.84602 -18.5333,6.95638 -26.8142,10.15174 7.936,-5.54359 14.7916,-10.68155 24.3101,-13.54302 5.7216,-1.72047 19.0742,-3.95695 24.9793,-2.36203 2.6959,0.7271 3.2409,1.84327 4.8758,4.12803 5.6208,7.84767 5.6043,14.63022 7.0626,23.77203 1.4335,2.23372 2.9608,3.72378 4.1225,6.02786 1.159,2.30408 1.8157,5.92991 2.1399,8.89348 -1.4707,-2.133 -0.5712,-4.80822 -4.6454,-6.39624 -4.077,-1.58802 -10.3187,-0.10486 -15.8112,0.46909 4.0038,2.88907 5.9933,5.6719 6.1465,11.77978 0.1793,7.17163 -5.8927,12.33304 -12.2323,12.82421 -8.8011,0.68294 -13.3389,-1.25 -16.8985,-8.77206 -1.559,-3.2947 -0.429,-7.25854 -0.5587,-10.47046 -10.5753,0.73538 -10.4029,0.39046 -18.1319,6.83498 4.2012,6.15479 6.8474,9.69369 13.79,13.37608 3.8935,2.06677 8.3016,4.0756 13.1263,4.89651 4.8262,0.82092 12.7415,1.61424 17.8104,0.8361 5.0704,-0.77815 7.9429,-2.22544 11.7012,-5.70088 3.7596,-3.47681 4.1046,-8.45473 5.5725,-12.3896 -0.3338,3.78725 -0.7684,8.61064 -2.1743,11.3576 -4.2771,8.35125 -11.6736,10.82641 -20.505,10.85401 -8.4768,0.0276 -18.9624,-1.92743 -26.8487,-5.19729 -6.3052,-2.61313 -16.7577,-10.01378 -19.2384,-16.44313 -1.6956,-4.39293 -0.3532,-9.78337 -0.5312,-14.67574 8.7307,-5.80573 10.8913,-4.37776 21.221,-6.07753 4.3212,-0.71192 7.2931,-2.3165 11.4169,-2.67936 z m -50.8567,-39.3225 c 0.2456,-3.47819 0.6306,-3.40369 0.9465,-5.10623 -7.9539,-2.12748 -11.1437,3.03256 -15.8071,12.61587 -1.7453,3.58582 -0.018,5.72019 -1.8902,8.08084 -1.8694,2.36065 -4.8827,2.02952 -7.9194,4.29635 -3.0367,2.26545 -6.0458,6.60457 -8.8852,8.95142 -5.8264,4.81649 -13.7016,7.75661 -20.4594,10.9975 4.6151,-3.40507 13.5707,-8.56925 16.468,-13.51681 1.537,-2.62279 1.3093,-7.56897 3.7017,-9.92686 2.391,-2.35927 3.2285,-3.99144 6.3162,-4.59298 3.0878,-0.60155 1.846,-4.18046 2.8422,-7.02538 0.9961,-2.84492 2.9801,-4.86478 5.091,-7.70694 2.1109,-2.84216 4.7737,-7.10953 8.9418,-8.65892 4.168,-1.55077 10.6677,0.12555 13.8231,-0.76711 3.154,-0.89266 1.3424,-3.1857 3.6341,-4.56263 2.2944,-1.37693 6.7549,-0.76987 9.8192,-2.24199 5.4319,-2.61175 8.0298,-6.97157 11.2969,-11.63906 0.4746,10.0469 0.3587,17.2806 -3.2519,26.73285 -4.0659,10.63878 -8.1871,16.90532 -19.7268,23.44781 -3.9763,2.25303 -7.9332,3.03531 -11.2293,4.2177 1.9219,-2.62141 4.673,-3.75965 5.7671,-7.86422 1.0914,-4.10733 0.276,-12.25164 0.5215,-15.73121 z m 186.3104,48.9886 c -5.487,0.35734 -6.7881,-0.36424 -11.1782,2.73178 2.3799,3.70309 4.7585,7.40617 7.1357,11.10925 -0.2097,-7.30958 0.5022,-8.77481 4.0425,-13.84103 z m -14.3763,-5.3118 c 7.5993,-3.23675 14.2204,-5.8554 22.4875,-6.37278 3.314,-0.20834 8.4589,0.30491 11.806,0.45667 2.8504,-4.19701 6.4832,-7.50688 7.8146,-12.29716 0.8816,-3.17742 0.447,-17.92491 -1.1135,-21.75355 -4.546,-11.14236 -8.9652,-11.61284 -15.2221,-17.99527 -4.5405,-4.62886 -4.7212,-11.67769 -6.0789,-19.5764 -0.498,-2.90149 -1.9219,-6.57284 -2.5896,-9.56676 -8.1788,-1.37831 -16.9743,-1.83223 -26.3838,-1.36176 4.5626,-4.37637 8.9735,-8.37471 10.2828,-14.94478 1.3066,-6.57008 0.2428,-14.64816 -3.492,-20.53943 -3.7348,-5.89127 -9.7006,-11.02371 -15.1766,-15.82364 -5.4787,-4.79994 -13.3305,-8.7624 -18.5209,-12.689 6.7508,-2.41721 13.6437,-5.96853 20.2566,-7.25026 17.2268,-3.34161 32.0695,1.76876 48.685,11.81427 9.6606,5.84298 17.6504,11.39347 27.7497,21.96602 10.0966,10.57118 22.62,29.9627 32.3951,41.4624 9.7751,11.4997 17.6669,20.59461 26.1948,27.45304 8.5292,6.85981 16.2486,8.81345 24.3708,13.2188 l 12.66,13.44368 10.2456,-12.67795 16.4859,1.86395 3.4064,-18.50438 15.1311,-4.14596 -2.4683,-24.94477 10.8789,-7.72074 -8.1761,-15.52011 8.3071,-16.95913 -10.8305,-19.38601 4.1763,-18.6658 -12.5386,-10.68569 -1.6363,-19.83578 -17.4917,-6.67218 -7.0171,-17.25714 -19.6661,-0.22075 -9.6468,-12.81041 -13.2395,0.92715 -14.7585,-1.60733 -8.3457,-6.16169 -12.1123,8.04082 -14.6565,-7.64209 -29.1348,11.06096 18.9928,-16.51763 19.6771,-3.14293 15.0745,-3.84243 20.3586,6.68597 17.9194,-4.53918 17.2779,10.21384 18.2836,-1.01132 8.9818,16.11615 18.205,2.10126 9.8496,17.91802 11.45,6.25136 3.0394,22.95388 10.1973,9.67162 -4.484,20.08412 12.013,15.20969 -11.2638,16.29688 12.0447,10.18624 -15.3973,13.6465 15.5946,16.24031 -18.8328,6.07339 12.2668,17.41857 -15.3835,2.65452 10.0883,19.15284 -17.3372,-0.23041 8.7335,14.346 -19.0163,-2.2889 4.5489,20.63876 -14.3709,-12.64209 -4.9227,25.01375 -9.9172,-17.96078 -5.3711,22.402 -12.242,-16.51901 0.3339,23.49058 -13.5306,-21.12166 c 2.8532,11.98398 2.282,25.1062 10.1531,36.40447 24.3874,-3.30022 40.3269,-9.44535 59.0106,-27.42407 17.0171,-16.37415 37.3565,-50.51454 42.8642,-72.16875 6.2845,-24.71022 6.4776,-70.15716 0.2884,-95.3144 -5.9575,-24.22181 -13.7003,-35.79188 -27.5345,-55.5573 -13.2229,-14.04385 -26.2279,-28.87964 -43.0104,-38.89479 -24.6357,-14.70059 -56.2251,-18.66443 -84.3017,-18.28226 -15.5463,0.21248 -25.9602,3.19812 -35.2552,6.57836 -16.2541,5.91058 -29.2535,18.80377 -45.7781,25.17517 -5.389,2.07644 -9.7088,2.14128 -13.9527,-0.12555 4.1556,8.31401 8.6768,12.0433 19.041,15.06896 7.4973,2.18819 25.3863,0.80436 37.7014,-0.3325 13.2202,-1.22103 20.1159,-5.15176 38.1084,-4.9048 17.5717,0.24145 31.4955,6.91638 39.1086,11.2693 15.7078,8.98177 26.9716,18.94588 36.7591,34.72952 5.3752,8.6672 9.1404,18.44643 11.7922,28.42572 2.6517,9.97929 3.8134,21.15614 3.9831,30.92572 0.1697,9.76957 -0.5767,18.49058 -2.9663,27.28196 -5.5891,20.58219 -17.9194,41.52586 -43.2477,38.29049 -15.4994,-1.98123 -38.8658,-31.07334 -46.6914,-41.74661 -15.7906,-21.54108 -32.0378,-45.37796 -51.8791,-63.31667 -12.0971,-10.93403 -28.6603,-18.45885 -44.9254,-19.94753 -30.5146,-2.79249 -39.564,3.00358 -62.533,21.93566 4.673,1.49007 9.2342,2.31236 14.0231,4.4702 10.6278,4.78889 20.3477,10.97818 28.8259,18.9169 8.8838,8.32091 12.8697,13.58718 13.1857,25.50217 0.2097,7.91251 -6.2997,14.25632 -12.2668,19.96271 -3.6507,3.49475 -8.4824,6.69425 -11.439,9.40672 -3.9184,3.5996 -8.7707,7.53723 -3.848,13.27122 1.8515,2.15507 5.0662,3.78035 7.7773,5.79331 4.3033,3.19398 2.3331,15.06482 -3.3361,18.21327 -7.2544,4.02455 -15.923,3.57477 -21.9053,-1.81291 7.551,-1.12997 12.3468,-2.13162 12.1509,-8.30849 -0.1131,-3.58029 -4.6647,-6.5549 -9.1321,-8.59132 -10.774,-4.91169 -18.9114,-4.18735 -29.6344,-11.90257 -10.8305,-7.79662 -11.0692,-12.06537 -13.9969,-24.30597 -5.2221,0.54636 -10.0303,0.66639 -17.0129,2.97875 -6.9826,2.31097 -14.6992,7.81317 -21.0389,9.17492 -15.9658,3.43543 -19.1473,2.41722 -27.8849,0.15591 -15.3835,-3.98178 -35.4138,2.83526 -55.3117,9.19976 -3.3085,1.05822 -16.6901,0.0359 -25.6981,3.19674 -13.9128,4.88134 -33.434,16.70251 -44.7088,26.19753 -17.0833,14.38877 -39.5336,57.45023 -52.2184,106.87619 -1.3328,15.0248 2.9401,25.14758 -6.5246,32.48614 -9.4647,7.33856 -9.2025,26.13958 -12.4117,31.41275 -3.2091,5.27179 -6.9246,2.9415 -13.8327,10.34628 -6.9081,7.40479 -10.425,6.16721 -10.2511,20.16829 5.9533,-3.91418 14.633,-8.46439 22.2544,-8.73895 6.7494,-0.2442 6.8211,8.64237 24.1445,-8.4837 9.2646,-9.16251 27.064,-9.44259 39.4136,-13.4837 12.3509,-4.0411 34.6067,-12.3689 56.897,-37.28884 22.2902,-24.91993 32.9566,-51.15471 37.2791,-89.08235 0.6885,6.72461 1.8833,14.30875 -0.9961,32.85867 -2.8794,18.54991 -9.0853,39.38458 3.9887,64.34039 l 8.1457,15.54771 c -4.8496,-6.61837 -14.3226,-17.41443 -17.1744,-25.10757 l -6.5784,-17.74694 c -14.7171,23.10703 -18.1001,27.24057 -38.5443,43.79546 -0.814,10.2704 -1.0141,20.9823 2.3427,30.80982 3.3568,9.82614 -1.9937,21.15338 0.5601,27.6255 2.5539,6.47212 8.4603,2.78835 10.3891,9.34049 1.9288,6.55214 -1.0072,19.50604 1.984,25.89262 2.9912,6.38658 10.3297,2.51103 13.8866,4.57367 3.5568,2.06401 4.7199,4.89237 6.6225,7.60622 1.9012,2.71247 -0.7437,9.12526 3.125,11.20721 3.8672,2.08333 9.9006,0.31871 13.9252,2.31787 4.0245,1.99917 4.6357,6.80463 3.6713,11.11064 -0.9658,4.306 -5.2663,6.28172 -7.1551,10.65947 -1.8874,4.37913 -1.6763,7.42686 0.5919,11.44727 2.2682,4.0218 7.2903,6.2362 12.2958,8.26572 5.0055,2.02952 12.0392,0.8899 17.2047,3.69618 5.1656,2.80629 9.8082,8.39817 12.5359,12.46273 2.7276,4.06318 3.4851,6.93018 3.3457,11.20307 -0.1407,4.27152 -1.8736,9.19287 -4.1542,13.31951 -2.2806,4.12665 -7.3124,9.14872 0.5436,17.0295 7.8559,7.8794 7.5662,4.48261 12.0667,9.59435 -0.4898,-8.84242 -4.1432,-16.04577 -1.4721,-22.70277 2.6725,-6.657 10.6954,-7.81456 14.9241,-10.80848 4.2287,-2.9953 6.6639,-7.10954 9.9972,-10.66361 -0.048,4.57366 0.4415,9.49087 -0.079,12.93458 -1.0596,7.00192 -3.1264,13.21741 7.3082,14.34048 4.7006,0.50496 9.1639,-2.54277 14.1101,-4.37223 -2.5911,4.63989 -7.0972,8.37057 -7.7746,13.92381 -0.6774,5.55049 0.1366,11.64871 3.9804,17.15781 3.8452,5.50633 10.4843,9.59573 15.3491,12.83248 4.8634,3.23813 7.4696,3.49751 11.2072,5.24834 0.1835,5.45804 -0.8913,11.2348 -0.2691,16.37552 0.6223,5.14072 2.242,9.69093 5.2139,13.94037 2.9746,4.25082 7.7442,6.68873 12.2364,9.83166 -2.4627,-5.73536 -7.4586,-11.17685 -7.391,-17.20609 0.068,-6.02786 1.875,-10.30076 7.7553,-15.64981 5.8802,-5.35043 19.6467,-9.99032 26.1382,-15.19175 6.4914,-5.20281 8.5858,-8.38989 10.9161,-13.44093 2.3302,-5.05104 1.6818,-13.18844 2.1123,-17.72899 2.1371,6.36036 2.442,8.33745 3.136,14.99169 0.6981,6.65562 -3.8783,15.99059 -5.8154,20.91746 8.0298,-3.8783 13.1264,-10.07725 15.6995,-16.13546 1.7218,1.02097 0.854,3.82036 1.4873,9.21494 2.8615,-2.84768 6.1148,-5.03862 8.9956,-7.72625 2.8835,-2.68488 6.0416,-5.0469 7.4723,-8.79552 1.428,-3.74861 0.843,-7.73453 -0.2207,-12.09021 -1.0637,-4.35567 -5.9313,-9.40671 -8.5527,-14.17078 -2.6186,-4.76268 0.4636,-9.43845 0.2856,-15.17795 -5.2442,-0.90094 -9.6978,-3.57202 -15.7257,-2.70419 -6.0306,0.86644 -12.9373,7.63382 -19.1004,7.71246 -6.1631,0.0786 -9.6233,-5.69536 -14.6757,-7.282 -5.0525,-1.58664 -10.1642,-1.4128 -15.2442,-2.1192 6.4348,-6.16445 31.41,-9.10043 48.4933,-11.88602 15.0317,-2.4517 29.9489,-3.86864 45.1792,-4.08249 6.8019,-0.0966 15.5436,2.14955 20.2663,0.79194 4.7268,-1.35486 3.7183,-4.57367 5.12,-8.08222 3.9211,-9.80682 1.9881,-18.54025 -0.1449,-28.41606 -13.6727,-1.6032 -27.9193,-3.56512 -41.6955,-2.5069 -13.4685,1.03477 -29.4177,7.4379 -43.3098,7.87113 -12.0778,0.37527 -29.9627,-2.31374 -40.3338,-8.63547 -12.6739,-7.72488 -22.4793,-24.31563 -25.9603,-29.64261 -5.6691,-8.67686 -12.82,-25.69946 -17.1716,-33.48228 -4.3487,-7.78283 -5.3076,-9.95997 -8.9265,-13.20914 -3.619,-3.24779 -8.5762,-3.49889 -12.8629,-5.24971 4.9421,0.50496 10.338,-1.05961 14.8275,1.51489 6.7453,3.87003 14.295,19.91029 18.492,26.89013 4.4467,-14.90615 3.4092,-20.76707 16.2762,-29.17213 -10.3698,11.62249 -10.6278,20.42629 -13.1553,34.11004 8.623,14.15284 20.6111,36.69695 36.2982,42.95246 5.6664,2.26131 15.3973,3.67963 21.5231,4.43708 19.0646,2.36064 37.453,-3.68101 56.1768,-8.30435 13.6865,-3.38023 27.5745,-2.01848 44.2204,-1.04028 5.6512,0.33112 18.9762,-3.06843 21.7356,-8.78448 1.4901,-3.0836 1.3797,-6.78945 -0.7602,-10.07586 -2.1427,-3.28642 -7.849,-4.87582 -10.9078,-7.83388 -3.0588,-2.95805 -4.8179,-6.46936 -7.2268,-9.70472 -12.7139,2.43928 -23.1719,3.37609 -32.609,3.63272 6.7688,-2.78836 13.263,-4.37914 20.3077,-7.13437 7.0447,-2.75524 15.0441,-7.27786 20.7298,-11.03061 5.6857,-3.75414 9.3156,-5.93128 13.4299,-10.29938 4.1115,-4.37085 9.386,-8.87277 12.4172,-14.21493 3.0339,-5.34215 3.503,-11.31758 3.6727,-17.92905 0.1697,-6.61009 -0.1159,-15.88573 -2.6656,-21.21133 -2.5469,-5.32422 -7.4585,-6.93984 -11.4045,-8.19949 -3.9472,-1.25966 -6.6501,1.92604 -10.7546,2.35651 -4.1074,0.43046 -7.9443,3.01876 -13.8825,0.22627 -5.9381,-2.79249 -12.9773,-8.47681 -18.9817,-16.91361 -6.0017,-8.43817 -10.2939,-22.22954 -16.4128,-32.83934 -10.5477,-18.28915 -23.692,-35.37383 -36.2623,-52.32055 -1.0348,-4.17907 -2.5897,-9.95445 -3.1071,-15.62359 -0.9023,-9.87857 -1.072,-20.14069 1.9937,-29.77092 2.3496,-7.37719 5.7671,-15.16967 13.4919,-18.19533 3.0905,-1.21137 7.0006,-1.6915 9.7627,-0.66777 2.7649,1.02235 5.476,4.14182 4.3902,7.74557 -1.1935,3.96247 -3.939,4.07008 -5.8044,6.07063 -3.1664,3.39403 -4.4329,5.88437 -5.6291,10.11588 3.4216,-0.0552 8.0463,-0.31595 10.8568,0.42356 3.6672,0.96578 7.0819,3.39679 8.9431,8.5927 -4.3764,-3.88106 -6.5508,-5.66224 -12.0129,-5.80021 -2.5028,-0.0621 -5.5436,0.83333 -8.3127,1.25 -1.0347,3.36644 -1.6432,7.49447 -3.1043,10.09932 -1.4611,2.60485 -4.306,1.97985 -5.3739,5.02344 -1.0678,3.03808 -1.1299,7.98564 -0.5918,11.97984 z m 38.238,-4.56263 c 1.6764,0.66087 2.3151,0.80574 4.4385,2.42135 2.1233,1.61562 5.0524,3.22847 6.7342,7.08884 1.6846,3.86175 1.606,9.83304 1.2473,12.26543 -1.4763,-0.43322 -3.4892,-0.14073 -5.0207,-1.45005 -1.5273,-1.30932 -2.4393,-4.27427 -4.3984,-5.54359 -1.962,-1.26793 -3.5969,-0.99061 -5.7644,-1.26517 1.1134,3.16776 1.6543,6.33691 1.1369,9.20942 -1.1231,6.27068 -4.8096,9.44673 -10.7781,10.19728 -2.6063,0.32698 -6.7453,-0.53118 -9.0136,-0.94371 1.0514,2.34823 2.8325,4.40534 3.8852,6.75357 5.0469,-0.72985 8.7873,-0.62637 11.5011,-1.89569 2.7139,-1.26931 5.6236,-4.11285 9.106,-5.31732 3.4837,-1.20447 6.5907,-1.18515 10.4014,-1.7798 -3.0022,2.58692 -4.9724,5.17522 -7.9704,7.76213 2.1992,6.3921 4.3984,12.78282 6.5963,19.17353 4.6619,2.91666 9.0356,4.45364 14.9103,8.05462 5.8774,3.60237 12.9235,10.04552 20.5766,13.55958 7.6532,3.51407 12.2103,5.42632 20.207,6.93432 7.9953,1.508 14.357,7.98425 22.2254,9.03696 7.8683,1.0527 22.5648,1.26517 28.6285,0.67329 6.8846,-0.67191 15.8292,-4.22461 16.6321,-11.77289 -5.7726,1.42384 -14.5888,0.14625 -19.041,-10.71604 -1.9757,-4.82339 -1.0072,-13.69341 -4.0315,-19.39704 -3.0229,-5.70501 -7.2378,-7.53586 -12.2737,-14.56399 -5.0359,-7.02813 -13.274,-18.11393 -17.8987,-27.5303 -4.6219,-9.415 -5.7105,-20.07999 -9.6206,-28.51679 -3.91,-8.43541 -9.8082,-15.24969 -14.3791,-21.75216 -9.9806,-14.2108 -18.0297,-23.92242 -34.4729,-31.09128 -7.9083,-3.44785 -16.9122,-4.36672 -25.3683,-6.55077 -3.4409,1.54112 -8.1595,3.24365 -8.997,7.2682 -0.8374,4.02455 0.7713,9.96825 3.6921,12.98977 4.8882,5.05104 12.1316,10.51047 14.9793,18.53887 1.8294,5.15176 2.3606,22.4227 0.7754,27.1095 -1.6446,4.86617 -5.4677,7.80904 -8.6452,11.04993 z m 1.5922,40.87879 c -1.5273,1.3176 -2.6918,2.67108 -5.149,3.76517 -2.4545,1.09409 -5.8071,1.37693 -9.0646,2.19095 4.5682,7.11091 9.3667,14.29633 13.7431,21.77286 4.3791,7.47515 8.1733,15.66084 12.3524,23.4892 -0.1973,-4.48675 0.068,-9.27013 -0.585,-13.463 -0.6526,-4.1915 -2.5524,-7.86009 -4.4357,-14.15285 -1.8805,-6.29276 -4.1957,-14.85373 -6.8612,-23.60233 z M 2749.3831,422.28119 c -0.6443,6.99502 0.5395,17.93043 1.9882,24.77921 1.7356,8.1981 3.4064,12.44892 10.0593,17.38821 12.1826,9.04386 19.9599,7.5193 29.3322,12.7635 4.4591,2.49585 10.1103,6.67907 11.759,11.10097 1.6488,4.4219 -1.0885,9.22322 -4.4701,11.11063 5.9147,0.88024 12.5468,-5.78779 9.7792,-12.6338 -1.3631,-3.3692 -7.8518,-4.8703 -9.8413,-8.26986 -1.9854,-3.39817 -1.9813,-6.89706 -1.0458,-10.34904 1.6901,-6.2224 14.001,-11.87636 18.3512,-16.79495 6.6942,-7.56897 9.2646,-13.90036 5.4732,-23.64786 -5.3242,-13.69341 -25.894,-24.68125 -38.2049,-30.05513 -5.6374,-2.45999 -8.7983,-2.63521 -13.1954,-3.95281 9.0025,5.27593 18.4934,9.47846 23.0477,21.27204 3.8024,9.84959 0.5091,13.56095 0.6361,22.1371 0.059,3.97626 5.2952,5.96439 7.62,8.4768 2.024,2.18405 1.8598,3.80518 0.2428,6.8198 -0.178,-2.71936 -1.3397,-4.74888 -3.4271,-6.22653 -3.4465,-2.44343 -7.1592,-1.91777 -8.9956,-6.92742 -2.787,-7.61588 2.7401,-14.82889 -3.4741,-23.3802 -4.6481,-6.39761 -10.8305,-13.5582 -19.1707,-13.74583 -3.9473,-0.0897 -6.915,0.50634 -11.1314,1.75358 l -5.6208,-6.76461 -0.1297,-0.0883 c -11.4335,-10.43459 -19.2563,-19.03419 -35.2952,-26.20581 -16.0389,-7.17024 -23.9431,-8.25605 -42.333,-7.84766 -18.3898,0.407 -36.6404,1.94536 -57.94,20.31315 -21.2982,18.36779 -76.1919,88.70293 -89.5045,97.60468 -13.3113,8.90175 -16.2597,11.91775 -32.8932,11.92189 -16.6335,0.004 -42.5937,-23.52369 -43.6106,-52.92761 -1.0182,-29.4053 -1.4266,-39.85644 19.0135,-75.27994 20.4415,-35.42488 57.4723,-46.30235 84.9475,-49.97508 27.4764,-3.67273 43.9872,6.0044 64.3114,6.04993 20.3228,0.0469 40.4083,-3.46163 46.3313,-19.62468 -2.8987,1.72599 -6.7826,3.67135 -17.7042,3.09878 -10.9216,-0.57257 -26.065,-13.21742 -43.1001,-21.69009 -17.035,-8.47128 -35.9919,-9.46328 -60.3061,-9.92272 -24.3143,-0.45943 -54.6536,1.39901 -84.7115,17.62552 -30.0579,16.22652 -50.5753,33.44365 -68.009,65.20132 -17.4338,31.75905 -20.0386,57.68892 -17.2282,96.14222 2.8104,38.45329 14.6702,67.05148 37.5055,95.19574 22.8352,28.14427 45.6566,41.91494 86.8072,47.03496 l 8.6631,-38.21185 -15.465,22.19367 0.3822,-24.68401 -13.9887,17.35786 -6.1354,-23.54024 -11.3328,18.87276 -5.6291,-26.28307 -16.4225,13.28226 5.1987,-21.68732 -21.7301,2.4048 9.9821,-15.07448 -19.8137,0.24145 11.5286,-20.12552 -17.58,-2.79111 14.0177,-18.30433 -21.5232,-6.38106 17.8201,-17.06398 -17.5952,-14.33911 13.7624,-10.70362 -12.8697,-17.12469 13.7279,-15.98094 -5.1242,-21.10371 11.657,-10.16141 3.4699,-24.11833 13.0822,-6.57008 11.2555,-18.82723 20.8044,-2.20888 10.2648,-16.93429 20.8954,1.06373 19.7461,-10.73259 20.4787,4.76958 23.2616,-7.02537 17.2282,4.03697 22.4834,3.30435 21.7066,17.35648 -33.296,-11.62249 -16.7494,8.03116 -13.8452,-8.45059 -9.5323,6.47488 -16.8667,1.68874 -15.1255,-0.97682 -11.0265,13.46024 -22.4765,0.23179 -8.0173,18.13324 -19.9862,7.01158 -1.8695,20.84295 -14.3322,11.22791 4.7751,19.61365 -12.3772,20.3711 9.495,17.81868 -9.3446,16.30792 12.4324,8.11256 -2.8201,26.21133 17.2903,4.35705 3.8948,19.44395 18.841,-1.95778 11.7053,13.32228 14.4674,-14.12663 c 26.3742,-13.15119 37.2351,-20.50769 57.7897,-42.73861 23.3981,-25.30763 36.8087,-48.70577 67.9758,-66.03328 22.3538,-12.42823 40.5863,-16.90118 65.6967,-12.56206 23.5761,4.07284 31.4707,18.21465 48.834,33.11252 1.8405,-3.33194 2.2144,-4.21494 5.247,-6.66803 -0.952,4.3267 -2.4641,8.81483 -2.8491,12.97597 z"
       inkscape:connector-curvature="0" />
    <g
       id="g7284">
      <path
         style="fill:#000000;fill-opacity:1;fill-rule:evenodd;stroke:none"
         id="path2989"
         d="m 212.84279,684.54769 c -2.06045,10.2204 -3.13324,20.80321 -3.13324,31.6308 0,87.89539 71.2533,159.1487 159.1487,159.1487 38.15298,0 73.14711,-13.42529 100.56208,-35.80846 16.37682,4.8018 35.26269,7.55956 55.40364,7.55956 20.14095,0 39.02683,-2.75776 55.40364,-7.55956 27.41497,22.38317 62.4091,35.80846 100.56209,35.80846 87.89539,0 159.1487,-71.25331 159.1487,-159.1487 0,-10.82759 -1.07279,-21.4104 -3.13324,-31.6308 -36.43883,45.98041 -92.79039,75.49616 -156.01546,75.49616 -63.14987,0 -119.42348,-29.46038 -155.86626,-75.34696 -0.01,-0.0505 -0.0396,-0.0988 -0.0497,-0.14913 -0.0143,0.0183 -0.0353,0.0315 -0.0497,0.0497 -0.0143,-0.0183 -0.0353,-0.0315 -0.0496,-0.0497 -0.01,0.0504 -0.0396,0.0988 -0.0497,0.14913 -36.44277,45.88658 -92.71639,75.34696 -155.86626,75.34696 -63.22506,0 -119.57663,-29.51575 -156.01546,-75.49616 z"
         inkscape:connector-curvature="0" />
      <path
         id="path7287"
         style="stroke:#000000;stroke-width:1.000000;fill:none"
         d="M 213.463632,685.288054 l -0.911091,0.911091 M 210.321868,702.571954 l 9.591081,-9.591081 M 226.751748,700.284209 l -17.013888,17.013888 M 210.403758,730.774335 l 23.537281,-23.537281 M 241.481185,713.839044 l -29.428517,29.428517 M 214.493105,754.969259 l 34.882978,-34.882978 M 257.632867,725.971633 l -39.950313,39.950313 M 221.482141,776.264495 l 44.780022,-44.780022 M 275.278493,736.610278 l -49.431660,49.431660 M 230.770604,795.260302 l 53.930237,-53.930237 M 294.553449,745.619593 l -58.396908,58.396908 M 242.025865,812.289313 l 62.841011,-62.841011 M 315.679450,752.777863 l -67.310022,67.310022 M 255.133547,827.465903 l 71.905674,-71.905674 M 339.006625,757.734960 l -76.669776,76.669776 M 270.017861,840.865859 l 81.640323,-81.640323 M 365.091673,759.934183 l -86.967009,86.967009 M 286.681441,852.486551 l 92.750322,-92.750322 M 395.038509,758.271618 l -99.267276,99.267276 M 305.341190,862.111073 l 106.868319,-106.868319 M 431.808758,749.785641 l -116.336163,116.336163 M 326.230278,869.506256 l 129.377234,-129.377234 M 525.041373,684.837297 l -2.714992,2.714992 M 337.633206,872.245464 l 157.446438,-157.446438 M 531.497309,692.523497 l -181.635796,181.635796 M 362.984278,875.178663 l 175.328606,-175.328606 M 545.478486,706.826591 l -168.262366,168.262366 M 392.973390,873.473823 l 160.021393,-160.021393 M 560.865542,719.723806 l -149.956191,149.956191 M 432.946817,861.784667 l 136.150943,-136.150943 M 577.701919,731.171701 l -108.542823,108.542823 M 480.665032,842.350723 l 106.027344,-106.027344 M 596.087937,741.069953 l -103.485123,103.485123 M 505.218748,846.081278 l 100.693882,-100.693882 M 616.196770,749.245392 l -97.620070,97.620070 M 532.776945,846.807353 l 94.201444,-94.201444 M 638.305174,755.421259 l -90.289581,90.289581 M 564.643875,843.224694 l 85.593238,-85.593238 M 662.850152,759.160552 l -81.328245,81.328245 M 589.605464,846.547376 l 86.635857,-86.635857 M 690.534847,759.760129 l -92.329927,92.329927 M 607.248472,857.188639 l 98.777473,-98.777473 M 723.125502,755.453745 l -106.358202,106.358202 M 626.803396,865.917986 l 115.729732,-115.729732 M 766.032719,740.830799 l -128.476509,128.476509 M 648.982888,872.022765 l 154.051210,-154.051210 M 838.685984,696.461806 l -177.629422,177.629422 M 674.109414,875.180511 l 165.664090,-165.664090 M 839.748633,723.683427 l -151.453996,151.453996 M 703.943091,873.631105 l 134.299224,-134.299224 M 834.596380,757.119951 l -112.865219,112.865219 M 743.285855,862.572612 l 83.897967,-83.897967 M 807.294732,812.705871 l -29.977651,29.977651" />
    </g>
    <g
       id="g7289">
      <path
         inkscape:connector-curvature="0"
         d="m 389.84598,308.03071 c -35.53813,0.45587 -77.50817,11.66949 -123.63865,42.42308 a 15.924853,15.924853 0 1 0 17.65556,26.50821 c 66.94355,-44.62896 117.12514,-41.99939 152.13621,-29.93985 35.01108,12.05954 53.66296,33.9683 53.66296,33.9683 a 15.927007,15.927007 0 0 0 24.22044,-20.68933 c 0,0 -24.3162,-28.49719 -67.489,-43.36802 -16.1898,-5.57658 -35.22465,-9.1759 -56.54752,-8.90239 z m 265.97727,0 c -19.72002,0.19049 -37.39088,3.67435 -52.56881,8.90239 -43.17279,14.87083 -67.489,43.36802 -67.489,43.36802 a 15.927007,15.927007 0 1 0 24.22045,20.68933 c 0,0 18.65188,-21.90876 53.66295,-33.9683 35.01107,-12.05954 85.19267,-14.68911 152.13621,29.93985 a 15.924853,15.924853 0 1 0 17.65556,-26.50821 c -46.13048,-30.75359 -88.10052,-41.96721 -123.63865,-42.42308 -1.33268,-0.017 -2.66405,-0.0127 -3.97871,0 z"
         id="path5394"
         style="color:#000000;font-style:normal;font-variant:normal;font-weight:normal;font-stretch:normal;font-size:medium;line-height:normal;font-family:Sans;-inkscape-font-specification:Sans;text-indent:0;text-align:start;text-decoration:none;text-decoration-line:none;letter-spacing:normal;word-spacing:normal;text-transform:none;direction:ltr;block-progression:tb;writing-mode:lr-tb;baseline-shift:baseline;text-anchor:start;display:inline;overflow:visible;visibility:visible;fill:#000000;fill-opacity:1;stroke:none;stroke-width:20;marker:none;enable-background:accumulate" />
      <path
         id="path7292"
         style="stroke:#000000;stroke-width:1.000000;fill:none"
         d="M 298.240614,331.810495 l -37.867675,37.867675 M 266.919392,377.273853 l 56.350995,-56.350995 M 343.806586,314.528795 l -64.416881,64.416881 M 312.026480,360.451036 l 49.905784,-49.905784 M 377.986221,308.633431 l -40.879100,40.879100 M 357.243282,343.518506 l 35.460524,-35.460524 M 406.293588,308.610335 l -31.863645,31.863645 M 389.597048,339.449011 l 29.321991,-29.321991 M 430.731552,312.456642 l -27.562105,27.562105 M 415.651222,341.679108 l 26.124702,-26.124702 M 452.325735,319.146731 l -25.179715,25.179715 M 437.889658,347.724943 l 24.377276,-24.377276 M 471.665350,328.091387 l -23.689984,23.689984 M 457.380613,356.518260 l 23.171151,-23.171151 M 489.109244,338.931764 l -22.847509,22.847509 M 474.618491,367.564653 l 22.616565,-22.616565 M 504.902842,351.422438 l -22.474519,22.474519 M 489.571479,380.895936 l 22.495737,-22.495737 M 517.275318,367.334232 l -18.822164,18.822164 M 532.792847,365.958839 l 25.094103,-25.094103 M 591.240057,321.653765 l -57.002109,57.002109 M 541.773230,385.262728 l 71.284302,-71.284302 M 631.012105,310.165988 l -63.155319,63.155319 M 604.927078,350.393150 l 42.025994,-42.025994 M 661.352838,308.109527 l -35.278660,35.278660 M 643.313976,340.290524 l 31.403379,-31.403379 M 687.265520,310.481116 l -28.976716,28.976716 M 671.769828,340.118943 l 27.258790,-27.258790 M 710.250511,315.780396 l -26.038308,26.038308 M 695.851386,344.321656 l 25.251839,-25.251839 M 731.441034,322.874144 l -24.620184,24.620184 M 717.231680,351.225634 l 24.177582,-24.177582 M 750.998332,331.601117 l -23.821697,23.821697 M 736.733459,360.008126 l 23.551404,-23.551404 M 769.293902,341.589819 l -23.326330,23.326330 M 754.934248,370.091608 l 23.112235,-23.112235 M 786.261159,352.906833 l -22.667589,22.667589 M 773.761297,379.548830 l 16.698952,-16.698952" />
    </g>
    <g
       id="g7434">
      <path
         style="fill:#000000;fill-opacity:1;fill-rule:evenodd;stroke:none"
         id="path5369"
         d="m 427.43158,471.43232 a 31.829738,31.829738 0 1 1 -63.65947,0 31.829738,31.829738 0 1 1 63.65947,0 z"
         inkscape:connector-curvature="0" />
      <path
         d="M 395.495851,439.595633 l -31.715763,31.715763 M 366.046779,483.186841 l 41.320088,-41.320088 M 416.168239,447.207517 l -44.789407,44.789407 M 378.979664,498.538227 l 43.725911,-43.725911 M 426.700819,464.959208 l -37.582968,37.582968 M 403.548112,502.254051 l 22.852576,-22.852576"
         style="stroke:#000000;stroke-width:1.000000;fill:none"
         id="path7437" />
    </g>
    <g
       id="g7439">
      <path
         style="fill:#000000;fill-opacity:1;fill-rule:evenodd;stroke:none"
         id="path5371"
         d="m 684.34892,471.43232 a 31.829738,31.829738 0 1 1 -63.65947,0 31.829738,31.829738 0 1 1 63.65947,0 z"
         inkscape:connector-curvature="0" />
      <path
         d="M 649.890780,439.759146 l -29.026735,29.026735 M 622.364092,481.427969 l 40.156195,-40.156195 M 671.816450,446.117746 l -44.614335,44.614335 M 634.484182,497.592150 l 44.195124,-44.195124 M 683.210362,463.008106 l -39.116334,39.116334 M 657.527702,502.832902 l 26.382325,-26.382325"
         style="stroke:#000000;stroke-width:1.000000;fill:none"
         id="path7442" />
    </g>
    <g
       id="g7656">
      <path
         style="fill:#010101"
         inkscape:connector-curvature="0"
         d="m 1767.2764,696.26052 0,0 c 0,-3.90154 -31.2348,-7.28182 -76.8663,-8.94714 -1.9,0.56865 -3.9038,1.04478 -6.0611,1.37874 -3.7142,0.57316 -12.0182,1.5728 -14.3289,4.54014 -6.034,7.75794 -19.5325,17.79272 -29.3619,17.79272 l -12.9164,0 -12.9164,0 c -9.8249,0 -23.3257,-10.03478 -29.3597,-17.79272 -2.3061,-2.96508 -10.6124,-3.96698 -14.3267,-4.54014 -2.3219,-0.36104 -4.4882,-0.87327 -6.5191,-1.50736 -47.5337,1.62245 -80.3549,5.07719 -80.3549,9.07124 l 0,0.005 -0.1872,0 c 0,0 -30.6527,44.50549 -45.1306,66.56756 76.2503,-5.39535 258.1851,-15.13904 373.4531,0 -19.6431,-29.23783 -45.1261,-66.56756 -45.1261,-66.56756 z"
         id="path6502" />
      <path
         id="path7659"
         style="stroke:#000000;stroke-width:1.000000;fill:none"
         d="M 1492.082084,693.014946 l -18.359013,18.359013 M 1444.182996,755.056170 l 64.387097,-64.387097 M 1523.991204,689.390098 l -72.627155,72.627155 M 1466.494816,761.028621 l 72.640146,-72.640146 M 1553.978179,687.687394 l -72.462287,72.462287 M 1496.471346,759.336362 l 71.399834,-71.399834 M 1579.625310,690.324534 l -68.198509,68.198509 M 1526.208297,757.883683 l 61.760737,-61.760737 M 1595.487635,702.746481 l -54.522110,54.522110 M 1555.722752,756.653499 l 48.544207,-48.544207 M 1615.493406,711.024980 l -45.175167,45.175167 M 1584.842706,755.817816 l 44.792836,-44.792836 M 1644.188402,710.614255 l -44.821230,44.821230 M 1613.836540,755.108253 l 65.526494,-65.526494 M 1695.519885,687.567044 l -67.439722,67.439722 M 1642.323786,754.905279 l 66.669382,-66.669382 M 1722.439984,688.931216 l -65.872575,65.872575 M 1670.685869,754.827467 l 64.778964,-64.778964 M 1748.382980,691.272492 l -63.703756,63.703756 M 1698.552681,755.244926 l 62.010932,-62.010932 M 1769.053709,698.886034 l -56.702591,56.702591 M 1725.989325,756.092553 l 48.778042,-48.778042 M 1780.481026,715.742988 l -40.914194,40.914194 M 1752.930757,757.435393 l 33.263927,-33.263927 M 1791.908343,732.599943 l -25.652740,25.652740 M 1779.291438,759.358983 l 18.330563,-18.330563 M 1803.335659,749.456897 l -11.070822,11.070822 M 1804.956698,761.977994 l 4.092620,-4.092620" />
    </g>
    <g
       id="g7661">
      <path
         style="fill:#010101"
         inkscape:connector-curvature="0"
         d="m 1492.5058,382.10447 c 0,23.19936 -18.8059,46.76203 -42.0075,46.76203 -23.1994,0 -42.0053,-21.07597 -42.0053,-44.27533 l 84.0128,-2.4867 z"
         id="path6540" />
      <path
         id="path7664"
         style="stroke:#000000;stroke-width:1.000000;fill:none"
         d="M 1418.978561,384.280807 l -9.480383,9.480383 M 1413.152598,404.248906 l 20.399460,-20.399460 M 1448.125556,383.418084 l -29.478457,29.478457 M 1425.741932,419.943843 l 36.957121,-36.957121 M 1477.272551,382.555360 l -42.790479,42.790479 M 1445.470428,428.499618 l 46.375620,-46.375620 M 1489.354232,398.757950 l -28.434101,28.434101" />
    </g>
    <g
       id="g7666">
      <path
         style="fill:#010101"
         inkscape:connector-curvature="0"
         d="m 1775.4428,382.10447 c 0,23.19936 18.8059,46.76203 42.0053,46.76203 23.1993,0 42.0052,-21.07597 42.0052,-44.27533 l -84.0105,-2.4867 z"
         id="path6546" />
      <path
         id="path7669"
         style="stroke:#000000;stroke-width:1.000000;fill:none"
         d="M 1788.464970,382.489925 l -11.409555,11.409555 M 1780.989898,404.107132 l 21.210637,-21.210637 M 1815.936099,383.303066 l -29.379407,29.379407 M 1793.553556,419.827746 l 36.118109,-36.118109 M 1843.407229,384.116208 l -41.199840,41.199840 M 1813.082675,428.582897 l 44.060118,-44.060118 M 1857.046684,398.761025 l -28.366247,28.366247" />
    </g>
  </g>
  <eggbot
     serialport="/dev/ttyACM0"
     layer="0"
     node="0"
     lastpath="0"
     lastpathnc="0"
     totaldeltax="0"
     totaldeltay="0" />
</svg>
