<?xml version="1.0" encoding="UTF-8" standalone="no"?>
<!-- Created with Inkscape (http://www.inkscape.org/) -->
<svg xmlns:dc="http://purl.org/dc/elements/1.1/" xmlns:cc="http://creativecommons.org/ns#" xmlns:rdf="http://www.w3.org/1999/02/22-rdf-syntax-ns#" xmlns:svg="http://www.w3.org/2000/svg" xmlns="http://www.w3.org/2000/svg" xmlns:sodipodi="http://sodipodi.sourceforge.net/DTD/sodipodi-0.dtd" xmlns:inkscape="http://www.inkscape.org/namespaces/inkscape" width="640" height="480" id="svg9259" version="1.1" inkscape:version="0.48.0 r9654" sodipodi:docname="hen with three chicken.svg">
  <defs id="defs9261"/>
  <sodipodi:namedview id="base" pagecolor="#ffffff" bordercolor="#666666" borderopacity="1.0" inkscape:pageopacity="0.0" inkscape:pageshadow="2" inkscape:zoom="0.2267023" inkscape:cx="281.369" inkscape:cy="212.77273" inkscape:document-units="px" inkscape:current-layer="layer1" showgrid="false" fit-margin-top="0" fit-margin-left="0" fit-margin-right="0" fit-margin-bottom="0" inkscape:window-width="780" inkscape:window-height="666" inkscape:window-x="22" inkscape:window-y="29" inkscape:window-maximized="0"/>
  <g inkscape:label="Layer 1" inkscape:groupmode="layer" id="layer1" transform="translate(-58.973931,16.979413)">
    <g id="g8779" transform="matrix(0.69540605,0,0,0.69540605,1072.9932,-740.46104)" style="stroke-width:2.87601754;stroke-miterlimit:4;stroke-dasharray:none">
      <path id="path8006" d="m -948.33508,1561.8404 c -0.21367,32.9618 7.7659,39.7878 9.76973,58.6046 0,0 -39.88975,-15.5252 -52.69171,-9.9413 -12.80194,5.5839 -53.62164,23.4975 -7.10922,14.6979 14.59173,-2.7606 30.69092,-1.4329 30.69092,-1.4329 0,0 -56.29634,19.1319 -49.03074,30.6867 7.2656,11.5548 49.16939,-18.0727 49.16939,-18.0727 0,0 -22.51761,36.1173 -13.94827,38.8854 8.56934,2.7681 12.91512,-26.5207 33.25655,-32.4825 20.34144,-5.9619 48.02424,35.0128 39.35833,15.9535 -8.79806,-19.35 -3.06501,-23.3097 -16.06903,-56.0611 -5.62735,-14.1729 -8.63693,-26.7787 -9.9541,-37.7633" style="color:#000000;fill:#ffcc00;stroke:#000000;stroke-width:2.87601754;stroke-linecap:butt;stroke-linejoin:miter;stroke-miterlimit:4;stroke-opacity:1;stroke-dasharray:none;stroke-dashoffset:0;marker:none;visibility:visible;display:inline;overflow:visible;enable-background:accumulate" inkscape:connector-curvature="0"/>
      <path id="path7994" d="m -861.98274,1564.8877 1.04375,4.9675 c -1.86136,40.9163 7.35247,47.2143 9.52728,67.6366 0,0 -39.88975,-15.5251 -52.69171,-9.9412 -12.80194,5.5838 -53.62167,23.4975 -7.10922,14.6979 14.59173,-2.7606 30.69092,-1.4329 30.69092,-1.4329 0,0 -56.29639,19.1319 -49.03078,30.6867 7.26562,11.5547 49.16943,-18.0728 49.16943,-18.0728 0,0 -22.51761,36.1173 -13.94827,38.8855 8.56934,2.7682 12.91512,-26.5206 33.25655,-32.4825 20.34144,-5.9619 48.02424,35.0129 39.35833,15.9535 -8.79806,-19.35 -3.06501,-23.3097 -16.06903,-56.0611 -9.5307,-24.0037 -11.55256,-43.5125 -10.56102,-58.2633" style="color:#000000;fill:#ffcc00;stroke:#000000;stroke-width:2.87601754;stroke-linecap:butt;stroke-linejoin:miter;stroke-miterlimit:4;stroke-opacity:1;stroke-dasharray:none;stroke-dashoffset:0;marker:none;visibility:visible;display:inline;overflow:visible;enable-background:accumulate" inkscape:connector-curvature="0"/>
      <path inkscape:connector-curvature="0" id="path7990" d="m -1139.0552,1259.2285 -53.2969,41.4532 76.9845,13.3243 z" style="color:#000000;fill:#ffcc00;stroke:#000000;stroke-width:2.87601754;stroke-linecap:butt;stroke-linejoin:miter;stroke-miterlimit:4;stroke-opacity:1;stroke-dasharray:none;stroke-dashoffset:0;marker:none;visibility:visible;display:inline;overflow:visible;enable-background:accumulate"/>
      <path inkscape:connector-curvature="0" id="path7983" d="m -1033.0082,1108.5699 c -13.2834,-0.6672 -40.7981,50.8289 -46.8125,54.4376 -7.4024,4.4414 -2.9843,-32.5898 -32.5938,-37.0313 -29.6094,-4.4414 -8.875,39.9688 -8.875,39.9688 0,0 -23.6757,-23.6836 -48.8437,-4.4375 -20.8533,15.9466 15.9332,45.9493 34.3125,63.4062 0.8556,-1.3942 1.7096,-2.7908 2.6562,-4.125 1.3966,-1.9683 2.885,-3.8603 4.4688,-5.6875 1.5838,-1.8272 3.242,-3.5762 5,-5.25 1.758,-1.6737 3.6121,-3.2734 5.5312,-4.7812 1.9192,-1.5078 3.9015,-2.9204 5.9688,-4.25 2.0673,-1.3296 4.2038,-2.5798 6.4062,-3.7188 2.2025,-1.1389 4.488,-2.1891 6.8125,-3.125 2.3246,-0.9359 4.6914,-1.7482 7.125,-2.4687 2.4337,-0.7205 4.939,-1.351 7.4688,-1.8438 2.5298,-0.4927 5.1059,-0.8413 7.7187,-1.0937 2.6129,-0.2525 5.2546,-0.4063 7.9375,-0.4063 2.6829,0 5.3247,0.1538 7.9375,0.4063 2.6129,0.2525 5.189,0.601 7.7188,1.0937 2.5298,0.4928 5.0038,1.1233 7.4375,1.8438 2.4337,0.7205 4.8317,1.5328 7.1562,2.4687 2.3246,0.9359 4.5788,1.9861 6.7813,3.125 2.2024,1.1389 4.3389,2.3892 6.4062,3.7188 2.0674,1.3296 4.0809,2.7422 6,4.25 1.9192,1.5078 3.742,3.1075 5.5,4.7812 1.4642,1.394 2.8435,2.8739 4.1875,4.375 17.27852,-20.3786 36.81219,-48.979 33.40629,-71.9688 -5.4489,-36.78 -52.90649,18.3739 -60.74999,27.7501 5.1354,-6.7315 14.8477,-23.6787 10.4062,-51.4376 -1.1103,-6.9397 -3.4033,-9.846 -6.4687,-10 z" style="color:#000000;fill:#ff6600;stroke:#000000;stroke-width:2.87601754;stroke-linecap:butt;stroke-linejoin:miter;stroke-miterlimit:4;stroke-opacity:1;stroke-dasharray:none;stroke-dashoffset:0;marker:none;visibility:visible;display:inline;overflow:visible;enable-background:accumulate"/>
      <path sodipodi:nodetypes="cssssssccscscsssc" inkscape:connector-curvature="0" id="path7988" d="m -1050.605,1448.7289 c 0,16.2852 -4.4414,26.6485 16.2852,59.2189 21.4751,33.7465 94.05883,65.003 142.1252,60.6993 43.66827,-3.9099 65.14074,-8.8828 102.15252,-41.4532 33.04458,-29.0793 60.69932,-97.7111 66.62121,-96.2306 5.92188,1.4804 54.77744,34.0508 72.5431,2.9609 17.76565,-31.0899 -32.57038,-35.5313 -39.97273,-35.5313 -7.40236,0 65.65766,6.5829 54.77744,-38.4923 -17.32843,-69.4354 -93.82136,63.2364 -79.94545,23.6875 5.92188,-22.9474 68.38994,-120.644 38.49225,-122.8792 -29.56391,-2.2101 -56.25791,90.3088 -56.25791,90.3088 0,0 10.32906,-106.0961 -32.57037,-97.7111 -57.12991,11.1665 -5.92188,111.0353 -5.92188,111.0353 0,0 -65.14074,7.4024 -97.71111,-11.8438 -32.57037,-19.2461 -74.02356,-51.8164 -108.0744,-38.4922 -34.05077,13.3242 -62.35587,18.2443 -66.62117,37.0118 -7.4024,32.5704 -5.9219,97.7111 -5.9219,97.7111 z" style="color:#000000;fill:#e9c6af;stroke:#000000;stroke-width:2.87601754;stroke-linecap:butt;stroke-linejoin:miter;stroke-miterlimit:4;stroke-opacity:1;stroke-dasharray:none;stroke-dashoffset:0;marker:none;visibility:visible;display:inline;overflow:visible;enable-background:accumulate"/>
      <path inkscape:connector-curvature="0" id="path7963" d="m -1065.7704,1186.6955 c -42.9262,0 -77.7187,33.1179 -77.7187,74 0,33.7363 23.6876,62.2048 56.0937,71.125 -5.9119,23.3283 -22.2917,101.7972 0.1563,99.1562 25.168,-2.9609 26.6562,-50.3437 26.6562,-50.3437 0,0 36.9922,87.3282 45.875,34.0312 8.8828,-53.297 0,-66.5937 0,-66.5937 0,0 78.48052,63.6602 53.3125,23.6875 -25.16801,-39.9728 -37,-51.8438 -37,-51.8438 0,0 115.4727,72.5587 87.34375,17.7813 -19.34766,-37.677 -58.3111,-50.1409 -80.75,-54.25 2.42511,-7.1637 3.75,-14.8181 3.75,-22.75 0,-40.8821 -34.79255,-74 -77.71875,-74 z" style="opacity:0.99024389000000002;color:#000000;fill:#deaa87;fill-opacity:1;fill-rule:evenodd;stroke:#090907;stroke-width:2.87601754;stroke-opacity:1;marker:none;visibility:visible;display:inline;overflow:visible;enable-background:accumulate;stroke-miterlimit:4;stroke-dasharray:none"/>
      <path inkscape:connector-curvature="0" id="path7992" d="m -1137.5747,1309.5645 c 0,0 -29.6094,26.6485 -25.168,42.9337 4.4414,16.2852 28.129,-11.8438 28.129,-11.8438 0,0 -10.3633,44.4142 5.9218,32.5704 16.2852,-11.8438 8.8829,-60.6993 8.8829,-60.6993 z" style="color:#000000;fill:#ff6600;stroke:#000000;stroke-width:2.87601754;stroke-linecap:butt;stroke-linejoin:miter;stroke-miterlimit:4;stroke-opacity:1;stroke-dasharray:none;stroke-dashoffset:0;marker:none;visibility:visible;display:inline;overflow:visible;enable-background:accumulate"/>
      <path sodipodi:nodetypes="cscscscsc" inkscape:connector-curvature="0" id="path8000" d="m -898.98447,1384.7053 c 0,0 130.28148,-13.3243 109.55488,10.3633 -20.7266,23.6875 -79.94545,29.6094 -79.94545,29.6094 0,0 72.54309,5.9219 41.4532,25.168 -31.0899,19.2462 -77.72475,1.4804 -77.72475,1.4804 0,0 80.68569,11.8438 49.59579,39.9727 -31.0899,28.129 -94.75016,-22.207 -94.75016,-22.207 0,0 17.76565,38.4922 -5.92189,31.0899 -23.68754,-7.4024 -41.45315,-62.1798 -41.45315,-62.1798" style="color:#000000;fill:none;stroke:#000000;stroke-width:2.87601754;stroke-linecap:butt;stroke-linejoin:miter;stroke-miterlimit:4;stroke-opacity:1;stroke-dasharray:none;stroke-dashoffset:0;marker:none;visibility:visible;display:inline;overflow:visible;enable-background:accumulate"/>
      <path d="m 325.7037,458.69321 c 0,14.71755 -13.58801,26.64848 -30.34967,26.64848 -16.76165,0 -30.34966,-11.93093 -30.34966,-26.64848 0,-14.71755 13.58801,-26.64849 30.34966,-26.64849 16.76166,0 30.34967,11.93094 30.34967,26.64849 z" sodipodi:ry="26.648483" sodipodi:rx="30.349661" sodipodi:cy="458.69321" sodipodi:cx="295.35403" id="path8002" style="opacity:0.99024389000000002;color:#000000;fill:#ffffff;fill-opacity:1;fill-rule:evenodd;stroke:#090907;stroke-width:2.87601754;stroke-opacity:1;marker:none;visibility:visible;display:inline;overflow:visible;enable-background:accumulate;stroke-miterlimit:4;stroke-dasharray:none" sodipodi:type="arc" transform="translate(-1372.9696,799.05479)"/>
      <path transform="matrix(0.83333333,0,0,0.73913043,-1151.6392,907.64254)" d="m 84.386864,478.67957 c 0,9.40287 -5.965466,17.02541 -13.324242,17.02541 -7.358775,0 -13.324242,-7.62254 -13.324242,-17.02541 0,-9.40288 5.965467,-17.02542 13.324242,-17.02542 7.358776,0 13.324242,7.62254 13.324242,17.02542 z" sodipodi:ry="17.025419" sodipodi:rx="13.324242" sodipodi:cy="478.67957" sodipodi:cx="71.062622" id="path8004" style="opacity:0.99024389000000002;color:#000000;fill:#000000;fill-opacity:1;fill-rule:evenodd;stroke:none;stroke-width:3.66455812;marker:none;visibility:visible;display:inline;overflow:visible;enable-background:accumulate;stroke-miterlimit:4;stroke-dasharray:none" sodipodi:type="arc"/>
      <path sodipodi:type="arc" style="opacity:0.99024389000000002;color:#000000;fill:#ffffff;fill-opacity:1;fill-rule:evenodd;stroke:#090907;stroke-width:2.87601754;stroke-opacity:1;marker:none;visibility:visible;display:inline;overflow:visible;enable-background:accumulate;stroke-miterlimit:4;stroke-dasharray:none" id="path8441" sodipodi:cx="295.35403" sodipodi:cy="458.69321" sodipodi:rx="30.349661" sodipodi:ry="26.648483" d="m 325.7037,458.69321 c 0,14.71755 -13.58801,26.64848 -30.34967,26.64848 -16.76165,0 -30.34966,-11.93093 -30.34966,-26.64848 0,-14.71755 13.58801,-26.64849 30.34966,-26.64849 16.76166,0 30.34967,11.93094 30.34967,26.64849 z" transform="translate(-1372.9696,799.05479)"/>
      <path sodipodi:type="arc" style="opacity:0.99024389000000002;color:#000000;fill:#000000;fill-opacity:1;fill-rule:evenodd;stroke:none;stroke-width:3.66455812;marker:none;visibility:visible;display:inline;overflow:visible;enable-background:accumulate;stroke-miterlimit:4;stroke-dasharray:none" id="path8443" sodipodi:cx="71.062622" sodipodi:cy="478.67957" sodipodi:rx="13.324242" sodipodi:ry="17.025419" d="m 84.386864,478.67957 c 0,9.40287 -5.965466,17.02541 -13.324242,17.02541 -7.358775,0 -13.324242,-7.62254 -13.324242,-17.02541 0,-9.40288 5.965467,-17.02542 13.324242,-17.02542 7.358776,0 13.324242,7.62254 13.324242,17.02542 z" transform="matrix(0.83333333,0,0,0.73913043,-1151.6392,907.64254)"/>
    </g>
    <g id="g9173" transform="matrix(0.39722322,0,0,0.39722322,5.7859429,-199.07508)" style="stroke-width:5.03495239;stroke-miterlimit:4;stroke-dasharray:none">
      <path sodipodi:nodetypes="sscccscsscss" inkscape:connector-curvature="0" id="path9130" d="m 356.93556,1142.2651 c -49.18278,0 -89.06433,43.7012 -89.06433,97.5679 0,10.3015 1.50445,20.2176 4.20707,29.539 -23.09512,22.243 -38.79924,55.2561 -41.84681,92.7343 l -79.39704,-6.8924 c 4.41023,6.8542 15.87361,14.2366 24.74785,33.0944 18.17756,38.6273 63.99659,64.3401 93.36308,90.1634 18.61351,18.2908 45.18565,32.7614 73.13121,32.7614 62.06398,0 112.38217,-60.7548 112.38217,-135.7 0,-30.9342 -8.57285,-59.4816 -23.00456,-82.3062 9.18758,-15.3441 14.54569,-33.6738 14.54569,-53.3939 0,-53.8667 -39.88156,-97.5679 -89.06433,-97.5679 z" style="opacity:0.99024389000000002;color:#000000;fill:#ffff00;fill-opacity:1;fill-rule:evenodd;stroke:#090907;stroke-width:5.03495239;stroke-opacity:1;marker:none;visibility:visible;display:inline;overflow:visible;enable-background:accumulate;stroke-miterlimit:4;stroke-dasharray:none"/>
      <path sodipodi:nodetypes="cccccccc" inkscape:connector-curvature="0" id="path9137" d="m 411.00392,1481.53 c -2.82709,21.2032 -8.83466,33.925 -11.66174,55.1282 26.85735,0 54.77485,-6.3609 80.57202,0 -8.12788,21.2031 -39.57924,16.9626 -59.36887,25.4439 16.69538,-7.8347 66.62207,33.4221 33.60749,35.2135 -40.15901,-26.9089 -50.4589,-40.2613 -97.21696,-40.5143 1.41354,-15.549 34.63182,-13.0754 25.44379,-55.1283 18.0227,-12.0151 12.72188,-7.0678 28.62427,-20.143 z" style="color:#000000;fill:#ffcc00;stroke:#000000;stroke-width:5.03495239;stroke-linecap:butt;stroke-linejoin:miter;stroke-miterlimit:4;stroke-opacity:1;stroke-dasharray:none;stroke-dashoffset:0;marker:none;visibility:visible;display:inline;overflow:visible;enable-background:accumulate"/>
      <path style="color:#000000;fill:#ffcc00;stroke:#000000;stroke-width:5.03495239;stroke-linecap:butt;stroke-linejoin:miter;stroke-miterlimit:4;stroke-opacity:1;stroke-dasharray:none;stroke-dashoffset:0;marker:none;visibility:visible;display:inline;overflow:visible;enable-background:accumulate" d="m 309.68102,1505.7474 c -13.42865,18.0227 -29.24269,15.3722 -37.37057,35.5153 26.85735,0 58.48539,-16.9626 84.28257,-10.6017 -8.12787,21.2032 -24.20695,16.9626 -43.99656,25.4439 17.73051,5.6231 28.40897,8.6002 44.80353,17.6007 -14.31548,34.2545 -73.34924,-15.4314 -108.41302,-16.5406 1.41356,-15.549 20.31969,-27.6524 28.62428,-68.9102 12.7219,7.5977 -3.82311,-2.3532 32.06977,17.4926 z" id="path9143" inkscape:connector-curvature="0" sodipodi:nodetypes="cccccccc"/>
      <path sodipodi:nodetypes="ccccc" inkscape:connector-curvature="0" id="path9145" d="m 315.81537,1234.3565 c -24.25004,-2.5116 -26.59058,-18.8113 -32.86979,-40.835 -1.64189,-6.1122 -2.85035,-12.3375 -3.68956,-18.6092 22.63121,-8.4276 54.92478,-3.953 67.09936,11.4774 7.55688,29.5862 -2.51506,45.5087 -30.54001,47.9668 z" style="color:#000000;fill:#ffcc00;stroke:#000000;stroke-width:5.03495239;stroke-linecap:butt;stroke-linejoin:miter;stroke-miterlimit:4;stroke-opacity:1;stroke-dasharray:none;stroke-dashoffset:0;marker:none;visibility:visible;display:inline;overflow:visible;enable-background:accumulate"/>
      <path transform="matrix(2.6690815,0,0,1.4321901,31.852801,190.61955)" d="m 137.68384,689.64673 c 0,7.76759 -3.64557,14.06448 -8.1426,14.06448 -4.49703,0 -8.14259,-6.29689 -8.14259,-14.06448 0,-7.7676 3.64556,-14.06448 8.14259,-14.06448 4.49703,0 8.1426,6.29688 8.1426,14.06448 z" sodipodi:ry="14.064477" sodipodi:rx="8.1425924" sodipodi:cy="689.64673" sodipodi:cx="129.54124" id="path9153" style="opacity:0.99024389000000002;color:#000000;fill:#ffffff;fill-opacity:1;fill-rule:evenodd;stroke:#090907;stroke-width:2.5752187;stroke-miterlimit:4;stroke-opacity:1;stroke-dasharray:none;marker:none;visibility:visible;display:inline;overflow:visible;enable-background:accumulate" sodipodi:type="arc"/>
      <path transform="matrix(1.4321901,0,0,1.4321901,187.31055,190.61955)" d="m 141.38501,694.45825 c 0,3.8838 -2.98274,7.03224 -6.66212,7.03224 -3.67939,0 -6.66213,-3.14844 -6.66213,-7.03224 0,-3.8838 2.98274,-7.03224 6.66213,-7.03224 3.67938,0 6.66212,3.14844 6.66212,7.03224 z" sodipodi:ry="7.0322385" sodipodi:rx="6.6621208" sodipodi:cy="694.45825" sodipodi:cx="134.72289" id="path9155" style="opacity:0.99024389000000002;color:#000000;fill:#000000;fill-opacity:1;fill-rule:evenodd;stroke:none;stroke-width:3.51556151;marker:none;visibility:visible;display:inline;overflow:visible;enable-background:accumulate;stroke-miterlimit:4;stroke-dasharray:none" sodipodi:type="arc"/>
      <path sodipodi:nodetypes="cscssc" inkscape:connector-curvature="0" id="path9157" d="m 268.43851,1273.3283 c 0,0 -79.98243,100.1659 -88.74387,123.7131 -9.1265,24.5284 14.56877,45.1401 14.56877,45.1401 0,0 48.17664,-15.3192 52.32986,-41.337 4.95334,-31.03 19.52962,78.0377 45.25909,12.7296 25.72949,-65.3081 30.51183,-73.358 30.51183,-73.358" style="color:#000000;fill:#ffff00;stroke:#000000;stroke-width:5.03495239;stroke-linecap:butt;stroke-linejoin:miter;stroke-miterlimit:4;stroke-opacity:1;stroke-dasharray:none;stroke-dashoffset:0;marker:none;visibility:visible;display:inline;overflow:visible;enable-background:accumulate"/>
    </g>
    <g id="g9163" transform="matrix(0.38265846,0,0,0.43944972,654.43418,-236.51152)" style="stroke-width:4.87719073;stroke-miterlimit:4;stroke-dasharray:none">
      <g transform="matrix(0.85240769,0,0,0.85240769,-325.28537,28.940524)" id="g9110" style="stroke-width:5.7216644;stroke-miterlimit:4;stroke-dasharray:none">
        <path style="opacity:0.99024389000000002;color:#000000;fill:#ffff00;fill-opacity:1;fill-rule:evenodd;stroke:#090907;stroke-width:5.7216644;stroke-opacity:1;marker:none;visibility:visible;display:inline;overflow:visible;enable-background:accumulate;stroke-miterlimit:4;stroke-dasharray:none" d="m 345.46875,1420.8438 c -61.28496,0 -110.96875,48.7463 -110.96875,108.875 0,0.7203 0.0171,1.4392 0.0312,2.1562 -28.63064,4.5472 -57.48795,-23.7861 -84.49998,-30.5392 0,0 -76.749349,-14.0322 -124.90627,-55.367 0,0 -10.401492,52.9958 29.3125,163.3124 37.686646,104.6852 92.1268,71.1873 171.6875,54.4376 48.92804,-10.3007 66.15379,-25.3429 72.1875,-35.4063 14.30774,6.5971 30.30084,10.2813 47.15625,10.2813 61.28496,0 110.96875,-48.7464 110.96875,-108.875 0,-60.1287 -49.68379,-108.875 -110.96875,-108.875 z" id="path9060" inkscape:connector-curvature="0" sodipodi:nodetypes="cscccsscsssc"/>
        <path style="color:#000000;fill:#ffcc00;stroke:#000000;stroke-width:5.7216644;stroke-linecap:butt;stroke-linejoin:miter;stroke-miterlimit:4;stroke-opacity:1;stroke-dasharray:none;stroke-dashoffset:0;marker:none;visibility:visible;display:inline;overflow:visible;enable-background:accumulate" d="m 162.08092,1678.9117 c -12.37148,3.5398 -30.89673,-2.1357 -39.80815,4.9286 -0.61993,15.4926 -10.82347,35.9664 -2.22389,50.3299 7.15064,11.6239 8.90316,26.0045 17.46659,36.6983 4.95544,10.2776 25.12195,13.5931 20.34551,-2.29 -5.41397,-11.2169 -10.75544,-22.9679 -20.04346,-31.6722 7.94686,8.1727 19.19084,27.5898 32.0415,16.636 5.70317,-10.7098 -6.16137,-19.8132 -14.61441,-24.1736 -11.48379,-6.9367 9.67027,4.4816 13.97234,6.2694 10.5836,5.0132 21.62195,9.3875 33.24869,11.2071 10.48689,-6.8898 -3.0648,-19.2644 -10.671,-22.308 -16.50482,-7.9095 -37.68656,-1.0775 -52.28465,-13.5847 -7.73561,-13.5557 11.52241,-18.1563 18.67947,-25.0448 1.86905,-1.9398 3.31702,-4.3424 3.89146,-6.996 z" id="path9077" inkscape:connector-curvature="0" sodipodi:nodetypes="cccccccccccccc"/>
        <path style="color:#000000;fill:#ffcc00;stroke:#000000;stroke-width:5.7216644;stroke-linecap:butt;stroke-linejoin:miter;stroke-miterlimit:4;stroke-opacity:1;stroke-dasharray:none;stroke-dashoffset:0;marker:none;visibility:visible;display:inline;overflow:visible;enable-background:accumulate" d="m 229.59144,1663.3598 c -7.39341,3.0584 -20.52808,3.7835 -25.71428,8.3046 2.85249,25.9432 7.92068,51.8869 10.77614,77.8298 4.77105,9.3461 15.73545,12.7313 24.6362,16.9013 11.94611,4.8136 24.63927,8.5361 37.53675,8.9803 10.28247,-4.6821 -5.15347,-12.8623 -9.61404,-16.4662 -10.06977,-6.2191 -21.5165,-10.5905 -33.17306,-12.3607 6.85842,2.9334 14.81392,4.0475 22.248,5.5383 9.21076,1.0899 19.3868,2.6099 28.03244,-1.5685 7.43608,-3.503 6.05699,-14.3282 -0.98249,-17.4569 -8.49706,-4.9409 -18.41326,-6.6624 -28.05547,-7.764 16.87832,1.3133 34.01113,2.9512 50.82951,0.4219 11.38882,-5.4978 -5.94188,-12.9692 -11.81668,-14.4902 -20.66567,-5.4044 -42.33686,0.2621 -61.78563,7.632 -8.19946,5.2794 -2.52631,-9.6554 -3.92784,-14.3107 0.33678,-13.7304 0.67353,-27.4607 1.01045,-41.191 z" id="path9082" inkscape:connector-curvature="0" sodipodi:nodetypes="cccccccccccccccc"/>
        <path sodipodi:type="arc" style="opacity:0.99024389000000002;color:#000000;fill:#ffffff;fill-opacity:1;fill-rule:evenodd;stroke:#090907;stroke-width:5.7216644;stroke-opacity:1;marker:none;visibility:visible;display:inline;overflow:visible;enable-background:accumulate;stroke-miterlimit:4;stroke-dasharray:none" id="path9095" sodipodi:cx="399.72723" sodipodi:cy="1555.7224" sodipodi:rx="38.492252" sodipodi:ry="41.453197" d="m 438.21949,1555.7224 c 0,22.894 -17.23357,41.4532 -38.49226,41.4532 -21.25868,0 -38.49225,-18.5592 -38.49225,-41.4532 0,-22.894 17.23357,-41.4532 38.49225,-41.4532 21.25869,0 38.49226,18.5592 38.49226,41.4532 z"/>
        <path sodipodi:type="arc" style="opacity:0.99024389000000002;color:#000000;fill:#000000;fill-opacity:1;fill-rule:evenodd;stroke:none;stroke-width:5.7216644;marker:none;visibility:visible;display:inline;overflow:visible;enable-background:accumulate;stroke-miterlimit:4;stroke-dasharray:none" id="path9097" sodipodi:cx="401.2077" sodipodi:cy="1573.488" sodipodi:rx="13.324242" sodipodi:ry="14.804713" d="m 414.53194,1573.488 c 0,8.1765 -5.96546,14.8048 -13.32424,14.8048 -7.35877,0 -13.32424,-6.6283 -13.32424,-14.8048 0,-8.1764 5.96547,-14.8047 13.32424,-14.8047 7.35878,0 13.32424,6.6283 13.32424,14.8047 z"/>
        <path inkscape:connector-curvature="0" style="color:#000000;fill:#ffcc00;stroke:#000000;stroke-width:5.7216644;stroke-linecap:butt;stroke-linejoin:miter;stroke-miterlimit:4;stroke-opacity:1;stroke-dasharray:none;stroke-dashoffset:0;marker:none;visibility:visible;display:inline;overflow:visible;enable-background:accumulate" d="m 407.5,1620 95.875,18.625 -51.4375,-78.375 c -0.18082,0.6078 -0.30872,1.2404 -0.5,1.8438 -1.08079,3.4091 -2.31489,6.7436 -3.71875,10 -1.40386,3.2563 -2.97916,6.4458 -4.6875,9.5312 -1.70834,3.0854 -3.53703,6.0726 -5.53125,8.9688 -1.99422,2.8961 -4.14475,5.6864 -6.40625,8.375 -2.2615,2.6885 -4.64605,5.2871 -7.15625,7.75 -2.5102,2.4628 -5.13471,4.7811 -7.875,7 -2.74029,2.2188 -5.61071,4.3246 -8.5625,6.2812 z" id="path9108"/>
      </g>
      <path inkscape:connector-curvature="0" id="path9161" d="m -153.10177,1372.8316 c 0,0 5.05465,43.7266 -68.96892,55.5703 -74.02356,11.8438 -90.68074,-12.8906 -90.68074,-12.8906 0,0 21.92225,-35.8906 31.67232,-30.6563 10.43514,5.602 -67.80059,-41.3469 -32.7808,-39.3595 34.91968,1.9817 -5.92191,-44.414 29.60943,-32.5703 20.45757,6.8192 65.02119,18.317 95.59754,33.063 22.52954,10.8652 35.55117,26.8434 35.55117,26.8434 z" style="color:#000000;fill:#ffff00;stroke:#000000;stroke-width:4.87719073;stroke-linecap:butt;stroke-linejoin:miter;stroke-miterlimit:4;stroke-opacity:1;stroke-dasharray:none;stroke-dashoffset:0;marker:none;visibility:visible;display:inline;overflow:visible;enable-background:accumulate" sodipodi:nodetypes="cscssssc"/>
    </g>
    <g id="g9118" transform="matrix(0.38320628,0,0,0.38320628,409.75405,-149.23922)" style="stroke-width:5.21912115;stroke-miterlimit:4;stroke-dasharray:none">
      <path inkscape:connector-curvature="0" id="path8470" d="m -418.71229,1420.5545 c -4.78628,19.8906 -8.60079,40.1056 -9.63356,60.573 -12.6902,5.7393 -26.01376,11.1808 -36.34562,20.7671 -4.24816,7.1873 6.64343,11.0124 12.0261,8.2082 9.09978,-1.9435 16.52726,-7.8763 24.16745,-12.8197 1.86589,4.2728 1.28254,9.2932 3.86169,13.3406 2.84975,5.4561 8.23203,9.982 14.37273,10.9702 7.39884,-1.3826 4.79945,-11.0009 5.04433,-16.4594 2.49047,-2.3011 6.29966,4.3788 9.37417,5.3328 7.90767,5.6038 16.14698,11.4735 25.54864,14.0753 7.5771,-1.2502 3.7972,-10.9895 1.01483,-15.2521 -6.78766,-12.8138 -19.5896,-21.0559 -32.59629,-26.5821 -4.92397,-0.5025 -2.88109,-6.5228 -3.2461,-9.8608 0,-12.9014 0,-25.803 0,-38.7046 -4.52945,-4.5296 -9.05892,-9.0589 -13.58837,-13.5885 z" style="color:#000000;fill:#ffcc00;stroke:#000000;stroke-width:5.21912115;stroke-linecap:butt;stroke-linejoin:miter;stroke-miterlimit:4;stroke-opacity:1;stroke-dasharray:none;stroke-dashoffset:0;marker:none;visibility:visible;display:inline;overflow:visible;enable-background:accumulate"/>
      <path inkscape:connector-curvature="0" id="path8475" d="m -303.20809,1426.0428 c -4.78452,19.8846 -8.60241,40.1115 -9.63354,60.5731 -11.81813,5.3273 -24.0848,10.4142 -34.12623,18.7927 -5.83796,3.3491 -3.26884,11.0441 3.37029,10.708 9.71152,0.5439 18.31725,-5.149 26.08522,-10.2872 2.3797,-1.32 5.88359,-5.8563 5.34778,-0.559 0.90294,7.0566 3.40827,14.5773 9.85546,18.4528 3.11771,2.6271 9.68093,5.8569 11.84955,0.513 1.66045,-4.8764 0.52979,-10.1201 0.83987,-15.1758 10.08637,7.4514 20.09161,15.5329 31.88888,20.1123 6.50854,3.6312 9.37782,-4.0015 6.33269,-8.8791 -5.39311,-15.7998 -20.24521,-25.8545 -34.9755,-32.0971 -3.4338,-0.2433 -3.53704,-2.6907 -3.24607,-5.4392 0,-14.3754 0,-28.7508 0,-43.1262 -4.52948,-4.5294 -9.05893,-9.0589 -13.5884,-13.5883 z" style="color:#000000;fill:#ffcc00;stroke:#000000;stroke-width:5.21912115;stroke-linecap:butt;stroke-linejoin:miter;stroke-miterlimit:4;stroke-opacity:1;stroke-dasharray:none;stroke-dashoffset:0;marker:none;visibility:visible;display:inline;overflow:visible;enable-background:accumulate"/>
      <path inkscape:connector-curvature="0" id="path8576" d="m -388.12445,1121.2892 c -45.44857,0 -82.33593,41.6574 -82.33593,93.0342 0,10.5383 1.61248,20.619 4.46911,30.0634 -19.14527,23.5236 -30.53753,53.1528 -30.53753,85.383 0,76.4372 64.19386,138.4002 143.41077,138.4002 79.21692,0 143.41077,-61.963 143.41077,-138.4002 0,-60.867 -40.71186,-112.5545 -97.29983,-131.0874 -6.58319,-43.9245 -40.38707,-77.3932 -81.11736,-77.3932 z" style="opacity:0.99024389000000002;color:#000000;fill:#ffff00;fill-opacity:1;fill-rule:evenodd;stroke:#090907;stroke-width:5.21912115;stroke-miterlimit:4;stroke-opacity:1;stroke-dasharray:none;marker:none;visibility:visible;display:inline;overflow:visible;enable-background:accumulate"/>
      <g transform="matrix(1.6180644,0,0,1.6180644,-812.07226,891.82544)" id="g8460" style="stroke-width:3.22553364;stroke-miterlimit:4;stroke-dasharray:none">
        <path d="m 325.7037,458.69321 c 0,14.71755 -13.58801,26.64848 -30.34967,26.64848 -16.76165,0 -30.34966,-11.93093 -30.34966,-26.64848 0,-14.71755 13.58801,-26.64849 30.34966,-26.64849 16.76166,0 30.34967,11.93094 30.34967,26.64849 z" sodipodi:ry="26.648483" sodipodi:rx="30.349661" sodipodi:cy="458.69321" sodipodi:cx="295.35403" id="path8456" style="opacity:0.99024389000000002;color:#000000;fill:#ffffff;fill-opacity:1;fill-rule:evenodd;stroke:#090907;stroke-width:4.84261622;stroke-opacity:1;marker:none;visibility:visible;display:inline;overflow:visible;enable-background:accumulate;stroke-miterlimit:4;stroke-dasharray:none" sodipodi:type="arc" transform="matrix(0.66607253,0,0,0.66607253,79.275484,-119.58622)"/>
        <path transform="matrix(0.55506044,0,0,0.49231448,226.69762,-47.2589)" d="m 84.386864,478.67957 c 0,9.40287 -5.965466,17.02541 -13.324242,17.02541 -7.358775,0 -13.324242,-7.62254 -13.324242,-17.02541 0,-9.40288 5.965467,-17.02542 13.324242,-17.02542 7.358776,0 13.324242,7.62254 13.324242,17.02542 z" sodipodi:ry="17.025419" sodipodi:rx="13.324242" sodipodi:cy="478.67957" sodipodi:cx="71.062622" id="path8458" style="opacity:0.99024389000000002;color:#000000;fill:#000000;fill-opacity:1;fill-rule:evenodd;stroke:none;stroke-width:6.17035474;marker:none;visibility:visible;display:inline;overflow:visible;enable-background:accumulate;stroke-miterlimit:4;stroke-dasharray:none" sodipodi:type="arc"/>
      </g>
      <g id="g8464" transform="matrix(1.6180644,0,0,1.6180644,-881.90678,901.42018)" style="stroke-width:3.22553364;stroke-miterlimit:4;stroke-dasharray:none">
        <path transform="matrix(0.66607253,0,0,0.66607253,79.275484,-119.58622)" sodipodi:type="arc" style="opacity:0.99024389000000002;color:#000000;fill:#ffffff;fill-opacity:1;fill-rule:evenodd;stroke:#090907;stroke-width:4.84261622;stroke-opacity:1;marker:none;visibility:visible;display:inline;overflow:visible;enable-background:accumulate;stroke-miterlimit:4;stroke-dasharray:none" id="path8466" sodipodi:cx="295.35403" sodipodi:cy="458.69321" sodipodi:rx="30.349661" sodipodi:ry="26.648483" d="m 325.7037,458.69321 c 0,14.71755 -13.58801,26.64848 -30.34967,26.64848 -16.76165,0 -30.34966,-11.93093 -30.34966,-26.64848 0,-14.71755 13.58801,-26.64849 30.34966,-26.64849 16.76166,0 30.34967,11.93094 30.34967,26.64849 z"/>
        <path sodipodi:type="arc" style="opacity:0.99024389000000002;color:#000000;fill:#000000;fill-opacity:1;fill-rule:evenodd;stroke:none;stroke-width:6.17035474;marker:none;visibility:visible;display:inline;overflow:visible;enable-background:accumulate;stroke-miterlimit:4;stroke-dasharray:none" id="path8468" sodipodi:cx="71.062622" sodipodi:cy="478.67957" sodipodi:rx="13.324242" sodipodi:ry="17.025419" d="m 84.386864,478.67957 c 0,9.40287 -5.965466,17.02541 -13.324242,17.02541 -7.358775,0 -13.324242,-7.62254 -13.324242,-17.02541 0,-9.40288 5.965467,-17.02542 13.324242,-17.02542 7.358776,0 13.324242,7.62254 13.324242,17.02542 z" transform="matrix(0.55506044,0,0,0.49231448,226.69762,-47.2589)"/>
      </g>
      <path inkscape:transform-center-y="158.52694" inkscape:transform-center-x="81.6544" sodipodi:nodetypes="ccscc" inkscape:connector-curvature="0" id="path8477" d="m -388.07236,1244.7991 c -18.60346,7.8718 -23.91872,28.339 -23.91872,28.339 0,0 34.54928,33.0622 34.54928,26.7646 0,-6.2976 29.234,-23.6159 29.234,-23.6159 -9.26485,-14.7137 -22.82248,-37.6817 -39.86456,-31.4877 z" style="color:#000000;fill:#ffcc00;stroke:#000000;stroke-width:5.21912115;stroke-linecap:butt;stroke-linejoin:miter;stroke-miterlimit:4;stroke-opacity:1;stroke-dasharray:none;stroke-dashoffset:0;marker:none;visibility:visible;display:inline;overflow:visible;enable-background:accumulate"/>
    </g>
    <path style="color:#000000;fill:#ffff00;stroke:#000000;stroke-width:2;stroke-linecap:butt;stroke-linejoin:miter;stroke-miterlimit:4;stroke-opacity:1;stroke-dasharray:none;stroke-dashoffset:0;marker:none;visibility:visible;display:inline;overflow:visible;enable-background:accumulate" d="m 234.34626,336.90966 c 0,0 -26.83448,-16.95074 -36.17627,-3.3012 -9.3418,13.64957 16.61567,14.86169 16.61567,14.86169 0,0 -21.36691,-7.64389 -23.79486,8.23806 -2.42794,15.88194 24.97584,10.01946 24.97584,10.01946 0,0 -35.44253,9.13257 -20.38153,19.5818 15.06099,10.44923 43.92851,-6.57877 43.92851,-6.57877" id="path9186" inkscape:connector-curvature="0" inkscape:transform-center-x="-16.74962" inkscape:transform-center-y="31.405538"/>
    <path inkscape:connector-curvature="0" id="path9188" d="m 303.6447,321.17471 c 0,0 22.5713,-22.3149 34.62482,-10.98828 12.05354,11.32662 -13.03895,18.08136 -13.03895,18.08136 0,0 19.22854,-12.05146 25.00843,2.93934 5.77989,14.9908 -22.24352,15.14623 -22.24352,15.14623 0,0 36.57665,1.31321 24.10918,14.7513 -12.46748,13.43808 -44.31683,3.00226 -44.31683,3.00226" style="color:#000000;fill:#ffff00;stroke:#000000;stroke-width:2;stroke-linecap:butt;stroke-linejoin:miter;stroke-miterlimit:4;stroke-opacity:1;stroke-dasharray:none;stroke-dashoffset:0;marker:none;visibility:visible;display:inline;overflow:visible;enable-background:accumulate"/>
  </g>
  <metadata>
    <rdf:RDF>
      <cc:Work>
        <dc:format>image/svg+xml</dc:format>
        <dc:type rdf:resource="http://purl.org/dc/dcmitype/StillImage"/>
        <cc:license rdf:resource="http://creativecommons.org/licenses/publicdomain/"/>
        <dc:publisher>
          <cc:Agent rdf:about="http://openclipart.org/">
            <dc:title>Open Clip Art Library</dc:title>
          </cc:Agent>
        </dc:publisher>
        <dc:title>Hen with three chicken</dc:title>
        <dc:date>2010-11-23T12:43:19</dc:date>
        <dc:description/>
        <dc:source>http://openclipart.org/detail/97903/hen-with-three-chicken-by-salvor</dc:source>
        <dc:creator>
          <cc:Agent>
            <dc:title>salvor</dc:title>
          </cc:Agent>
        </dc:creator>
        <dc:subject>
          <rdf:Bag>
            <rdf:li>animal</rdf:li>
            <rdf:li>bird</rdf:li>
            <rdf:li>chicken</rdf:li>
            <rdf:li>clip art</rdf:li>
            <rdf:li>clipart</rdf:li>
            <rdf:li>farm</rdf:li>
            <rdf:li>hen</rdf:li>
            <rdf:li>poultry</rdf:li>
          </rdf:Bag>
        </dc:subject>
      </cc:Work>
      <cc:License rdf:about="http://creativecommons.org/licenses/publicdomain/">
        <cc:permits rdf:resource="http://creativecommons.org/ns#Reproduction"/>
        <cc:permits rdf:resource="http://creativecommons.org/ns#Distribution"/>
        <cc:permits rdf:resource="http://creativecommons.org/ns#DerivativeWorks"/>
      </cc:License>
    </rdf:RDF>
  </metadata>
</svg>