<?xml version="1.0" encoding="windows-1252"?>
<!-- Generator: Adobe Illustrator 16.0.0, SVG Export Plug-In . SVG Version: 6.00 Build 0)  -->
<!DOCTYPE svg PUBLIC "-//W3C//DTD SVG 1.1//EN" "http://www.w3.org/Graphics/SVG/1.1/DTD/svg11.dtd">
<svg version="1.1" id="Capa_1" xmlns="http://www.w3.org/2000/svg" xmlns:xlink="http://www.w3.org/1999/xlink" x="0px" y="0px" width="349.761px" height="349.761px" viewBox="0 0 349.761 349.761" style="enable-background:new 0 0 349.761 349.761;" xml:space="preserve">
<g>
	<g>
		<path d="M174.875,74.159c53.249,0,65.281-38.069,65.769-39.684c1.669-5.562-1.485-11.417-7.039-13.082    c-5.541-1.678-11.411,1.485-13.079,7.042c-0.073,0.25-7.843,24.722-45.645,24.722c-36.925,0-45.273-23.583-45.687-24.822    c-1.714-5.486-7.532-8.613-13.043-6.941c-5.556,1.665-8.705,7.526-7.039,13.082C109.59,36.099,121.619,74.159,174.875,74.159z"/>
		<path d="M323.858,189.332c-5.061,0-9.762,1.468-13.75,3.977c0.024-0.188,0.024-0.292,0.024-0.292    c-55.812-20.305-51.13-81.61-44.322-113.81c2.393-11.348-0.512-23.812-7.886-28.196l-13.359-7.925    c-6.698,12.678-25.088,36.517-68.494,36.517c-43.416,0-61.796-23.839-68.5-36.517c0,0-5.979,3.556-13.356,7.925    c-7.377,4.385-10.282,16.855-7.895,28.202c6.692,31.764,11.292,91.821-42.174,112.921c-4.676-4.646-11.125-7.515-18.246-7.515    c-14.303,0-25.9,11.588-25.9,25.897c0,13.293,10.008,24.223,22.89,25.708c-1.535,3.312-2.415,6.979-2.415,10.863    c0,14.31,11.6,25.909,25.903,25.909c3.678,0,7.17-0.773,10.336-2.155c-1.708,6.99-0.542,14.656,3.912,21.02    c7.618,10.882,22.085,14.108,33.493,7.946c0.643,3.587,2.022,7.094,4.253,10.278c8.205,11.722,24.357,14.571,36.078,6.37    c1.148-0.805,2.183-1.693,3.154-2.644c0.63,1.353,1.367,2.68,2.25,3.946c8.202,11.728,24.351,14.577,36.078,6.381    c2.333-1.632,4.29-3.586,5.901-5.742c8.336,11.174,24.076,13.786,35.572,5.742c1.376-0.955,2.618-2.039,3.745-3.209    c11.588,7.148,26.871,4.11,34.781-7.185c2.223-3.173,3.604-6.674,4.256-10.248c10.809,4.079,23.419,0.542,30.349-9.365    c3.787-5.401,5.188-11.746,4.481-17.817c2.631,0.896,5.432,1.407,8.367,1.407c14.297,0,25.903-11.601,25.903-25.903    c0-3.885-0.883-7.557-2.418-10.857c12.879-1.492,22.889-12.428,22.889-25.715C349.755,200.933,338.155,189.332,323.858,189.332z     M196.455,174.283l-1.724,24.871c-1.193,17.073-9.676,19.26-18.953,4.853l-13.494-20.953c-6.503-10.099-6.271-20.337-0.518-26.865    c-5.867-1.458-18.538-5.48-14.964-12.315c2.649-5.069,9.676-3.623,15.171-1.477c-1.516-5.319-2.003-11.423,2.755-13.588    c5.17-2.344,8.33,4.028,10.102,9.922c3.76-4.366,9.015-8.601,13.609-5.544c5.876,3.909-1.297,12.291-5.958,16.836    C191.534,152.386,197.338,161.596,196.455,174.283z"/>
		<circle cx="169.687" cy="169.62" r="4.291"/>
		<path d="M182.937,161.039c2.369,0,4.293,1.921,4.293,4.29c0,2.371-1.924,4.29-4.293,4.29c-2.368,0-4.29-1.918-4.29-4.29    C178.647,162.96,180.568,161.039,182.937,161.039z"/>
	</g>
</g>
<g>
</g>
<g>
</g>
<g>
</g>
<g>
</g>
<g>
</g>
<g>
</g>
<g>
</g>
<g>
</g>
<g>
</g>
<g>
</g>
<g>
</g>
<g>
</g>
<g>
</g>
<g>
</g>
<g>
</g>
</svg>