<?xml version="1.0" encoding="UTF-8" standalone="no"?>
<!-- Created with Inkscape (http://www.inkscape.org/) -->

<svg
   xmlns:dc="http://purl.org/dc/elements/1.1/"
   xmlns:cc="http://creativecommons.org/ns#"
   xmlns:rdf="http://www.w3.org/1999/02/22-rdf-syntax-ns#"
   xmlns:svg="http://www.w3.org/2000/svg"
   xmlns="http://www.w3.org/2000/svg"
   xmlns:xlink="http://www.w3.org/1999/xlink"
   xmlns:sodipodi="http://sodipodi.sourceforge.net/DTD/sodipodi-0.dtd"
   xmlns:inkscape="http://www.inkscape.org/namespaces/inkscape"
   doof="http://sample.com/ns"
   viewBox="0 0 3200 800"
   sodipodi:docname="egs.svg"
   inkscape:version="0.91 r"
   version="1.1"
   id="svg2"
   height="800"
   width="3200">
  <sodipodi:namedview
     inkscape:window-maximized="1"
     inkscape:window-y="0"
     inkscape:window-x="0"
     inkscape:window-height="1058"
     inkscape:window-width="2560"
     showgrid="false"
     inkscape:current-layer="layer1"
     inkscape:document-units="px"
     inkscape:cy="327.01675"
     inkscape:cx="1568.526"
     inkscape:zoom="0.58424698"
     inkscape:pageshadow="2"
     inkscape:pageopacity="0.0"
     borderopacity="1.0"
     bordercolor="#666666"
     pagecolor="#ffffff"
     id="base" />
  <defs
     id="defs4">
    <pattern
       patternTransform="matrix(0.98212014,0,0,1.0000414,1.9869761,79.991066)"
       id="pattern3945"
       xlink:href="#Voronoi3878"
       inkscape:collect="always" />
    <pattern
       patternTransform="matrix(0.97850036,0,0,1.000049,2.5769985,73.435563)"
       id="pattern3943"
       xlink:href="#Voronoi7274"
       inkscape:collect="always" />
    <pattern
       patternTransform="matrix(0.98578856,0,0,1.0000324,-1.4893558,69.345584)"
       id="pattern3941"
       xlink:href="#Voronoi4095"
       inkscape:collect="always" />
    <pattern
       patternUnits="userSpaceOnUse"
       patternTransform="translate(-229.03404,130.42133)"
       height="559.73224"
       width="3532.1982"
       id="Voronoi796">
      <path
         id="path3691"
         style="stroke:#000000"
         d="M 2914.660,2.464 2914.920,0.000 M 2897.025,16.878 2914.660,2.464 M 1128.208,0.000 1132.016,10.086 M 994.562,22.682 997.996,0.000 M 2258.192,0.000 2263.254,14.280 M 2897.025,16.878 2921.921,41.960 M 3437.263,0.000 3438.600,24.599 M 3438.600,24.599 3494.785,30.936 M 2921.921,41.960 2935.909,41.004 M 2914.660,2.464 2935.909,41.004 M 1723.039,9.768 1730.108,0.000 M 3432.805,32.563 3438.600,24.599 M 1654.312,46.112 1689.848,43.542 M 1689.848,43.542 1723.039,9.768 M 2847.752,0.000 2897.025,16.878 M 1596.910,28.503 1598.856,0.000 M 1596.910,28.503 1654.312,46.112 M 1446.661,0.000 1446.769,4.075 M 1987.896,37.675 1995.785,0.000 M 1987.896,37.675 2039.484,58.246 M 2553.554,0.000 2554.359,1.155 M 994.562,22.682 1057.852,42.899 M 1057.852,42.899 1067.666,0.000 M 2169.737,0.000 2249.623,58.307 M 2249.623,58.307 2263.254,14.280 M 1251.685,47.346 1287.256,0.000 M 1132.016,10.086 1168.547,55.939 M 2935.909,41.004 2962.764,45.175 M 2039.484,58.246 2118.026,26.736 M 2118.026,26.736 2124.531,0.000 M 952.059,49.908 994.562,22.682 M 952.059,49.908 997.260,71.910 M 1446.769,4.075 1471.174,30.490 M 3432.805,32.563 3463.394,80.794 M 3028.616,0.000 3069.377,75.119 M 941.463,49.919 952.059,49.908 M 2962.764,45.175 3008.246,23.752 M 3008.246,23.752 3026.302,0.000 M 1650.188,91.019 1654.312,46.112 M 1917.437,0.000 1974.611,53.845 M 1974.611,53.845 1987.896,37.675 M 1102.798,73.016 1132.016,10.086 M 1057.852,42.899 1059.364,57.562 M 1059.364,57.562 1102.798,73.016 M 882.419,0.000 886.217,20.754 M 886.217,20.754 941.463,49.919 M 1168.547,55.939 1198.681,58.813 M 1191.253,0.000 1198.681,58.813 M 3238.272,52.787 3241.488,0.000 M 3385.330,59.996 3432.805,32.563 M 3069.377,75.119 3130.063,85.773 M 1471.174,30.490 1578.222,54.806 M 1578.222,54.806 1596.910,28.503 M 727.134,51.684 733.691,0.000 M 997.260,71.910 1050.944,67.852 M 1050.944,67.852 1059.364,57.562 M 3130.063,85.773 3140.324,80.659 M 3126.851,0.000 3140.324,80.659 M 1102.798,73.016 1115.480,81.251 M 1115.480,81.251 1168.547,55.939 M 1049.648,77.036 1050.944,67.852 M 1049.032,80.997 1049.648,77.036 M 2263.254,14.280 2365.238,48.513 M 3326.248,0.000 3368.028,63.913 M 3368.028,63.913 3385.330,59.996 M 380.339,0.000 399.827,21.287 M 1198.681,58.813 1213.348,69.638 M 1213.348,69.638 1251.685,47.346 M 2554.336,106.957 2554.359,1.155 M 3069.377,75.119 3074.245,107.018 M 1578.222,54.806 1579.312,75.000 M 1579.312,75.000 1650.188,91.019 M 3385.330,59.996 3448.266,106.795 M 3448.266,106.795 3463.394,80.794 M 2554.359,1.155 2635.767,74.225 M 2635.767,74.225 2718.186,0.000 M 3233.471,75.226 3238.272,52.787 M 290.725,111.503 356.386,0.000 M 573.571,68.394 585.209,34.346 M 727.134,51.684 822.733,85.719 M 3074.245,107.018 3100.364,115.811 M 3100.364,115.811 3130.063,85.773 M 399.827,21.287 528.010,91.544 M 3233.471,75.226 3241.406,88.389 M 3463.394,80.794 3532.198,73.272 M 3494.785,30.936 3532.198,62.698 M 2726.115,103.508 2746.691,0.000 M 585.209,34.346 707.703,77.171 M 707.703,77.171 727.134,51.684 M 2931.555,106.919 2962.764,45.175 M 1049.032,80.997 1084.464,129.026 M 2245.988,90.664 2249.623,58.307 M 2245.988,90.664 2365.238,48.513 M 2365.238,48.513 2394.146,48.540 M 2394.146,48.540 2423.125,0.000 M 1956.848,81.910 1974.611,53.845 M 1291.862,0.000 1369.867,79.348 M 1369.867,79.348 1446.769,4.075 M 3057.314,123.860 3074.245,107.018 M 1911.064,0.000 1929.563,85.849 M 1929.563,85.849 1956.848,81.910 M 1471.174,30.490 1482.702,108.027 M 3140.324,80.659 3171.945,105.814 M 3171.945,105.814 3233.471,75.226 M 528.010,91.544 562.575,85.862 M 562.575,85.862 573.571,68.394 M 1808.315,0.000 1828.004,68.750 M 822.733,85.719 855.072,82.326 M 855.072,82.326 886.217,20.754 M 989.237,125.669 997.260,71.910 M 3238.272,52.787 3357.018,95.268 M 3357.018,95.268 3368.028,63.913 M 159.023,0.000 162.536,36.595 M 2241.544,97.997 2245.988,90.664 M 1828.004,68.750 1857.915,85.313 M 3448.266,106.795 3450.232,125.489 M 941.463,49.919 958.125,125.110 M 958.125,125.110 961.380,126.357 M 961.380,126.357 989.237,125.669 M 2803.764,0.000 2840.173,86.518 M 2840.173,86.518 2921.921,41.960 M 3057.314,123.860 3079.367,148.704 M 2705.098,120.133 2726.115,103.508 M 2161.043,0.000 2231.554,103.389 M 2231.554,103.389 2241.544,97.997 M 1084.464,129.026 1107.845,133.707 M 1049.648,77.036 1107.845,133.707 M 3168.831,124.542 3171.945,105.814 M 3168.831,124.542 3172.900,129.311 M 3241.406,88.389 3355.252,104.680 M 3355.252,104.680 3357.018,95.268 M 1857.915,85.313 1895.152,97.658 M 1895.152,97.658 1929.563,85.849 M 3067.664,160.725 3079.367,148.704 M 1689.848,43.542 1695.991,119.914 M 3008.246,23.752 3008.785,125.770 M 2241.544,97.997 2308.537,134.673 M 2392.227,86.461 2394.146,48.540 M 1650.188,91.019 1674.956,126.196 M 1674.956,126.196 1695.991,119.914 M 1468.120,130.142 1482.702,108.027 M 1364.885,102.179 1369.867,79.348 M 1783.732,116.109 1828.004,68.750 M 923.224,142.138 958.125,125.110 M 855.072,82.326 863.899,117.075 M 863.899,117.075 923.224,142.138 M 3008.785,125.770 3021.514,135.129 M 3021.514,135.129 3057.314,123.860 M 56.665,145.350 162.536,36.595 M 1723.039,9.768 1737.666,127.010 M 1737.666,127.010 1783.732,116.109 M 3142.459,148.695 3168.831,124.542 M 1107.845,133.707 1122.191,136.871 M 2931.555,106.919 2963.184,141.400 M 2963.184,141.400 3008.785,125.770 M 3021.514,135.129 3024.336,144.543 M 3024.336,144.543 3067.664,160.725 M 1122.191,136.871 1125.078,135.692 M 1115.480,81.251 1125.078,135.692 M 1482.702,108.027 1572.713,120.307 M 1572.713,120.307 1579.312,75.000 M 2392.227,86.461 2471.514,144.828 M 1695.991,119.914 1730.086,130.275 M 1730.086,130.275 1737.666,127.010 M 3172.900,129.311 3191.927,166.337 M 2554.336,106.957 2640.938,116.213 M 2635.767,74.225 2640.938,116.213 M 989.237,125.669 1024.923,142.125 M 1024.923,142.125 1049.032,80.997 M 3079.367,148.704 3113.427,153.573 M 3100.364,115.811 3113.427,153.573 M 2477.270,0.000 2518.906,138.575 M 2518.906,138.575 2554.336,106.957 M 290.725,111.503 364.691,139.269 M 364.691,139.269 379.825,0.000 M 3113.427,153.573 3114.697,154.892 M 3114.697,154.892 3142.459,148.695 M 2308.537,134.673 2374.306,121.329 M 2374.306,121.329 2392.227,86.461 M 2840.173,86.518 2842.694,112.770 M 2842.694,112.770 2931.555,106.919 M 1364.885,102.179 1457.930,144.101 M 1457.930,144.101 1468.120,130.142 M 1024.923,142.125 1028.035,149.678 M 1028.035,149.678 1084.464,129.026 M 3191.927,166.337 3249.159,155.665 M 3172.900,129.311 3249.159,155.665 M 1468.120,130.142 1552.988,158.051 M 2204.978,131.871 2231.554,103.389 M 961.380,126.357 970.358,179.307 M 399.827,21.287 466.358,149.841 M 466.358,149.841 528.010,91.544 M 1251.685,47.346 1341.060,128.443 M 1341.060,128.443 1364.885,102.179 M 466.212,151.010 466.358,149.841 M 1457.930,144.101 1459.783,155.242 M 2640.938,116.213 2647.211,130.483 M 2647.211,130.483 2705.098,120.133 M 3388.528,152.856 3450.232,125.489 M 1459.783,155.242 1503.965,178.065 M 1503.965,178.065 1552.988,158.051 M 3355.252,104.680 3355.728,139.317 M 3355.728,139.317 3388.528,152.856 M 849.271,160.453 863.899,117.075 M 2428.072,186.886 2471.514,144.828 M 3249.159,155.665 3262.628,155.989 M 3241.406,88.389 3262.628,155.989 M 162.536,36.595 183.170,120.477 M 2374.306,121.329 2376.833,156.897 M 2376.833,156.897 2428.072,186.886 M 2428.072,186.886 2432.030,193.309 M 970.358,179.307 1030.287,167.865 M 1028.035,149.678 1030.287,167.865 M 1552.988,158.051 1582.300,147.726 M 1572.713,120.307 1582.300,147.726 M 2835.266,132.869 2842.694,112.770 M 2726.115,103.508 2834.398,133.376 M 2834.398,133.376 2835.266,132.869 M 363.823,161.155 364.691,139.269 M 1332.808,144.557 1341.060,128.443 M 2471.514,144.828 2513.207,159.922 M 2513.207,159.922 2518.906,138.575 M 255.015,156.959 290.725,111.503 M 2642.068,150.529 2647.211,130.483 M 2285.070,188.437 2308.537,134.673 M 2513.207,159.922 2514.433,162.796 M 2204.978,131.871 2277.993,190.600 M 2277.993,190.600 2285.070,188.437 M 2285.070,188.437 2311.856,200.244 M 3262.628,155.989 3273.144,168.443 M 183.170,120.477 224.514,154.154 M 224.514,154.154 255.015,156.959 M 1895.152,97.658 1906.047,181.764 M 1332.808,144.557 1345.738,172.331 M 3273.144,168.443 3289.483,173.045 M 739.994,167.050 822.733,85.719 M 739.994,167.050 849.271,160.453 M 2705.098,120.133 2761.951,187.249 M 573.571,68.394 701.740,153.401 M 701.740,153.401 707.703,77.171 M 2642.068,150.529 2734.701,200.058 M 2734.701,200.058 2761.951,187.249 M 3289.483,173.045 3319.454,170.970 M 3319.454,170.970 3355.728,139.317 M 3024.336,144.543 3028.304,197.298 M 255.015,156.959 301.799,182.141 M 301.799,182.141 363.823,161.155 M 849.271,160.453 857.125,196.856 M 2155.218,154.402 2204.978,131.871 M 2432.030,193.309 2450.244,213.843 M 2450.244,213.843 2514.433,162.796 M 1503.965,178.065 1508.354,217.117 M 956.333,210.923 1044.054,191.951 M 1030.287,167.865 1044.054,191.951 M 1884.885,200.886 1906.047,181.764 M 2835.266,132.869 2890.664,192.168 M 2761.951,187.249 2786.493,187.555 M 2786.493,187.555 2834.398,133.376 M 1345.738,172.331 1360.542,193.981 M 701.740,153.401 702.732,161.840 M 2118.026,26.736 2127.135,150.781 M 2127.135,150.781 2155.218,154.402 M 2126.704,151.016 2127.135,150.781 M 1358.559,204.022 1360.542,193.981 M 1493.423,227.608 1508.354,217.117 M 1836.317,206.351 1857.915,85.313 M 1836.317,206.351 1884.885,200.886 M 941.745,208.924 970.358,179.307 M 941.745,208.924 956.333,210.923 M 1582.300,147.726 1610.161,177.463 M 1610.161,177.463 1674.956,126.196 M 1293.647,236.934 1345.738,172.331 M 2311.856,200.244 2358.767,207.218 M 2358.767,207.218 2376.833,156.897 M 301.799,182.141 303.487,217.238 M 2358.767,207.218 2359.226,209.077 M 3277.617,239.152 3289.483,173.045 M 1360.542,193.981 1430.681,210.316 M 1430.681,210.316 1459.783,155.242 M 1213.348,69.638 1215.960,168.557 M 1215.960,168.557 1332.808,144.557 M 466.212,151.010 582.710,186.437 M 562.575,85.862 582.710,186.437 M 702.732,161.840 720.315,175.375 M 720.315,175.375 739.994,167.050 M 2448.386,227.617 2450.244,213.843 M 2359.226,209.077 2386.141,230.741 M 2386.141,230.741 2432.030,193.309 M 107.719,200.522 183.170,120.477 M 3388.528,152.856 3431.136,213.464 M 923.224,142.138 932.495,212.728 M 932.495,212.728 941.745,208.924 M 1783.732,116.109 1810.768,210.260 M 1044.054,191.951 1054.605,205.435 M 1054.605,205.435 1122.191,136.871 M 2386.141,230.741 2388.900,233.527 M 2388.900,233.527 2448.386,227.617 M 1810.768,210.260 1821.263,212.611 M 1821.263,212.611 1836.317,206.351 M 1125.078,135.692 1210.033,175.743 M 1210.033,175.743 1215.960,168.557 M 433.602,199.130 466.212,151.010 M 433.563,199.152 433.602,199.130 M 2126.704,151.016 2156.449,261.120 M 363.823,161.155 418.784,202.257 M 418.784,202.257 433.563,199.152 M 433.563,199.152 462.843,255.308 M 3319.454,170.970 3343.829,234.965 M 3343.829,234.965 3431.136,213.464 M 2938.104,210.320 2963.184,141.400 M 2938.104,210.320 3028.304,197.298 M 857.125,196.856 926.111,220.950 M 926.111,220.950 932.495,212.728 M 1726.293,220.197 1730.086,130.275 M 56.665,145.350 86.267,207.945 M 86.267,207.945 107.719,200.522 M 2448.386,227.617 2456.889,245.520 M 409.437,220.498 418.784,202.257 M 582.710,186.437 590.428,199.613 M 590.428,199.613 702.732,161.840 M 956.333,210.923 1029.232,239.024 M 823.659,236.314 857.125,196.856 M 1884.885,200.886 1899.168,254.237 M 107.719,200.522 168.936,250.677 M 3450.232,125.489 3532.198,170.238 M 2039.484,58.246 2066.644,180.819 M 2066.644,180.819 2126.704,151.016 M 2294.606,256.813 2311.856,200.244 M 3142.459,148.695 3179.838,228.390 M 3179.838,228.390 3191.927,166.337 M 1430.681,210.316 1443.111,237.849 M 1443.111,237.849 1493.423,227.608 M 1443.078,238.103 1443.111,237.849 M 823.659,236.314 827.529,246.461 M 2156.449,261.120 2174.846,266.445 M 2294.606,256.813 2331.365,258.140 M 2331.365,258.140 2359.226,209.077 M 72.678,222.871 86.267,207.945 M 1726.293,220.197 1754.531,235.260 M 1754.531,235.260 1810.768,210.260 M 2890.664,192.168 2927.885,219.947 M 2927.885,219.947 2938.104,210.320 M 1248.785,241.929 1293.647,236.934 M 1293.647,236.934 1344.411,256.681 M 1344.411,256.681 1358.559,204.022 M 720.315,175.375 737.639,221.635 M 737.639,221.635 823.659,236.314 M 2456.889,245.520 2567.999,214.191 M 2514.433,162.796 2567.999,214.191 M 2786.493,187.555 2798.315,247.791 M 3431.136,213.464 3455.198,230.031 M 3455.198,230.031 3532.198,189.469 M 1344.411,256.681 1344.756,259.357 M 1344.756,259.357 1362.198,269.612 M 2443.284,269.635 2456.058,263.828 M 2456.058,263.828 2456.889,245.520 M 1358.559,204.022 1406.498,271.506 M 1406.498,271.506 1443.078,238.103 M 1956.848,81.910 2052.026,191.591 M 2052.026,191.591 2066.644,180.819 M 2331.365,258.140 2338.212,274.425 M 1029.232,239.024 1060.980,233.189 M 1054.605,205.435 1060.980,233.189 M 2698.561,254.935 2734.701,200.058 M 66.547,235.644 72.678,222.871 M 168.936,250.677 212.639,252.658 M 212.639,252.658 224.514,154.154 M 2619.108,227.746 2698.561,254.935 M 2798.315,247.791 2806.994,257.414 M 2806.994,257.414 2890.664,192.168 M 2603.851,216.276 2642.068,150.529 M 2603.851,216.276 2619.108,227.746 M 3028.304,197.298 3075.723,236.820 M 3067.664,160.725 3075.723,236.820 M 3341.724,261.758 3343.829,234.965 M 2388.900,233.527 2397.555,276.229 M 2397.555,276.229 2443.284,269.635 M 3277.617,239.152 3302.416,274.619 M 2619.108,227.746 2633.243,277.569 M 2567.999,214.191 2580.706,222.161 M 2580.706,222.161 2603.851,216.276 M 462.843,255.308 505.633,280.500 M 1362.198,269.612 1397.595,281.513 M 1397.595,281.513 1406.498,271.506 M 303.487,217.238 331.635,268.835 M 3302.416,274.619 3312.839,277.574 M 3312.839,277.574 3341.724,261.758 M 331.635,268.835 368.384,268.208 M 368.384,268.208 409.437,220.498 M 1983.040,256.663 2013.365,229.088 M 1899.168,254.237 2013.365,229.088 M 1248.785,241.929 1321.807,286.385 M 1321.807,286.385 1344.756,259.357 M 327.162,273.669 331.635,268.835 M 728.506,257.680 737.639,221.635 M 3179.838,228.390 3181.748,248.564 M 3181.748,248.564 3273.144,168.443 M 2013.365,229.088 2029.059,219.627 M 1906.047,181.764 2029.059,219.627 M 2698.561,254.935 2713.305,276.148 M 2713.305,276.148 2798.315,247.791 M 2338.212,274.425 2389.328,290.973 M 2389.328,290.973 2397.555,276.229 M 2174.846,266.445 2223.568,261.139 M 2155.218,154.402 2223.568,261.139 M 1359.008,314.357 1362.198,269.612 M 505.633,280.500 570.652,244.949 M 433.602,199.130 570.652,244.949 M 66.547,235.644 98.094,287.015 M 212.639,252.658 226.316,272.427 M 226.316,272.427 303.487,217.238 M 3075.723,236.820 3085.970,248.154 M 3085.970,248.154 3114.697,154.892 M 2238.977,263.733 2277.993,190.600 M 570.652,244.949 575.222,244.432 M 575.222,244.432 590.428,199.613 M 2029.059,219.627 2038.902,218.260 M 2038.902,218.260 2052.026,191.591 M 2223.568,261.139 2226.257,263.370 M 2226.257,263.370 2238.977,263.733 M 2238.977,263.733 2245.421,267.382 M 2245.421,267.382 2294.606,256.813 M 1318.506,298.684 1321.807,286.385 M 1318.506,298.684 1359.008,314.357 M 1200.041,234.306 1210.033,175.743 M 1200.041,234.306 1248.785,241.929 M 1443.078,238.103 1475.164,293.947 M 1610.161,177.463 1619.435,239.485 M 1619.435,239.485 1726.293,220.197 M 2456.058,263.828 2485.732,295.605 M 368.384,268.208 385.175,302.378 M 240.867,288.708 327.162,273.669 M 226.316,272.427 229.318,283.053 M 229.318,283.053 240.867,288.708 M 940.540,281.120 1029.232,239.024 M 1060.980,233.189 1085.228,261.447 M 2806.994,257.414 2824.142,286.123 M 98.094,287.015 130.109,304.469 M 130.109,304.469 168.936,250.677 M 3341.724,261.758 3390.177,295.536 M 1080.303,272.467 1085.228,261.447 M 926.111,220.950 931.924,280.622 M 931.924,280.622 940.540,281.120 M 130.109,304.469 131.705,307.180 M 482.384,312.835 505.633,280.500 M 1754.531,235.260 1760.767,297.043 M 1508.354,217.117 1613.759,252.056 M 1613.759,252.056 1619.435,239.485 M 940.540,281.120 1010.213,315.011 M 1010.213,315.011 1080.303,272.467 M 1760.767,297.043 1761.954,298.719 M 1085.228,261.447 1189.752,252.271 M 1189.752,252.271 1200.041,234.306 M 409.437,220.498 447.375,313.389 M 447.375,313.389 462.843,255.308 M 1940.837,324.272 1983.040,256.663 M 1475.164,293.947 1523.896,301.232 M 1493.423,227.608 1523.896,301.232 M 1675.579,309.238 1760.767,297.043 M 1675.579,309.238 1691.457,328.820 M 3183.146,271.791 3277.617,239.152 M 2038.902,218.260 2053.154,261.376 M 2053.154,261.376 2156.449,261.120 M 3068.212,274.702 3091.779,264.307 M 3085.970,248.154 3091.779,264.307 M 1523.896,301.232 1526.609,302.243 M 3174.339,267.441 3181.748,248.564 M 3174.339,267.441 3183.146,271.791 M 3183.146,271.791 3218.235,298.355 M 3218.235,298.355 3302.416,274.619 M 131.705,307.180 203.349,316.784 M 203.349,316.784 229.318,283.053 M 1526.609,302.243 1612.176,262.415 M 1612.176,262.415 1613.759,252.056 M 2193.053,319.464 2226.257,263.370 M 240.867,288.708 271.800,332.305 M 1882.418,304.500 1899.168,254.237 M 1882.418,304.500 1983.040,256.663 M 129.697,332.086 131.705,307.180 M 2485.732,295.605 2547.091,297.171 M 2547.091,297.171 2580.706,222.161 M 2628.102,336.548 2633.243,277.569 M 2053.154,261.376 2055.622,273.578 M 3308.783,330.221 3312.839,277.574 M 2162.906,328.365 2193.053,319.464 M 3390.177,295.536 3435.647,296.404 M 3435.647,296.404 3455.198,230.031 M 3031.357,342.814 3068.212,274.702 M 2582.707,329.785 2628.102,336.548 M 2575.075,326.348 2582.707,329.785 M 1189.752,252.271 1199.465,283.108 M 2547.091,297.171 2548.600,303.552 M 2548.600,303.552 2575.075,326.348 M 2109.753,314.135 2174.846,266.445 M 1639.404,298.368 1675.579,309.238 M 2824.142,286.123 2858.346,303.285 M 728.506,257.680 803.129,323.621 M 803.129,323.621 827.529,246.461 M 2855.418,309.763 2858.346,303.285 M 2109.753,314.135 2114.655,318.183 M 2114.655,318.183 2162.906,328.365 M 2055.622,273.578 2064.562,288.504 M 2064.562,288.504 2109.753,314.135 M 1612.176,262.415 1624.985,289.866 M 1624.985,289.866 1639.404,298.368 M 385.175,302.378 406.765,328.813 M 2927.885,219.947 2928.826,285.808 M 2928.826,285.808 3068.212,274.702 M 827.529,246.461 909.768,306.874 M 909.768,306.874 931.924,280.622 M 3435.647,296.404 3443.818,310.796 M 1639.404,298.368 1671.560,363.485 M 2245.421,267.382 2286.167,330.594 M 374.410,353.984 406.765,328.813 M 3091.779,264.307 3127.685,282.160 M 3127.685,282.160 3174.339,267.441 M 908.290,311.668 909.768,306.874 M 322.736,345.224 385.175,302.378 M 322.736,345.224 374.410,353.984 M 3308.783,330.221 3347.089,347.107 M 3347.089,347.107 3390.177,295.536 M 2236.702,358.652 2286.167,330.594 M 2193.053,319.464 2212.733,353.862 M 2212.733,353.862 2236.702,358.652 M 2057.427,332.683 2064.562,288.504 M 3443.818,310.796 3449.710,317.525 M 1199.465,283.108 1295.386,333.929 M 1295.386,333.929 1318.506,298.684 M 1940.837,324.272 1972.565,347.915 M 1972.565,347.915 2055.622,273.578 M 1761.954,298.719 1858.469,316.051 M 1821.263,212.611 1858.469,316.051 M 1874.901,316.301 1882.418,304.500 M 1874.901,316.301 1940.837,324.272 M 2858.346,303.285 2923.033,295.642 M 2923.033,295.642 2928.826,285.808 M 313.422,345.821 327.162,273.669 M 313.422,345.821 322.736,345.224 M 482.384,312.835 564.383,342.927 M 3126.378,318.160 3127.685,282.160 M 1691.457,328.820 1752.126,354.583 M 1752.126,354.583 1761.954,298.719 M 309.352,349.658 313.422,345.821 M 1427.908,343.549 1475.164,293.947 M 2923.033,295.642 2929.182,315.145 M 1858.469,316.051 1865.854,321.760 M 1865.854,321.760 1874.901,316.301 M 447.375,313.389 449.516,336.167 M 449.516,336.167 482.384,312.835 M 2389.328,290.973 2393.988,341.375 M 3449.710,317.525 3453.501,345.034 M 101.709,365.061 129.697,332.086 M 1421.158,345.018 1427.908,343.549 M 908.290,311.668 940.953,358.930 M 406.765,328.813 445.874,339.912 M 1006.419,362.291 1010.213,315.011 M 445.874,339.912 447.460,339.678 M 447.460,339.678 449.516,336.167 M 271.800,332.305 298.546,354.897 M 298.546,354.897 309.352,349.658 M 1397.595,281.513 1408.253,344.766 M 1408.253,344.766 1421.158,345.018 M 2286.167,330.594 2311.498,345.163 M 2311.498,345.163 2338.212,274.425 M 2393.988,341.375 2419.175,350.127 M 2419.175,350.127 2443.284,269.635 M 564.383,342.927 610.649,316.329 M 575.222,244.432 610.649,316.329 M 1607.694,360.055 1624.985,289.866 M 419.269,381.562 445.874,339.912 M 447.460,339.678 462.258,356.374 M 2419.175,350.127 2425.201,353.308 M 940.953,358.930 955.824,369.312 M 955.824,369.312 1006.419,362.291 M 2425.201,353.308 2436.967,355.821 M 2436.967,355.821 2485.732,295.605 M 3260.694,357.226 3308.783,330.221 M 1359.008,314.357 1395.066,353.395 M 1395.066,353.395 1408.253,344.766 M 3218.235,298.355 3252.501,356.422 M 3252.501,356.422 3260.694,357.226 M 3453.501,345.034 3481.075,378.584 M 803.129,323.621 811.997,350.012 M 2929.182,315.145 2970.204,363.952 M 2970.204,363.952 3031.357,342.814 M 1427.908,343.549 1497.201,376.488 M 1491.228,384.283 1497.201,376.488 M 462.258,356.374 527.483,377.527 M 527.483,377.527 564.383,342.927 M 2162.906,328.365 2165.162,390.383 M 1497.201,376.488 1515.920,373.355 M 1515.920,373.355 1526.609,302.243 M 1515.920,373.355 1516.367,373.754 M 3468.747,406.313 3481.075,378.584 M 1006.419,362.291 1027.395,380.778 M 3234.744,380.826 3252.501,356.422 M 462.258,356.374 463.595,401.547 M 46.851,367.865 98.094,287.015 M 46.851,367.865 101.709,365.061 M 2515.540,380.726 2548.600,303.552 M 1607.694,360.055 1644.515,399.642 M 1644.515,399.642 1671.560,363.485 M 3417.726,398.084 3453.501,345.034 M 198.741,377.185 203.349,316.784 M 198.741,377.185 271.800,332.305 M 2970.204,363.952 2975.201,380.490 M 2165.162,390.383 2192.916,396.694 M 2192.916,396.694 2212.733,353.862 M 3126.378,318.160 3223.404,389.483 M 3223.404,389.483 3234.744,380.826 M 3417.726,398.084 3421.998,404.079 M 3421.998,404.079 3468.747,406.313 M 1080.303,272.467 1085.667,375.259 M 463.595,401.547 471.720,413.057 M 3220.399,393.019 3223.404,389.483 M 3220.399,393.019 3237.750,424.029 M 2713.305,276.148 2719.511,354.828 M 2719.511,354.828 2824.142,286.123 M 1516.367,373.754 1572.994,391.020 M 1572.994,391.020 1607.694,360.055 M 2311.498,345.163 2328.161,367.240 M 2328.161,367.240 2393.988,341.375 M 1671.560,363.485 1712.873,392.227 M 1691.457,328.820 1712.873,392.227 M 2890.686,401.152 2929.182,315.145 M 1862.118,365.048 1865.854,321.760 M 811.997,350.012 832.201,364.015 M 832.201,364.015 908.290,311.668 M 3347.089,347.107 3359.379,390.201 M 3359.379,390.201 3443.818,310.796 M 1421.158,345.018 1451.964,414.961 M 1451.964,414.961 1491.228,384.283 M 1182.445,373.524 1199.465,283.108 M 1027.395,380.778 1073.614,384.695 M 1073.614,384.695 1085.667,375.259 M 2192.916,396.694 2200.627,407.244 M 1572.994,391.020 1574.843,403.042 M 309.352,349.658 368.619,405.155 M 368.619,405.155 374.410,353.984 M 1484.646,429.859 1491.228,384.283 M 2436.967,355.821 2471.841,390.527 M 2471.841,390.527 2515.540,380.726 M 610.649,316.329 655.281,344.413 M 655.281,344.413 728.506,257.680 M 2325.931,379.055 2328.161,367.240 M 2953.413,415.330 2975.201,380.490 M 655.281,344.413 655.816,345.712 M 419.269,381.562 431.471,425.373 M 431.471,425.373 463.595,401.547 M 655.816,345.712 690.885,368.288 M 690.885,368.288 811.997,350.012 M 1998.285,403.010 2057.427,332.683 M 1644.515,399.642 1652.025,414.485 M 279.636,400.237 298.546,354.897 M 373.606,412.278 419.269,381.562 M 2236.702,358.652 2251.555,413.572 M 2114.655,318.183 2124.360,406.781 M 2124.360,406.781 2165.162,390.383 M 2975.201,380.490 3019.780,411.275 M 3421.998,404.079 3433.410,429.823 M 1441.082,424.928 1447.985,425.310 M 1447.985,425.310 1451.964,414.961 M 1363.882,387.051 1395.066,353.395 M 1363.882,387.051 1441.082,424.928 M 1085.667,375.259 1165.050,388.654 M 1165.050,388.654 1182.445,373.524 M 2123.499,407.976 2124.360,406.781 M 368.619,405.155 370.644,412.651 M 370.644,412.651 373.606,412.278 M 471.720,413.057 530.099,414.914 M 527.483,377.527 530.099,414.914 M 129.697,332.086 195.229,392.334 M 195.229,392.334 198.741,377.185 M 2890.686,401.152 2941.650,425.969 M 2941.650,425.969 2953.413,415.330 M 3260.694,357.226 3316.006,412.742 M 3359.300,402.145 3359.379,390.201 M 3359.300,402.145 3417.726,398.084 M 3481.075,378.584 3532.198,396.784 M 1000.803,427.042 1027.395,380.778 M 1447.985,425.310 1451.088,430.270 M 1451.088,430.270 1484.646,429.859 M 1072.152,419.503 1073.614,384.695 M 2251.555,413.572 2271.434,415.512 M 2271.434,415.512 2325.931,379.055 M 1000.803,427.042 1024.703,441.918 M 1024.703,441.918 1072.152,419.503 M 631.603,396.335 655.816,345.712 M 373.606,412.278 427.412,434.139 M 427.412,434.139 431.471,425.373 M 1862.118,365.048 1919.899,408.056 M 832.201,364.015 835.051,393.849 M 2200.627,407.244 2224.731,422.851 M 2224.731,422.851 2251.555,413.572 M 2633.243,277.569 2713.371,373.155 M 2713.371,373.155 2719.511,354.828 M 2325.931,379.055 2346.696,418.087 M 3188.901,419.061 3220.399,393.019 M 1972.192,404.754 1972.565,347.915 M 1972.192,404.754 1998.285,403.010 M 1574.843,403.042 1591.589,433.632 M 1591.589,433.632 1652.025,414.485 M 2346.696,418.087 2393.778,433.233 M 2393.778,433.233 2425.201,353.308 M 3433.410,429.823 3465.621,438.110 M 3465.621,438.110 3468.747,406.313 M 2953.413,415.330 2987.359,450.423 M 2987.359,450.423 3019.780,411.275 M 3465.621,438.110 3467.322,440.090 M 3467.322,440.090 3532.198,405.669 M 2515.540,380.726 2561.721,420.810 M 2582.707,329.785 2622.277,415.693 M 2853.681,421.701 2855.418,309.763 M 890.066,428.599 940.953,358.930 M 890.066,428.599 892.739,430.071 M 2853.681,421.701 2858.209,423.209 M 2858.209,423.209 2890.686,401.152 M 3234.744,380.826 3274.571,443.735 M 3274.571,443.735 3316.006,412.742 M 3316.006,412.742 3349.273,416.899 M 3349.273,416.899 3359.300,402.145 M 631.603,396.335 652.895,456.076 M 2123.499,407.976 2161.898,450.014 M 2161.898,450.014 2200.627,407.244 M 2575.075,326.348 2577.611,422.922 M 2577.611,422.922 2622.277,415.693 M 195.229,392.334 196.318,406.061 M 196.318,406.061 279.636,400.237 M 530.099,414.914 537.069,432.998 M 835.051,393.849 863.840,424.223 M 863.840,424.223 890.066,428.599 M 2561.721,420.810 2572.033,425.225 M 2572.033,425.225 2577.611,422.922 M 2086.237,425.414 2123.499,407.976 M 2057.427,332.683 2081.217,425.333 M 2081.217,425.333 2086.237,425.414 M 1919.899,408.056 1957.634,417.684 M 1957.634,417.684 1972.192,404.754 M 471.720,413.057 472.867,453.329 M 1998.285,403.010 2069.584,431.243 M 2069.584,431.243 2081.217,425.333 M 779.051,441.482 835.051,393.849 M 1451.088,430.270 1455.039,460.651 M 858.207,451.614 863.840,424.223 M 892.739,430.071 959.891,440.908 M 955.824,369.312 959.891,440.908 M 3237.750,424.029 3268.387,455.123 M 3268.387,455.123 3274.571,443.735 M 537.069,432.998 585.921,441.840 M 585.921,441.840 631.603,396.335 M 1182.445,373.524 1286.537,418.893 M 651.015,470.547 652.895,456.076 M 427.412,434.139 434.689,456.916 M 434.689,456.916 472.867,453.329 M 2216.331,459.451 2224.731,422.851 M 3111.612,411.941 3126.378,318.160 M 3111.612,411.941 3188.901,419.061 M 3019.780,411.275 3073.498,422.333 M 3031.357,342.814 3073.498,422.333 M 959.891,440.908 963.515,444.466 M 963.515,444.466 1000.803,427.042 M 1455.039,460.651 1473.523,469.770 M 3317.441,467.278 3356.282,444.275 M 3349.273,416.899 3356.282,444.275 M 1295.737,436.080 1301.340,417.725 M 1286.537,418.893 1301.340,417.725 M 1484.646,429.859 1517.029,456.926 M 1516.367,373.754 1517.029,456.926 M 2622.277,415.693 2670.361,416.993 M 651.015,470.547 690.481,478.948 M 2635.567,471.909 2670.361,416.993 M 1301.340,417.725 1323.116,410.194 M 1295.386,333.929 1323.116,410.194 M 2770.809,418.814 2855.418,309.763 M 2770.809,418.814 2853.681,421.701 M 3265.385,463.497 3268.387,455.123 M 3265.385,463.497 3317.441,467.278 M 1323.116,410.194 1325.940,410.948 M 1325.940,410.948 1363.882,387.051 M 2628.102,336.548 2708.862,397.042 M 2708.862,397.042 2713.371,373.155 M 1517.029,456.926 1518.119,459.980 M 1518.119,459.980 1574.843,403.042 M 1518.119,459.980 1518.125,460.209 M 2981.728,473.118 2987.359,450.423 M 2216.331,459.451 2282.176,470.902 M 2271.434,415.512 2282.176,470.902 M 1161.784,452.969 1165.050,388.654 M 2670.361,416.993 2694.054,409.971 M 1873.305,473.287 1919.899,408.056 M 779.051,441.482 813.352,485.456 M 3234.667,472.118 3237.750,424.029 M 509.127,466.452 537.069,432.998 M 472.867,453.329 500.932,468.220 M 500.932,468.220 509.127,466.452 M 2694.054,409.971 2709.525,403.545 M 2708.862,397.042 2709.525,403.545 M 963.515,444.466 966.295,466.908 M 3188.901,419.061 3216.837,472.559 M 3216.837,472.559 3234.667,472.118 M 690.885,368.288 735.362,452.482 M 735.362,452.482 779.051,441.482 M 1145.601,465.991 1161.784,452.969 M 3234.667,472.118 3258.942,473.187 M 3258.942,473.187 3265.385,463.497 M 2563.759,475.207 2572.033,425.225 M 2563.759,475.207 2635.567,471.909 M 1473.523,469.770 1493.831,477.878 M 1493.831,477.878 1518.125,460.209 M 652.895,456.076 734.201,455.774 M 734.201,455.774 735.362,452.482 M 3467.322,440.090 3476.608,476.287 M 3073.498,422.333 3092.892,431.598 M 3092.892,431.598 3111.612,411.941 M 2623.789,494.519 2635.567,471.909 M 966.295,466.908 1032.548,486.781 M 1957.634,417.684 1963.523,466.538 M 101.709,365.061 172.588,439.900 M 172.588,439.900 196.318,406.061 M 1161.784,452.969 1212.667,480.473 M 1212.667,480.473 1286.537,418.893 M 813.352,485.456 832.485,493.818 M 832.485,493.818 858.207,451.614 M 2655.308,513.081 2694.054,409.971 M 1032.548,486.781 1040.236,487.663 M 1024.703,441.918 1040.236,487.663 M 2931.293,478.367 2941.650,425.969 M 2931.293,478.367 2981.728,473.118 M 690.481,478.948 731.607,469.898 M 731.607,469.898 734.201,455.774 M 2046.598,483.355 2069.584,431.243 M 2981.728,473.118 3012.334,492.271 M 2709.525,403.545 2739.834,427.435 M 2739.834,427.435 2770.809,418.814 M 3394.149,480.998 3433.410,429.823 M 2046.598,483.355 2053.391,493.430 M 2992.714,514.460 3012.334,492.271 M 1873.305,473.287 1917.504,497.495 M 1917.504,497.495 1963.523,466.538 M 3356.282,444.275 3379.585,482.366 M 3379.585,482.366 3394.149,480.998 M 279.636,400.237 328.913,466.690 M 328.913,466.690 370.644,412.651 M 1963.523,466.538 1989.448,491.406 M 1989.448,491.406 2046.598,483.355 M 1652.025,414.485 1710.294,457.326 M 2858.209,423.209 2892.030,487.141 M 3194.322,502.772 3216.837,472.559 M 2559.089,495.601 2563.759,475.207 M 2559.089,495.601 2623.789,494.519 M 3394.149,480.998 3454.788,499.180 M 3454.788,499.180 3476.608,476.287 M 0.000,460.397 39.976,513.401 M 2623.789,494.519 2632.643,519.961 M 2632.643,519.961 2655.308,513.081 M 0.000,388.306 46.851,367.865 M 2328.078,493.306 2346.696,418.087 M 2892.030,487.141 2916.368,491.612 M 2916.368,491.612 2931.293,478.367 M 3294.883,514.047 3317.441,467.278 M 0.000,422.691 129.321,473.974 M 642.488,513.919 690.481,478.948 M 3090.259,469.496 3092.892,431.598 M 3090.259,469.496 3194.322,502.772 M 1712.873,392.227 1756.565,445.949 M 1752.126,354.583 1756.565,445.949 M 2452.256,478.764 2471.841,390.527 M 2452.256,478.764 2561.721,420.810 M 1325.940,410.948 1367.511,484.471 M 1367.511,484.471 1441.082,424.928 M 406.181,499.819 434.689,456.916 M 471.331,518.435 500.932,468.220 M 1072.152,419.503 1090.663,490.727 M 1090.663,490.727 1145.601,465.991 M 3294.883,514.047 3369.939,503.580 M 3369.939,503.580 3379.585,482.366 M 1394.485,497.358 1455.039,460.651 M 1987.874,516.573 1989.448,491.406 M 1145.601,465.991 1170.496,533.035 M 2328.078,493.306 2372.775,510.259 M 2300.390,502.105 2328.078,493.306 M 2282.176,470.902 2299.089,502.092 M 2299.089,502.092 2300.390,502.105 M 1367.511,484.471 1369.594,489.862 M 1369.594,489.862 1394.485,497.358 M 3454.788,499.180 3459.050,521.151 M 406.181,499.819 462.932,523.130 M 462.932,523.130 471.331,518.435 M 1710.294,457.326 1758.433,452.036 M 1756.565,445.949 1758.433,452.036 M 3258.942,473.187 3283.115,518.867 M 3283.115,518.867 3294.883,514.047 M 1518.125,460.209 1590.552,499.097 M 1590.552,499.097 1591.589,433.632 M 1758.433,452.036 1760.236,453.001 M 1760.236,453.001 1862.118,365.048 M 129.321,473.974 162.609,471.925 M 162.609,471.925 172.588,439.900 M 2393.778,433.233 2448.918,486.142 M 2448.918,486.142 2452.256,478.764 M 623.715,514.460 651.015,470.547 M 623.715,514.460 642.488,513.919 M 1394.485,497.358 1426.850,525.196 M 1426.850,525.196 1473.523,469.770 M 2372.775,510.259 2448.978,489.913 M 2448.918,486.142 2448.978,489.913 M 39.976,513.401 75.966,537.843 M 75.966,537.843 129.321,473.974 M 3012.334,492.271 3078.533,494.707 M 3078.533,494.707 3090.259,469.496 M 2916.368,491.612 2935.432,532.044 M 2935.432,532.044 2992.714,514.460 M 1040.236,487.663 1078.978,508.723 M 1078.978,508.723 1090.663,490.727 M 1760.236,453.001 1777.372,483.907 M 1777.372,483.907 1873.305,473.287 M 585.921,441.840 604.163,523.624 M 604.163,523.624 623.715,514.460 M 2161.898,450.014 2180.794,518.287 M 2180.794,518.287 2216.331,459.451 M 1212.667,480.473 1226.945,538.146 M 1226.945,538.146 1295.737,436.080 M 731.607,469.898 738.160,533.298 M 738.160,533.298 813.352,485.456 M 642.488,513.919 738.123,533.810 M 738.123,533.810 738.160,533.298 M 1590.552,499.097 1604.934,522.143 M 1604.934,522.143 1710.294,457.326 M 1078.189,533.569 1078.978,508.723 M 1078.189,533.569 1170.496,533.035 M 1906.184,559.732 1917.504,497.495 M 1912.370,559.732 1987.874,516.573 M 328.913,466.690 330.576,521.975 M 330.576,521.975 406.181,499.819 M 471.331,518.435 575.553,555.196 M 509.127,466.452 575.553,555.196 M 929.053,557.639 966.295,466.908 M 929.053,557.639 1032.548,486.781 M 575.553,555.196 581.048,559.732 M 584.366,559.732 604.163,523.624 M 1170.496,533.035 1217.495,559.732 M 1226.945,538.146 1231.478,559.732 M 858.207,451.614 924.909,559.732 M 892.739,430.071 925.281,559.732 M 1426.850,525.196 1463.198,559.732 M 1478.936,559.732 1493.831,477.878 M 2053.391,493.430 2168.160,553.318 M 2086.237,425.414 2168.160,553.318 M 928.016,559.732 929.053,557.639 M 2168.160,553.318 2173.439,557.962 M 2173.439,557.962 2180.794,518.287 M 0.000,269.716 66.547,235.644 M 2448.978,489.913 2501.337,559.732 M 2514.248,559.732 2559.089,495.601 M 2655.308,513.081 2752.457,559.732 M 2739.834,427.435 2767.562,559.732 M 2790.849,559.732 2892.030,487.141 M 2173.439,557.962 2173.996,559.732 M 2214.189,559.732 2299.089,502.092 M 1262.594,559.732 1295.737,436.080 M 1987.874,516.573 2004.153,559.732 M 2041.372,559.732 2053.391,493.430 M 2300.390,502.105 2323.751,559.732 M 2366.110,559.732 2372.775,510.259 M 162.609,471.925 224.376,559.732 M 308.953,559.732 330.576,521.975 M 1327.967,559.732 1369.594,489.862 M 3369.939,503.580 3374.724,559.732 M 3440.016,559.732 3459.050,521.151 M 3194.322,502.772 3202.628,559.732 M 3271.756,559.732 3283.115,518.867 M 1777.372,483.907 1789.910,559.732 M 832.485,493.818 850.698,559.732 M 0.000,107.206 56.665,145.350 M 0.000,171.015 72.678,222.871 M 1596.631,559.732 1604.934,522.143 M 3476.608,476.287 3532.198,474.847 M 2621.660,559.732 2632.643,519.961 M 738.123,533.810 745.167,559.732 M 1071.358,559.732 1078.189,533.569 M 2935.432,532.044 2939.198,559.732 M 2992.714,514.460 2995.781,559.732 M 3449.710,317.525 3532.198,315.300 M 3078.533,494.707 3082.216,559.732 M 580.139,0.000 585.209,34.346 M 26.888,559.732 39.976,513.401 M 69.544,559.732 75.966,537.843 M 462.932,523.130 464.355,559.732 M 3459.050,521.151 3532.198,555.300 M 3494.785,30.936 3498.757,0.000 " />
    </pattern>
    <pattern
       id="Voronoi3878"
       width="3256.2527"
       height="651.71405"
       patternTransform="translate(-30.546898,86.85099)"
       patternUnits="userSpaceOnUse">
      <path
         d="M 2288.337,69.197 2307.392,0.000 M 429.013,0.000 458.903,116.876 M 204.714,62.894 271.235,0.000 M 2089.884,19.485 2091.405,0.000 M 2875.333,0.000 2910.964,113.240 M 2089.884,19.485 2203.054,133.887 M 2203.054,133.887 2288.337,69.197 M 204.714,62.894 210.118,157.126 M 2569.240,158.482 2571.006,0.000 M 1570.615,43.632 1622.593,9.783 M 1622.593,9.783 1625.774,0.000 M 1481.227,199.808 1570.615,43.632 M 2030.847,117.426 2089.884,19.485 M 385.399,155.785 458.903,116.876 M 2422.065,144.048 2459.839,0.000 M 1622.593,9.783 1630.496,62.221 M 2422.065,144.048 2486.470,191.961 M 2486.470,191.961 2569.240,158.482 M 210.118,157.126 265.295,193.958 M 1837.901,0.000 1922.813,147.665 M 2030.847,117.426 2084.812,197.084 M 326.866,0.000 357.927,158.311 M 357.927,158.311 385.399,155.785 M 1922.813,147.665 1956.578,152.976 M 1956.578,152.976 2030.847,117.426 M 1649.630,0.000 1861.394,186.175 M 1861.394,186.175 1922.813,147.665 M 2288.337,69.197 2338.917,184.194 M 2338.917,184.194 2367.222,187.783 M 2367.222,187.783 2422.065,144.048 M 1956.578,152.976 1967.216,216.432 M 1232.571,0.000 1327.896,151.848 M 1327.896,151.848 1570.615,43.632 M 265.295,193.958 347.915,188.663 M 347.915,188.663 357.927,158.311 M 2084.812,197.084 2125.987,228.020 M 458.903,116.876 632.151,126.652 M 632.151,126.652 664.452,0.000 M 2863.233,184.359 2910.964,113.240 M 1950.686,260.585 1967.216,216.432 M 2112.868,260.767 2125.987,228.020 M 1967.216,216.432 2026.732,271.861 M 2026.732,271.861 2084.812,197.084 M 2125.987,228.020 2224.695,216.801 M 2203.054,133.887 2224.695,216.801 M 1630.496,62.221 1779.067,239.799 M 2224.695,216.801 2225.454,217.367 M 2225.454,217.367 2338.917,184.194 M 2367.222,187.783 2384.486,257.743 M 628.075,162.399 632.151,126.652 M 2026.732,271.861 2030.762,284.917 M 2030.762,284.917 2112.868,260.767 M 1481.227,199.808 1531.340,265.949 M 385.399,155.785 601.434,198.880 M 601.434,198.880 628.075,162.399 M 1779.067,239.799 1812.099,252.501 M 1812.099,252.501 1861.394,186.175 M 2700.320,0.000 2766.203,198.747 M 2766.203,198.747 2863.233,184.359 M 1327.120,216.582 1327.896,151.848 M 1327.120,216.582 1481.227,199.808 M 628.075,162.399 788.260,274.430 M 86.057,247.803 210.118,157.126 M 788.260,274.430 888.432,256.432 M 1531.340,265.949 1595.377,270.151 M 1595.377,270.151 1630.496,62.221 M 767.553,326.964 788.260,274.430 M 1812.099,252.501 1825.592,299.614 M 1825.592,299.614 1950.686,260.585 M 2739.273,245.054 2766.203,198.747 M 1622.373,305.040 1779.067,239.799 M 2863.233,184.359 3016.993,279.027 M 1595.377,270.151 1612.046,302.928 M 1612.046,302.928 1622.373,305.040 M 2384.486,257.743 2526.023,309.438 M 2486.470,191.961 2526.023,309.438 M 888.432,256.432 992.218,215.004 M 987.878,0.000 992.218,215.004 M 1317.800,261.285 1327.120,216.582 M 2569.240,158.482 2662.740,281.407 M 2662.740,281.407 2739.273,245.054 M 171.438,317.852 265.295,193.958 M 992.218,215.004 1015.437,250.064 M 86.057,247.803 158.631,320.382 M 158.631,320.382 171.438,317.852 M 1317.800,261.285 1334.940,292.103 M 0.000,101.405 204.714,62.894 M 0.000,205.598 86.057,247.803 M 171.438,317.852 333.955,336.941 M 2526.023,309.438 2541.301,326.178 M 1015.437,250.064 1073.030,284.859 M 1073.030,284.859 1317.800,261.285 M 685.559,380.287 767.553,326.964 M 2979.175,344.361 3016.993,279.027 M 974.755,348.685 1015.437,250.064 M 333.955,336.941 384.922,320.875 M 347.915,188.663 384.922,320.875 M 1334.940,292.103 1360.840,318.088 M 1360.840,318.088 1531.340,265.949 M 2541.301,326.178 2623.491,321.463 M 2623.491,321.463 2662.740,281.407 M 1950.686,260.585 1968.405,371.227 M 836.327,413.401 888.432,256.432 M 836.327,413.401 974.755,348.685 M 685.559,380.287 712.343,425.303 M 1073.030,284.859 1104.527,373.255 M 1968.405,371.227 2020.116,376.170 M 2020.116,376.170 2030.762,284.917 M 1090.702,418.822 1104.527,373.255 M 956.479,422.710 974.755,348.685 M 2979.175,344.361 3046.108,446.641 M 1889.835,392.367 1968.405,371.227 M 535.905,343.228 601.434,198.880 M 535.905,343.228 685.559,380.287 M 2623.491,321.463 2648.080,419.037 M 1825.592,299.614 1831.535,386.099 M 1831.535,386.099 1889.835,392.367 M 767.553,326.964 816.520,440.525 M 816.520,440.525 836.327,413.401 M 1104.527,373.255 1200.974,447.973 M 1200.974,447.973 1334.940,292.103 M 2454.610,416.713 2541.301,326.178 M 518.270,358.620 535.905,343.228 M 2648.080,419.037 2664.358,443.981 M 384.922,320.875 474.614,366.350 M 474.614,366.350 518.270,358.620 M 2454.610,416.713 2468.831,448.314 M 2468.831,448.314 2471.800,451.457 M 2471.800,451.457 2547.337,491.789 M 2547.337,491.789 2648.080,419.037 M 2225.454,217.367 2249.319,395.258 M 2314.662,409.225 2384.486,257.743 M 2314.662,409.225 2454.610,416.713 M 1622.373,305.040 1794.096,419.163 M 1794.096,419.163 1831.535,386.099 M 2664.358,443.981 2867.413,425.330 M 2739.273,245.054 2867.413,425.330 M 1792.412,423.349 1794.096,419.163 M 2112.214,420.926 2112.868,260.767 M 2112.214,420.926 2249.319,395.258 M 2867.413,425.330 2870.262,427.552 M 2870.262,427.552 2979.175,344.361 M 138.620,443.099 158.631,320.382 M 1360.840,318.088 1407.252,425.898 M 2020.116,376.170 2102.116,426.055 M 2102.116,426.055 2112.214,420.926 M 2249.319,395.258 2295.050,416.680 M 2295.050,416.680 2314.662,409.225 M 2295.050,416.680 2296.073,431.047 M 852.016,486.038 956.479,422.710 M 424.554,474.404 474.614,366.350 M 813.375,475.902 816.520,440.525 M 813.375,475.902 852.016,486.038 M 712.343,425.303 797.819,483.875 M 797.819,483.875 813.375,475.902 M 331.140,514.752 424.554,474.404 M 2296.073,431.047 2303.016,469.931 M 1541.778,455.190 1612.046,302.928 M 635.298,515.755 712.343,425.303 M 1407.252,425.898 1519.351,464.447 M 1519.351,464.447 1541.778,455.190 M 1541.778,455.190 1676.350,502.678 M 1676.350,502.678 1792.412,423.349 M 1200.974,447.973 1220.933,510.381 M 518.270,358.620 601.125,512.943 M 601.125,512.943 635.298,515.755 M 956.479,422.710 1015.038,523.352 M 1015.038,523.352 1090.702,418.822 M 1090.702,418.822 1133.419,546.358 M 1133.419,546.358 1220.933,510.381 M 424.554,474.404 445.037,551.878 M 1015.038,523.352 1015.270,533.322 M 1015.270,533.322 1050.019,545.870 M 1676.350,502.678 1680.996,540.719 M 138.620,443.099 238.823,515.460 M 238.823,515.460 333.955,336.941 M 2953.491,535.507 3046.108,446.641 M 2953.491,535.507 3078.534,550.933 M 2547.337,491.789 2573.219,566.363 M 1050.019,545.870 1116.127,561.077 M 1116.127,561.077 1133.419,546.358 M 238.823,515.460 247.572,530.215 M 247.572,530.215 331.140,514.752 M 1311.223,537.087 1407.252,425.898 M 635.298,515.755 747.215,558.692 M 747.215,558.692 797.819,483.875 M 1220.933,510.381 1289.823,545.915 M 1289.823,545.915 1311.223,537.087 M 2471.800,451.457 2502.418,593.955 M 2502.418,593.955 2573.219,566.363 M 2303.016,469.931 2405.499,594.763 M 2405.499,594.763 2468.831,448.314 M 445.037,551.878 540.538,606.340 M 1277.186,597.127 1289.823,545.915 M 1116.127,561.077 1125.039,625.713 M 1125.039,625.713 1277.186,597.127 M 331.140,514.752 396.132,626.899 M 396.132,626.899 445.037,551.878 M 1680.996,540.719 1857.632,590.565 M 1792.412,423.349 1857.632,590.565 M 3078.534,550.933 3240.429,495.144 M 3046.108,446.641 3240.429,495.144 M 852.016,486.038 943.891,593.762 M 943.891,593.762 1015.270,533.322 M 2870.262,427.552 2882.840,550.575 M 2882.840,550.575 2953.491,535.507 M 540.538,606.340 560.560,613.310 M 560.560,613.310 601.125,512.943 M 2573.219,566.363 2687.802,594.411 M 2664.358,443.981 2687.802,594.411 M 387.497,651.714 396.132,626.899 M 408.625,651.714 540.538,606.340 M 2405.499,594.763 2424.973,651.714 M 2441.909,651.714 2502.418,593.955 M 1311.223,537.087 1454.321,651.714 M 1508.230,651.714 1519.351,464.447 M 1889.835,392.367 2020.715,651.714 M 2038.008,651.714 2102.116,426.055 M 2687.802,594.411 2737.185,651.714 M 2838.194,651.714 2882.840,550.575 M 2110.726,651.714 2296.073,431.047 M 1857.632,590.565 1890.218,651.714 M 235.343,651.714 247.572,530.215 M 1050.019,545.870 1053.487,651.714 M 1122.183,651.714 1125.039,625.713 M 3042.179,651.714 3078.534,550.933 M 747.215,558.692 755.534,651.714 M 931.204,651.714 943.891,593.762 M 1678.689,651.714 1680.996,540.719 M 2241.996,651.714 2303.016,469.931 M 560.560,613.310 572.471,651.714 M 1273.332,651.714 1277.186,597.127 M 0.000,507.897 138.620,443.099 M 3240.429,495.144 3256.253,493.677 M 3016.993,279.027 3256.253,192.311 M 2910.964,113.240 3222.399,0.000 "
         style="stroke:#000000"
         id="path3712" />
    </pattern>
    <pattern
       patternUnits="userSpaceOnUse"
       patternTransform="translate(-40.229198,82.009834)"
       height="663.83783"
       width="3265.5405"
       id="Voronoi7274">
      <path
         id="path3884"
         style="stroke:#000000"
         d="M 2551.993,112.841 2582.382,0.000 M 2274.190,0.000 2275.527,13.155 M 1977.053,100.089 2177.139,0.000 M 1881.729,0.000 1977.053,100.089 M 2465.989,139.457 2517.173,0.000 M 2465.989,139.457 2551.993,112.841 M 2275.527,13.155 2465.032,140.319 M 2465.032,140.319 2465.989,139.457 M 1494.088,109.737 1600.413,0.000 M 393.841,223.173 435.389,127.185 M 1175.048,41.365 1494.088,109.737 M 1175.048,41.365 1368.105,184.655 M 1142.967,0.000 1160.115,36.257 M 1160.115,36.257 1175.048,41.365 M 1725.044,0.000 1727.474,35.982 M 2582.893,210.824 2699.463,138.559 M 2551.993,112.841 2699.463,138.559 M 1368.105,184.655 1479.764,156.532 M 1479.764,156.532 1494.088,109.737 M 1977.053,100.089 2011.123,156.666 M 3046.134,104.483 3053.254,0.000 M 2699.463,138.559 2727.539,132.206 M 2727.539,132.206 2727.879,0.000 M 246.139,141.299 435.389,127.185 M 2465.032,140.319 2469.815,208.179 M 435.389,127.185 557.579,111.133 M 557.579,111.133 603.958,0.000 M 2469.815,208.179 2480.463,227.768 M 2480.463,227.768 2582.893,210.824 M 2727.539,132.206 2768.973,192.853 M 2768.973,192.853 3046.134,104.483 M 1921.825,283.861 2011.123,156.666 M 336.891,310.757 393.841,223.173 M 1654.747,297.034 1727.474,35.982 M 336.891,310.757 370.938,322.957 M 370.938,322.957 393.841,223.173 M 557.579,111.133 574.906,225.861 M 2011.123,156.666 2189.076,228.467 M 2189.076,228.467 2275.527,13.155 M 2189.076,228.467 2192.996,241.021 M 2192.996,241.021 2469.815,208.179 M 1654.747,297.034 1702.592,338.587 M 2582.893,210.824 2651.220,337.695 M 1727.474,35.982 1869.447,322.447 M 1869.447,322.447 1921.825,283.861 M 574.906,225.861 691.366,315.840 M 1921.825,283.861 2113.109,344.777 M 2651.220,337.695 2774.612,305.088 M 2768.973,192.853 2774.612,305.088 M 172.414,259.765 246.139,141.299 M 172.414,259.765 336.891,310.757 M 2594.406,366.353 2651.220,337.695 M 2774.612,305.088 2777.537,308.621 M 1702.592,338.587 1843.787,348.739 M 1843.787,348.739 1863.729,340.654 M 1863.729,340.654 1869.447,322.447 M 2480.463,227.768 2482.138,344.350 M 2482.138,344.350 2594.406,366.353 M 370.938,322.957 459.971,359.042 M 459.971,359.042 574.906,225.861 M 874.271,317.267 888.716,0.000 M 1863.729,340.654 1905.636,390.289 M 1905.636,390.289 2113.109,344.777 M 1479.764,156.532 1486.211,341.369 M 1486.211,341.369 1654.747,297.034 M 2446.013,377.382 2482.138,344.350 M 113.121,301.048 172.414,259.765 M 2113.109,344.777 2197.753,348.447 M 2192.996,241.021 2197.753,348.447 M 691.366,315.840 819.129,364.061 M 819.129,364.061 874.271,317.267 M 43.410,306.337 113.121,301.048 M 874.271,317.267 1173.548,345.305 M 1160.115,36.257 1173.548,345.305 M 1765.861,495.107 1843.787,348.739 M 1675.739,486.378 1702.592,338.587 M 1675.739,486.378 1765.861,495.107 M 3046.134,104.483 3143.391,335.433 M 818.432,421.833 819.129,364.061 M 2777.537,308.621 2965.208,409.633 M 2941.771,444.263 2965.208,409.633 M 818.432,421.833 828.748,446.279 M 2594.406,366.353 2626.093,511.669 M 2197.753,348.447 2219.677,408.851 M 2219.677,408.851 2446.013,377.382 M 2965.208,409.633 3092.767,390.040 M 3092.767,390.040 3143.391,335.433 M 1173.548,345.305 1210.677,392.909 M 1210.677,392.909 1368.105,184.655 M 639.787,543.458 818.432,421.833 M 2626.093,511.669 2705.250,531.686 M 2705.250,531.686 2777.537,308.621 M 561.035,523.872 691.366,315.840 M 561.035,523.872 639.787,543.458 M 2212.423,436.153 2219.677,408.851 M 2097.212,509.153 2136.553,492.742 M 2136.553,492.742 2212.423,436.153 M 113.121,301.048 269.797,515.702 M 1905.636,390.289 1963.137,523.500 M 1963.137,523.500 2097.212,509.153 M 269.797,515.702 452.357,502.248 M 452.357,502.248 459.971,359.042 M 452.357,502.248 480.909,533.289 M 480.909,533.289 561.035,523.872 M 2446.013,377.382 2507.935,577.193 M 2507.935,577.193 2626.093,511.669 M 2705.250,531.686 2767.073,604.990 M 2767.073,604.990 2941.771,444.263 M 1765.861,495.107 1876.255,627.425 M 1876.255,627.425 1963.137,523.500 M 639.787,543.458 707.957,663.838 M 763.138,663.838 828.748,446.279 M 1210.677,392.909 1321.206,580.481 M 1321.206,580.481 1486.211,341.369 M 2212.423,436.153 2356.953,663.838 M 2469.083,663.838 2507.935,577.193 M 1321.206,580.481 1328.289,663.838 M 1371.287,663.838 1675.739,486.378 M 43.410,306.337 80.927,663.838 M 207.890,663.838 269.797,515.702 M 828.748,446.279 1057.571,663.838 M 1867.676,663.838 1876.255,627.425 M 2767.073,604.990 2769.176,663.838 M 2937.951,663.838 2941.771,444.263 M 2071.624,663.838 2097.212,509.153 M 2136.553,492.742 2154.870,663.838 M 225.817,0.000 246.139,141.299 M 0.000,297.437 43.410,306.337 M 478.593,663.838 480.909,533.289 M 3092.767,390.040 3133.934,663.838 M 3143.391,335.433 3265.541,324.267 " />
    </pattern>
    <pattern
       id="Voronoi4095"
       width="3253.3374"
       height="661.9679"
       patternTransform="translate(-30.597284,77.91433)"
       patternUnits="userSpaceOnUse">
      <path
         d="M 452.888,100.848 582.013,0.000 M 317.198,55.202 452.888,100.848 M 1129.951,10.276 1135.090,0.000 M 768.081,0.000 802.098,116.233 M 802.098,116.233 856.923,149.074 M 856.923,149.074 1129.951,10.276 M 252.090,159.302 317.198,55.202 M 725.825,195.979 802.098,116.233 M 452.888,100.848 525.527,238.545 M 525.527,238.545 552.808,240.601 M 552.808,240.601 605.072,0.000 M 2238.921,200.601 2300.392,0.000 M 552.808,240.601 585.525,254.611 M 585.525,254.611 725.825,195.979 M 856.923,149.074 931.699,249.894 M 2940.769,156.237 3135.398,132.995 M 931.699,249.894 976.359,281.606 M 1841.878,0.000 1987.499,274.634 M 1987.499,274.634 2238.921,200.601 M 976.359,281.606 1103.450,280.182 M 1103.450,280.182 1129.951,10.276 M 725.825,195.979 765.444,378.753 M 765.444,378.753 931.699,249.894 M 241.158,273.222 252.090,159.302 M 2734.267,0.000 2764.497,91.834 M 2764.497,91.834 2940.769,156.237 M 2238.921,200.601 2288.663,329.786 M 1598.085,256.294 1624.350,0.000 M 191.473,300.889 241.158,273.222 M 241.158,273.222 359.438,329.918 M 359.438,329.918 525.527,238.545 M 2516.338,404.838 2652.886,262.171 M 2288.663,329.786 2652.886,262.171 M 359.438,329.918 382.379,386.767 M 585.525,254.611 627.263,408.646 M 1103.450,280.182 1192.637,346.009 M 1192.637,346.009 1363.510,0.000 M 1967.160,365.521 1987.499,274.634 M 2652.886,262.171 2728.208,218.583 M 2728.208,218.583 2764.497,91.834 M 2728.208,218.583 2729.464,225.277 M 1598.085,256.294 1783.401,407.545 M 1783.401,407.545 1967.160,365.521 M 1967.160,365.521 1990.673,401.309 M 1990.673,401.309 2024.727,415.701 M 189.821,480.231 191.473,300.889 M 914.135,456.901 976.359,281.606 M 189.821,480.231 311.663,509.194 M 311.663,509.194 382.379,386.767 M 1490.989,378.647 1598.085,256.294 M 185.814,489.836 189.821,480.231 M 627.263,408.646 745.752,441.095 M 745.752,441.095 765.444,378.753 M 2940.769,156.237 3146.951,420.889 M 2729.464,225.277 2821.770,413.678 M 185.814,489.836 226.004,551.585 M 2024.727,415.701 2278.328,430.254 M 2278.328,430.254 2288.663,329.786 M 1294.633,403.898 1418.617,0.000 M 1294.633,403.898 1490.989,378.647 M 226.004,551.585 313.332,542.248 M 311.663,509.194 313.332,542.248 M 745.752,441.095 767.576,469.902 M 767.576,469.902 914.135,456.901 M 313.332,542.248 317.962,553.222 M 914.135,456.901 960.484,509.695 M 2278.328,430.254 2285.588,447.371 M 3016.539,507.216 3146.951,420.889 M 117.657,544.513 185.814,489.836 M 2285.588,447.371 2356.268,490.700 M 2356.268,490.700 2516.338,404.838 M 1192.637,346.009 1238.811,412.582 M 1238.811,412.582 1246.556,416.399 M 1246.556,416.399 1294.633,403.898 M 960.484,509.695 1054.176,529.713 M 1054.176,529.713 1238.811,412.582 M 117.657,544.513 135.271,587.343 M 382.379,386.767 506.333,507.414 M 506.333,507.414 627.263,408.646 M 758.010,534.947 767.576,469.902 M 922.400,587.756 960.484,509.695 M 226.004,551.585 228.472,602.452 M 228.472,602.452 317.962,553.222 M 0.000,525.112 117.657,544.513 M 3146.951,420.889 3253.337,444.459 M 1759.609,538.879 1783.401,407.545 M 2821.770,413.678 2953.340,532.414 M 2953.340,532.414 3016.539,507.216 M 3016.539,507.216 3111.869,619.398 M 3111.869,619.398 3189.770,586.586 M 3189.770,586.586 3253.337,462.693 M 135.271,587.343 222.487,624.987 M 222.487,624.987 228.472,602.452 M 1490.989,378.647 1562.193,585.398 M 1562.193,585.398 1759.609,538.879 M 506.048,598.669 506.333,507.414 M 506.048,598.669 758.010,534.947 M 2024.727,415.701 2154.081,632.779 M 2154.081,632.779 2285.588,447.371 M 758.010,534.947 781.558,650.774 M 781.558,650.774 922.400,587.756 M 0.000,310.369 191.473,300.889 M 0.000,534.370 53.502,661.968 M 112.336,661.968 135.271,587.343 M 3135.398,132.995 3253.337,176.861 M 317.962,553.222 401.118,661.968 M 489.888,661.968 506.048,598.669 M 1759.609,538.879 1848.587,661.968 M 1937.633,661.968 1990.673,401.309 M 2516.338,404.838 2542.564,661.968 M 2581.459,661.968 2729.464,225.277 M 922.400,587.756 962.624,661.968 M 1054.176,529.713 1057.954,661.968 M 2942.579,661.968 2953.340,532.414 M 3075.934,661.968 3111.869,619.398 M 2356.268,490.700 2454.808,661.968 M 2735.064,661.968 2821.770,413.678 M 2146.007,661.968 2154.081,632.779 M 1246.556,416.399 1289.779,661.968 M 1538.415,661.968 1562.193,585.398 M 222.487,624.987 237.762,661.968 M 779.315,661.968 781.558,650.774 M 316.095,0.000 317.198,55.202 M 0.000,3.337 252.090,159.302 M 0.000,389.388 0.000,389.388 M 3189.770,586.586 3195.729,661.968 M 3135.398,132.995 3206.424,0.000 "
         style="stroke:#000000"
         id="path3916" />
    </pattern>
  </defs>
  <metadata
     id="metadata7">
    <rdf:RDF>
      <cc:Work
         rdf:about="">
        <dc:format>image/svg+xml</dc:format>
        <dc:type
           rdf:resource="http://purl.org/dc/dcmitype/StillImage" />
        <dc:title></dc:title>
      </cc:Work>
    </rdf:RDF>
  </metadata>
  <g
     transform="translate(0,-252.36218)"
     id="layer1"
     inkscape:groupmode="layer"
     inkscape:label="1" />
  <rect
     style="opacity:1;fill:url(#pattern3945);fill-opacity:1;stroke:#000000;stroke-width:2.97312093;stroke-linecap:round;stroke-linejoin:round;stroke-miterlimit:4;stroke-dasharray:none;stroke-dashoffset:0;stroke-opacity:1"
     id="rect3704"
     width="3195.085"
     height="648.74091"
     x="3.4601574"
     y="81.491127"
     ry="0" />
  <g
     sodipodi:insensitive="true"
     inkscape:label="2"
     id="layer2"
     inkscape:groupmode="layer">
    <rect
       y="74.935638"
       x="4.0447497"
       height="660.87018"
       width="3192.397"
       id="rect3726"
       style="opacity:1;fill:url(#pattern3943);fill-opacity:1;stroke:#000000;stroke-width:2.96764803;stroke-linecap:round;stroke-linejoin:round;stroke-miterlimit:4;stroke-dasharray:none;stroke-dashoffset:0;stroke-opacity:1" />
  </g>
  <g
     sodipodi:insensitive="true"
     inkscape:groupmode="layer"
     id="layer3"
     inkscape:label="3">
    <rect
       style="opacity:1;fill:url(#pattern3941);fill-opacity:1;stroke:#000000;stroke-width:2.97865486;stroke-linecap:round;stroke-linejoin:round;stroke-miterlimit:4;stroke-dasharray:none;stroke-dashoffset:0;stroke-opacity:1"
       id="rect3904"
       width="3204.1455"
       height="658.98926"
       x="-0.010673313"
       y="70.845634" />
  </g>
  <eggbot
     totaldeltay="0"
     totaldeltax="0"
     lastpathnc="0"
     lastpath="0"
     node="0"
     layer="1"
     serialport="" />
</svg>
