<?xml version="1.0" encoding="UTF-8"?>
<!-- Generator: Adobe Illustrator 16.0.0, SVG Export Plug-In . SVG Version: 6.00 Build 0)  -->
<!DOCTYPE svg PUBLIC "-//W3C//DTD SVG 1.1//EN" "http://www.w3.org/Graphics/SVG/1.1/DTD/svg11.dtd">
<svg version="1.1" id="Layer_1" xmlns="http://www.w3.org/2000/svg" xmlns:xlink="http://www.w3.org/1999/xlink" x="0px" y="0px" width="596.389px" height="774.387px" viewBox="0 0 596.389 774.387" enable-background="new 0 0 596.389 774.387" xml:space="preserve">
<g>
	<path fill="none" stroke="#010101" stroke-miterlimit="10" d="M268.497,511.165c5.066,33.566,10.252,48.648,7.162,68.125   c-1.348,8.498-18.11,8.707-18.11,23.322c0,8.76,4.04,14.523,12.697,15.863c1.646,0.256,5.326,0.697,6.349,2.012   c2.674,3.438,8.656,7.885,13.011,7.885h5.724h5.724c4.355,0,10.338-4.447,13.012-7.885c1.021-1.312,4.703-1.756,6.35-2.012   c8.656-1.34,12.695-7.104,12.695-15.863c0-16.781-18.445-13.178-18.445-21.781c0-21.938,1.426-35.977,11.334-68.5"/>
	<path fill="#010101" d="M357.163,621.831L357.163,621.831c0-1.729-13.842-3.227-34.064-3.965c-0.842,0.252-1.73,0.463-2.686,0.611   c-1.646,0.254-5.326,0.697-6.35,2.012c-2.674,3.438-8.656,7.885-13.012,7.885h-5.724h-5.724c-4.354,0-10.337-4.447-13.011-7.885   c-1.022-1.314-4.703-1.758-6.349-2.012c-1.029-0.16-1.989-0.387-2.889-0.668c-21.065,0.719-35.61,2.25-35.61,4.02l0.001,0.002   h-0.083c0,0-13.584,19.723-20,29.5c33.791-2.391,114.417-6.709,165.499,0C368.456,638.374,357.163,621.831,357.163,621.831z"/>
	<g opacity="0.2">
		<path fill="#010101" d="M149.331,567.383c0,0,0.571,0.004,1.642,0.01c0.536-0.016,1.194,0.023,1.971,0.098    c0.39,0.031,0.808,0.066,1.254,0.102c0.441,0.072,0.91,0.15,1.405,0.23c1,0.129,2.072,0.434,3.255,0.709    c1.156,0.361,2.426,0.721,3.719,1.271c2.609,1.039,5.444,2.529,8.254,4.564c2.818,2.021,5.629,4.555,8.245,7.547    c2.623,2.986,5.083,6.404,7.241,10.16c2.162,3.754,4.083,7.811,5.645,12.08c1.565,4.268,2.814,8.721,3.75,13.236    c0.914,4.521,1.508,9.102,1.808,13.627c0.322,4.535,0.175,8.99,0.165,13.256c-0.069,8.561-0.177,16.551-0.306,23.396    c-0.112,6.85-0.294,12.557-0.379,16.549c-0.124,3.996-0.195,6.277-0.195,6.277s-0.071-2.281-0.195-6.277    c-0.085-3.992-0.268-9.699-0.379-16.549c-0.129-6.848-0.237-14.836-0.306-23.396c-0.041-4.291-0.014-8.689-0.33-13.125    c-0.316-4.441-0.926-8.934-1.84-13.357c-0.893-4.43-2.094-8.797-3.604-12.977c-1.519-4.176-3.294-8.186-5.36-11.875    c-2.065-3.688-4.36-7.086-6.842-10.059c-2.484-2.969-5.126-5.529-7.799-7.598c-2.676-2.064-5.36-3.654-7.863-4.801    c-1.24-0.605-2.465-1.016-3.586-1.428c-1.147-0.326-2.192-0.68-3.17-0.854c-0.486-0.104-0.945-0.205-1.378-0.297    c-0.438-0.064-0.847-0.125-1.229-0.18c-0.762-0.125-1.417-0.207-1.954-0.229C149.899,567.424,149.331,567.383,149.331,567.383z"/>
	</g>
	<g opacity="0.2">
		<path fill="#010101" d="M147.831,587.331c0,0-0.22-0.424-0.633-1.223c-0.379-0.814-0.934-2.018-1.509-3.594    c-1.175-3.148-2.608-7.73-4.082-13.297c-1.462-5.564-2.952-12.113-4.328-19.176c-0.696-3.527-1.333-7.189-1.947-10.918    c-0.619-3.727-1.171-7.523-1.657-11.332c-0.99-7.615-1.688-15.275-1.869-22.502c-0.096-3.627,0.018-7.082,0.04-10.375    c0.029-3.291,0.12-6.402,0.17-9.271c0.128-5.744,0.316-10.529,0.456-13.881c0.06-1.674,0.121-2.99,0.174-3.889    c0.047-0.896,0.072-1.375,0.072-1.375s0.025,0.479,0.072,1.375c0.053,0.898,0.114,2.213,0.174,3.889    c0.14,3.352,0.328,8.137,0.456,13.881c0.05,2.871,0.141,5.98,0.17,9.271c0.049,3.285,0.064,6.773,0.148,10.322    c0.228,7.129,0.957,14.732,1.871,22.312c0.47,3.789,0.997,7.572,1.538,11.293c0.545,3.723,1.147,7.373,1.749,10.906    c1.208,7.062,2.486,13.629,3.718,19.229c1.212,5.604,2.389,10.238,3.403,13.426c0.487,1.6,0.94,2.832,1.267,3.666    C147.64,586.891,147.831,587.331,147.831,587.331z"/>
	</g>
	<g opacity="0.2">
		<path fill="#010101" d="M447.372,589.924c0,0,0.191-0.439,0.551-1.264c0.326-0.834,0.777-2.064,1.266-3.666    c1.016-3.186,2.193-7.822,3.404-13.426c1.23-5.598,2.51-12.166,3.717-19.229c0.604-3.531,1.205-7.184,1.75-10.904    c0.541-3.723,1.068-7.504,1.537-11.293c0.914-7.58,1.643-15.186,1.871-22.312c0.084-3.549,0.1-7.037,0.146-10.324    c0.029-3.289,0.121-6.4,0.17-9.271c0.129-5.742,0.316-10.529,0.457-13.879c0.061-1.674,0.121-2.99,0.174-3.889    c0.047-0.896,0.072-1.377,0.072-1.377s0.025,0.48,0.072,1.377c0.053,0.896,0.113,2.213,0.174,3.889    c0.141,3.35,0.326,8.137,0.455,13.879c0.051,2.873,0.141,5.982,0.17,9.271c0.023,3.295,0.137,6.748,0.041,10.375    c-0.182,7.227-0.879,14.889-1.869,22.502c-0.486,3.811-1.039,7.607-1.656,11.334c-0.615,3.729-1.252,7.391-1.947,10.92    c-1.377,7.061-2.867,13.607-4.328,19.176c-1.475,5.562-2.908,10.146-4.082,13.295c-0.576,1.578-1.131,2.779-1.51,3.594    C447.595,589.499,447.372,589.924,447.372,589.924z"/>
	</g>
	<g opacity="0.2">
		<path fill="#010101" d="M441.302,567.383c0,0-0.568,0.041-1.639,0.117c-0.533,0.021-1.189,0.104-1.951,0.227    c-0.383,0.057-0.791,0.115-1.23,0.18c-0.432,0.094-0.893,0.193-1.379,0.297c-0.979,0.174-2.023,0.527-3.17,0.855    c-1.121,0.412-2.346,0.822-3.586,1.426c-2.502,1.146-5.188,2.736-7.863,4.801c-2.672,2.068-5.312,4.631-7.799,7.6    c-2.482,2.973-4.777,6.369-6.842,10.059s-3.842,7.699-5.359,11.875c-1.51,4.18-2.711,8.547-3.604,12.977    c-0.914,4.424-1.523,8.914-1.84,13.357c-0.316,4.434-0.289,8.832-0.33,13.125c-0.07,8.561-0.178,16.549-0.307,23.396    c-0.111,6.848-0.295,12.555-0.381,16.549c-0.123,3.994-0.193,6.277-0.193,6.277s-0.07-2.283-0.193-6.277    c-0.086-3.994-0.27-9.701-0.381-16.549c-0.129-6.848-0.236-14.838-0.307-23.396c-0.01-4.266-0.156-8.721,0.164-13.258    c0.301-4.523,0.895-9.105,1.809-13.625c0.936-4.518,2.186-8.971,3.75-13.236c1.561-4.27,3.482-8.328,5.645-12.082    c2.158-3.756,4.619-7.174,7.242-10.158c2.615-2.994,5.426-5.525,8.244-7.549c2.811-2.035,5.645-3.523,8.254-4.562    c1.293-0.553,2.562-0.91,3.719-1.271c1.184-0.277,2.256-0.58,3.256-0.709c0.494-0.082,0.963-0.158,1.404-0.23    c0.447-0.035,0.865-0.07,1.254-0.104c0.777-0.072,1.436-0.111,1.973-0.098C440.731,567.387,441.302,567.383,441.302,567.383z"/>
	</g>
	<g opacity="0.2">
		<path fill="#010101" d="M219.331,715.963c0,0,0.008-0.17,0.024-0.498c0.024-0.328,0.001-0.818,0.16-1.443    c0.219-1.254,0.873-3.09,2.377-4.979c1.477-1.898,3.691-3.854,6.487-5.678c2.798-1.826,6.183-3.514,9.996-5.016    c3.812-1.512,8.044-2.875,12.589-4.039c4.543-1.17,9.39-2.189,14.448-2.945c10.111-1.553,21.014-2.357,31.918-2.402    c5.435,0.02,10.916,0.232,16.257,0.635c5.352,0.398,10.605,0.99,15.66,1.766c10.109,1.545,19.412,3.969,27.039,6.984    c3.812,1.504,7.197,3.189,9.996,5.018c2.797,1.824,5.01,3.779,6.486,5.678c1.504,1.889,2.158,3.727,2.377,4.979    c0.158,0.621,0.137,1.117,0.16,1.443c0.016,0.328,0.023,0.498,0.023,0.498s-0.02-0.168-0.053-0.494    c-0.043-0.326-0.047-0.816-0.238-1.426c-0.277-1.229-1.041-2.969-2.572-4.756c-1.518-1.793-3.762-3.613-6.578-5.289    c-2.82-1.674-6.217-3.188-10.004-4.6c-3.797-1.393-8.012-2.637-12.535-3.674c-4.521-1.045-9.348-1.902-14.357-2.646    c-5.014-0.725-10.227-1.268-15.535-1.621c-5.322-0.354-10.701-0.514-16.126-0.496c-10.813-0.047-21.634,0.662-31.663,2.117    c-5.01,0.744-9.835,1.596-14.357,2.643c-4.524,1.039-8.739,2.281-12.535,3.676c-3.788,1.41-7.185,2.926-10.006,4.6    c-2.816,1.676-5.059,3.498-6.577,5.291c-1.531,1.785-2.295,3.529-2.572,4.754c-0.191,0.605-0.196,1.102-0.239,1.428    C219.348,715.793,219.331,715.963,219.331,715.963z"/>
	</g>
	<g>
		<path fill="#010101" d="M244.18,655.231c0,0,0.414-0.031,1.19-0.092c0.776-0.055,1.915-0.166,3.363-0.238    c1.449-0.084,3.209-0.188,5.227-0.303c2.018-0.123,4.295-0.258,6.779-0.324c2.484-0.088,5.175-0.184,8.021-0.283    c2.846-0.1,5.848-0.223,8.953-0.256c3.105-0.045,6.313-0.146,9.574-0.146c3.26-0.02,6.572-0.037,9.884-0.057    c3.311,0.02,6.624,0.039,9.885,0.059c3.26,0.008,6.469,0.104,9.572,0.146c3.105,0.033,6.105,0.162,8.953,0.258    c2.848,0.102,5.537,0.195,8.021,0.283c2.482,0.064,4.762,0.203,6.779,0.322c2.018,0.115,3.777,0.217,5.227,0.301    c1.447,0.072,2.586,0.186,3.363,0.238c0.775,0.059,1.189,0.092,1.189,0.092v0.197c0,0-26.496,0.051-52.992,0.102    c-26.495-0.051-52.991-0.102-52.991-0.102L244.18,655.231L244.18,655.231z"/>
	</g>
	<g opacity="0.2">
		<path fill="#010101" d="M132.716,493.331c0,0-0.843-1.162-2.497-3.037c-0.832-0.934-1.864-2.049-3.153-3.213    c-1.285-1.156-2.826-2.4-4.712-3.324c-0.943-0.443-2-0.777-3.088-0.762c-1.092-0.01-2.158,0.471-2.979,1.281    c-1.656,1.664-2.573,4.166-2.609,6.754c-0.046,2.611,0.616,5.305,1.458,7.961c0.853,2.664,1.9,5.322,2.924,8    c1.009,2.68,1.988,5.385,2.811,8.1c0.406,1.359,0.773,2.719,1.09,4.074c0.306,1.365,0.555,2.705,0.815,4.021    c1.015,5.281,1.774,10.232,2.59,14.443c0.416,2.104,0.812,4.027,1.232,5.715c0.442,1.682,0.878,3.137,1.363,4.283    c0.226,0.582,0.495,1.07,0.695,1.514c0.251,0.41,0.454,0.771,0.64,1.051c0.416,0.525,0.638,0.807,0.638,0.807    s-0.237-0.27-0.681-0.773c-0.201-0.27-0.423-0.619-0.7-1.025c-0.227-0.43-0.521-0.914-0.77-1.492    c-1.053-2.291-2.068-5.758-2.969-9.963c-0.898-4.207-1.846-9.131-2.89-14.387c-0.271-1.314-0.532-2.656-0.841-3.986    c-0.323-1.33-0.695-2.668-1.106-4.006c-0.833-2.676-1.829-5.35-2.853-8.021c-1.001-2.678-2.034-5.359-2.879-8.072    c-0.833-2.707-1.504-5.484-1.436-8.262c0.045-2.77,1.104-5.473,2.978-7.264c0.944-0.895,2.233-1.436,3.471-1.391    c1.235,0.014,2.358,0.41,3.338,0.898c1.961,1.006,3.468,2.336,4.721,3.559c1.256,1.227,2.249,2.389,3.047,3.355    C131.947,492.12,132.716,493.331,132.716,493.331z"/>
	</g>
	<g opacity="0.2">
		<path fill="#010101" d="M462.487,493.331c0,0,0.771-1.211,2.352-3.164c0.797-0.967,1.791-2.129,3.047-3.355    c1.252-1.221,2.76-2.553,4.721-3.559c0.98-0.488,2.104-0.885,3.338-0.898c1.238-0.045,2.527,0.494,3.471,1.391    c1.875,1.791,2.934,4.494,2.979,7.264c0.068,2.777-0.602,5.555-1.436,8.262c-0.846,2.713-1.879,5.395-2.879,8.072    c-1.023,2.672-2.02,5.346-2.854,8.021c-0.412,1.338-0.783,2.676-1.105,4.006c-0.311,1.33-0.57,2.67-0.842,3.986    c-1.045,5.256-1.992,10.18-2.891,14.387c-0.9,4.205-1.914,7.672-2.967,9.963c-0.25,0.578-0.543,1.062-0.771,1.492    c-0.275,0.406-0.5,0.756-0.699,1.025c-0.443,0.504-0.682,0.773-0.682,0.773s0.221-0.281,0.637-0.807    c0.188-0.277,0.389-0.641,0.641-1.051c0.199-0.441,0.471-0.932,0.695-1.514c0.484-1.146,0.922-2.604,1.363-4.283    c0.42-1.688,0.816-3.611,1.232-5.715c0.814-4.211,1.574-9.162,2.59-14.443c0.26-1.316,0.51-2.656,0.814-4.021    c0.316-1.355,0.686-2.715,1.092-4.074c0.822-2.715,1.803-5.42,2.811-8.1c1.023-2.676,2.072-5.336,2.924-8    c0.844-2.656,1.506-5.35,1.459-7.961c-0.035-2.588-0.953-5.09-2.607-6.754c-0.822-0.811-1.889-1.291-2.98-1.281    c-1.088-0.016-2.145,0.318-3.088,0.762c-1.887,0.924-3.428,2.168-4.711,3.324c-1.289,1.164-2.322,2.279-3.154,3.213    C463.329,492.17,462.487,493.331,462.487,493.331z"/>
	</g>
	<g>
		<path fill="#010101" d="M176.997,496.178c0,0,0.073-0.363,0.289-1.021c0.219-0.656,0.567-1.617,1.181-2.762    c0.614-1.143,1.481-2.48,2.744-3.793c1.255-1.312,2.941-2.58,5.034-3.432c2.103-0.893,4.534-1.184,7.057-1.473    c2.533-0.27,5.208-0.447,7.977-0.562c5.536-0.238,11.44-0.342,17.339-0.467c2.949-0.053,5.897-0.105,8.799-0.158    c2.899-0.076,5.754-0.166,8.497-0.379c1.369-0.105,2.719-0.234,3.998-0.467c0.325-0.066,0.648-0.135,0.97-0.203l0.484-0.092    l0.534-0.041c0.709-0.043,1.381,0.041,2.027,0.209c2.592,0.695,4.509,2.324,6.187,3.756c1.674,1.473,3.082,2.938,4.372,4.186    c1.287,1.25,2.452,2.293,3.502,3.031c1.041,0.752,1.971,1.174,2.635,1.352c0.667,0.182,1.046,0.141,1.043,0.164    c0.003-0.023-0.374,0.039-1.056-0.111c-0.677-0.146-1.653-0.514-2.732-1.242c-1.092-0.707-2.308-1.715-3.648-2.92    c-1.345-1.197-2.808-2.605-4.484-4.027c-1.679-1.379-3.615-2.906-5.988-3.475c-1.198-0.322-2.354-0.129-3.685,0.225    c-1.337,0.275-2.701,0.398-4.087,0.523c-2.772,0.234-5.633,0.346-8.54,0.447c-2.905,0.072-5.857,0.146-8.809,0.221    c-5.901,0.078-11.801,0.137-17.321,0.334c-2.759,0.111-5.427,0.207-7.943,0.418c-2.506,0.227-4.907,0.465-6.917,1.271    c-2.029,0.783-3.705,1.938-4.981,3.172c-1.282,1.234-2.187,2.52-2.836,3.625c-0.644,1.113-1.052,2.043-1.299,2.686    C177.087,495.819,176.997,496.178,176.997,496.178z"/>
	</g>
	<path fill="#010101" d="M235.396,482.61c0,10.281-8.334,20.723-18.616,20.723c-10.281,0-18.615-9.34-18.615-19.621L235.396,482.61z   "/>
	<g>
		<path fill="#010101" d="M419.181,496.178c0,0-0.092-0.357-0.338-1.004c-0.248-0.645-0.656-1.572-1.299-2.684    c-0.648-1.105-1.555-2.391-2.834-3.625c-1.275-1.234-2.951-2.389-4.979-3.172c-2.01-0.809-4.41-1.047-6.914-1.273    c-2.516-0.211-5.182-0.307-7.939-0.418c-5.52-0.197-11.414-0.256-17.312-0.334c-2.951-0.074-5.9-0.148-8.807-0.221    c-2.904-0.102-5.766-0.211-8.535-0.445c-1.385-0.123-2.748-0.248-4.086-0.52c-0.693-0.152-1.283-0.346-1.883-0.381    c-0.607-0.047-1.217,0-1.811,0.127c-2.385,0.525-4.385,1.947-6.109,3.27c-1.725,1.359-3.221,2.727-4.57,3.914    c-1.344,1.195-2.533,2.225-3.58,2.992c-1.039,0.773-1.957,1.254-2.623,1.457c-0.67,0.207-1.047,0.164-1.047,0.164    s0.381,0.021,1.029-0.217c0.648-0.23,1.518-0.76,2.521-1.561c1.008-0.799,2.148-1.867,3.443-3.113    c1.297-1.24,2.746-2.668,4.473-4.08c1.727-1.379,3.717-2.9,6.307-3.545c0.645-0.152,1.326-0.223,2.018-0.188    c0.705,0.029,1.385,0.23,1.99,0.348c1.279,0.229,2.629,0.359,3.998,0.463c2.742,0.211,5.596,0.301,8.492,0.379    c2.9,0.053,5.848,0.105,8.795,0.158c5.896,0.125,11.799,0.227,17.332,0.467c2.768,0.115,5.439,0.295,7.973,0.562    c2.521,0.289,4.951,0.58,7.053,1.475c2.094,0.852,3.777,2.119,5.031,3.43c1.264,1.312,2.129,2.65,2.742,3.793    c0.613,1.145,0.963,2.104,1.182,2.76C419.108,495.815,419.181,496.178,419.181,496.178z"/>
	</g>
	<path fill="#010101" d="M360.782,482.61c0,10.281,8.334,20.723,18.615,20.723s18.615-9.34,18.615-19.621L360.782,482.61z"/>
	<g>
		<path fill="none" d="M132.612,436.769c0,0.05-0.002,0.1-0.002,0.149c1.133,10.246,2.262,20.547,3.582,32.594l0.129,1.182    l-0.935-0.733c-1.085-0.852-1.986-1.573-2.773-2.204c-1.427-1.144-2.458-1.97-3.542-2.733c-4.394-3.096-8.792-4.731-12.72-4.731    c-7.516,0-12.848,5.762-14.629,15.808c-1.327,7.48-1.106,13.78,0.676,19.263c1.394,4.286,3.1,8.58,4.75,12.731    c4.737,11.921,9.635,24.248,7.862,38.086c-0.026,0.208,0.029,0.701,0.698,1.663c8.247,11.859,10.996,25.264,12.738,37.982    c0.712,5.205,3.504,11.291,8.136,13.157c14.257,5.738,15.208,17.846,16.127,29.556c0.25,3.189,0.931,6.417,1.59,9.538    c0.306,1.451,0.612,2.902,0.878,4.356c4.828,31.214,20.446,56.37,46.422,74.785c12.636,8.959,22.651,18.66,30.618,29.658    c6.793,9.382,16.1,16.102,27.661,19.973c11.969,4.008,24.103,6.039,36.064,6.039c11.824,0,23.749-1.985,35.441-5.901    c11.349-3.802,20.253-9.896,26.466-18.115c9.829-13,21.695-23.332,30.936-30.88c1.388-1.134,2.787-2.257,4.188-3.38    c9.123-7.32,18.557-14.89,24.726-25.562c12.08-20.886,19.792-45.36,23.577-74.825c0.069-0.535,0.118-1.073,0.168-1.606    c0.282-3.068,0.574-6.241,4.567-7.905c7.732-3.22,11.939-10.127,16.008-16.806l0.546-0.896    c1.182-12.046,3.526-25.993,11.866-38.222c2.484-3.644,3.373-8.515,2.644-14.479c-0.967-7.9,0.759-15.002,5.77-23.747    c4.559-7.954,7.024-17.459,6.945-26.765c-0.087-10.388-2.646-22.771-14.35-22.771c-4.303,0-9.528,1.654-15.533,4.916    c-0.422,0.23-1.025,0.062-1.641-0.161c-0.231-0.084-0.474-0.173-0.712-0.229l-0.326-0.078l-0.052-0.331    c-0.925-5.939-0.047-11.814,0.802-17.496c0.524-3.515,1.067-7.148,1.169-10.735c0-0.048-0.002-0.097-0.002-0.145"/>
		<path fill="#010101" d="M490.79,483.792c-0.164-19.641-8.438-23.764-15.35-23.764c-4.472,0-9.858,1.694-16.042,5.037    c-0.178,0-0.49-0.113-0.792-0.223c-0.159-0.058-0.324-0.117-0.489-0.169c-0.822-5.684,0.027-11.372,0.85-16.877    c0.53-3.544,1.077-7.209,1.181-10.878c0-0.05-0.002-0.101-0.002-0.15h-1c0,0.048,0.002,0.097,0.002,0.145    c-0.102,3.587-0.645,7.221-1.169,10.735c-0.849,5.682-1.727,11.557-0.802,17.496l0.052,0.331l0.326,0.078    c0.238,0.057,0.48,0.146,0.712,0.229c0.615,0.223,1.219,0.392,1.641,0.161c6.005-3.262,11.23-4.916,15.533-4.916    c11.703,0,14.263,12.384,14.35,22.771c0.079,9.306-2.387,18.811-6.945,26.765c-5.011,8.745-6.736,15.847-5.77,23.747    c0.729,5.964-0.159,10.835-2.644,14.479c-8.34,12.229-10.685,26.176-11.866,38.222l-0.546,0.896    c-4.068,6.679-8.275,13.586-16.008,16.806c-3.993,1.664-4.285,4.837-4.567,7.905c-0.05,0.533-0.099,1.071-0.168,1.606    c-3.785,29.465-11.497,53.939-23.577,74.825c-6.169,10.672-15.603,18.241-24.726,25.562c-1.4,1.123-2.8,2.246-4.188,3.38    c-9.24,7.548-21.106,17.88-30.936,30.88c-6.213,8.22-15.117,14.313-26.466,18.115c-11.692,3.916-23.617,5.901-35.441,5.901    c-11.961,0-24.095-2.031-36.064-6.039c-11.562-3.871-20.868-10.591-27.661-19.973c-7.967-10.998-17.981-20.699-30.618-29.658    c-25.977-18.415-41.595-43.571-46.422-74.785c-0.267-1.454-0.573-2.905-0.878-4.356c-0.659-3.121-1.339-6.349-1.59-9.538    c-0.919-11.71-1.87-23.817-16.127-29.556c-4.632-1.866-7.424-7.952-8.136-13.157c-1.742-12.719-4.491-26.123-12.738-37.982    c-0.669-0.962-0.725-1.455-0.698-1.663c1.772-13.838-3.125-26.165-7.862-38.086c-1.649-4.151-3.355-8.445-4.75-12.731    c-1.782-5.482-2.003-11.782-0.676-19.263c1.781-10.046,7.113-15.808,14.629-15.808c3.928,0,8.326,1.636,12.72,4.731    c1.085,0.764,2.116,1.59,3.542,2.733c0.788,0.631,1.688,1.353,2.773,2.204l0.935,0.733l-0.129-1.182    c-1.32-12.047-2.449-22.348-3.582-32.594c0-0.05,0.002-0.1,0.002-0.149h-0.997c0,0.068-0.002,0.136-0.002,0.204    c1.099,9.961,2.191,19.923,3.455,31.463c-0.681-0.54-1.283-1.022-1.83-1.46c-1.441-1.155-2.482-1.989-3.592-2.771    c-4.563-3.214-9.161-4.913-13.296-4.913c-8.048,0-13.739,6.062-15.613,16.634c-1.357,7.645-1.125,14.104,0.709,19.745    c1.404,4.317,3.116,8.626,4.771,12.792c4.69,11.804,9.54,24.008,7.799,37.591c-0.08,0.632,0.204,1.403,0.869,2.359    c8.127,11.687,10.844,24.953,12.569,37.548c0.696,5.089,3.407,11.795,8.753,13.949c13.683,5.506,14.567,16.775,15.504,28.706    c0.256,3.255,0.943,6.514,1.608,9.667c0.304,1.442,0.608,2.885,0.871,4.315c4.868,31.478,20.624,56.857,46.83,75.436    c12.545,8.895,22.484,18.521,30.386,29.428c6.918,9.555,16.39,16.396,28.153,20.335c12.071,4.042,24.312,6.091,36.382,6.091    c11.932,0,23.963-2.003,35.759-5.953c11.542-3.866,20.608-10.077,26.944-18.46c9.766-12.916,21.574-23.196,30.771-30.709    c1.386-1.132,2.783-2.253,4.181-3.375c9.195-7.378,18.703-15.007,24.965-25.841c12.147-21.002,19.901-45.6,23.704-75.197    c0.07-0.548,0.121-1.098,0.171-1.643c0.279-3.027,0.52-5.642,3.957-7.073c8.032-3.346,12.325-10.394,16.478-17.21l0.604-0.991    l0.071-0.212c1.166-11.947,3.469-25.789,11.708-37.871c2.625-3.85,3.57-8.951,2.81-15.162c-0.95-7.771,0.686-14.472,5.645-23.128    C488.357,502.956,490.871,493.271,490.79,483.792z"/>
	</g>
</g>
<g opacity="0.2">
	<path fill="none" d="M400.89,510.042"/>
</g>
<g opacity="0.2">
	<path fill="#010101" d="M346.569,502.651c0.01-0.002-0.012,0.119,0.055,0.312c0.049,0.195,0.252,0.432,0.527,0.682   c0.568,0.506,1.574,0.973,2.793,1.461c1.221,0.496,2.705,0.93,4.291,1.391c1.596,0.445,3.303,0.895,5.023,1.297   c1.719,0.422,3.449,0.797,5.07,1.156c1.625,0.35,3.141,0.676,4.441,0.957c1.305,0.277,2.391,0.508,3.15,0.67   c0.762,0.168,1.195,0.266,1.195,0.266s-0.445-0.027-1.225-0.072c-0.773-0.072-1.889-0.137-3.213-0.309   c-1.326-0.17-2.875-0.357-4.521-0.646c-1.648-0.279-3.395-0.645-5.133-1.049c-1.732-0.428-3.459-0.896-5.051-1.43   c-1.592-0.527-3.047-1.127-4.26-1.717c-1.215-0.586-2.162-1.244-2.703-1.836c-0.264-0.301-0.422-0.588-0.443-0.811   C346.538,502.764,346.581,502.651,346.569,502.651z"/>
</g>
<g opacity="0.2">
	<path fill="#010101" d="M236.451,439.317c7.779,2.314,15.061,4.434,21.365,6.041c6.295,1.633,11.625,2.693,15.383,3.238   c1.883,0.258,3.374,0.354,4.389,0.395c1.016,0.008,1.558,0.01,1.558,0.01s-0.54-0.039-1.551-0.111   c-1.008-0.098-2.478-0.322-4.335-0.66c-1.852-0.373-4.095-0.855-6.639-1.533c-2.549-0.654-5.401-1.488-8.511-2.4   c-3.111-0.91-6.46-1.973-10.008-3.076c-3.543-1.129-7.279-2.316-11.143-3.547c-0.938-0.297-1.905-0.603-2.857-0.904h-6.152   C230.828,437.631,233.68,438.486,236.451,439.317z"/>
	<path fill="#010101" d="M160.462,438.319c-1.68,2.059-3.025,3.938-4.067,5.529c-1.05,1.584-1.791,2.879-2.278,3.771   c-0.488,0.891-0.724,1.379-0.724,1.379s1.1-1.873,3.355-4.9c1.126-1.516,2.57-3.299,4.343-5.229   c0.642-0.682,1.338-1.389,2.063-2.102h-1.367C161.322,437.292,160.881,437.81,160.462,438.319z"/>
	<path fill="#010101" d="M360.954,437.792c-3.984,1.211-7.834,2.379-11.486,3.488c-3.658,1.086-7.109,2.135-10.312,3.031   c-3.203,0.898-6.141,1.727-8.764,2.375c-2.619,0.674-4.924,1.154-6.828,1.531c-1.908,0.34-3.416,0.566-4.453,0.666   c-1.037,0.074-1.592,0.113-1.592,0.113s0.557-0.004,1.6-0.012c1.043-0.043,2.57-0.146,4.506-0.404   c3.857-0.551,9.332-1.605,15.811-3.213c6.486-1.582,13.988-3.66,22.004-5.93c3.04-0.865,6.169-1.764,9.329-2.67h-6.438   C363.203,437.11,362.062,437.456,360.954,437.792z"/>
	<path fill="#010101" d="M443.981,443.711c-1.078-1.625-2.457-3.561-4.201-5.658c-0.349-0.423-0.727-0.854-1.109-1.285h-1.354   c0.638,0.627,1.253,1.249,1.824,1.854c1.838,1.963,3.316,3.797,4.48,5.346c2.318,3.109,3.447,5.031,3.447,5.031   s-0.242-0.502-0.744-1.418C445.825,446.665,445.06,445.336,443.981,443.711z"/>
</g>
</svg>