<?xml version="1.0" encoding="UTF-8"?>
<!-- Generator: Adobe Illustrator 16.0.0, SVG Export Plug-In . SVG Version: 6.00 Build 0)  -->
<!DOCTYPE svg PUBLIC "-//W3C//DTD SVG 1.1//EN" "http://www.w3.org/Graphics/SVG/1.1/DTD/svg11.dtd">
<svg version="1.1" id="Layer_4" xmlns="http://www.w3.org/2000/svg" xmlns:xlink="http://www.w3.org/1999/xlink" x="0px" y="0px" width="864px" height="864px" viewBox="0 0 864 864" enable-background="new 0 0 864 864" xml:space="preserve">
<g>
	<rect x="36.063" y="29.657" fill-rule="evenodd" clip-rule="evenodd" width="801.974" height="801.974"/>
	<path fill-rule="evenodd" clip-rule="evenodd" fill="#FFFFFF" d="M656.256,29.657c-32.588,146.663-65.046,293.357-97.804,439.983   c-25.396,113.676-51.209,227.263-76.646,340.928c-1.527,6.829-1.362,14.034-1.984,21.062c-30.296,0-60.594,0-90.89,0   c-13.296-63.417-25.892-126.984-40.013-190.219c-44.967-201.323-90.504-402.521-135.766-603.777   c-0.58-2.579-0.452-5.315-0.655-7.978C360.416,29.657,508.337,29.657,656.256,29.657z"/>
	<g>
		<path fill-rule="evenodd" clip-rule="evenodd" d="M565.866,46.255c26.67,57.699,28.041,109.598,6.927,164.9    c-38.181-5.362-72.321-18.029-102.887-40.287c-24.411-17.778-45.338-15.293-72.19,0.026    c-30.93,17.642-64.547,30.575-98.915,46.442c-24.6-60.185-21.833-112.109,3.365-171.762    C338.521,64.352,371.85,80.329,403.9,98.551c21.506,12.228,40.096,11.961,61.602-0.413"/>
		<ellipse cx="437.043" cy="310.7" rx="18.168" ry="16.626"/>
		<ellipse cx="437.043" cy="466.406" rx="18.168" ry="16.626"/>
		<ellipse cx="437.043" cy="621.762" rx="18.168" ry="16.626"/>
	</g>
</g>
</svg>